<?xml version="1.0" encoding="utf-8"?>
<!-- Generator: Adobe Illustrator 22.1.0, SVG Export Plug-In . SVG Version: 6.00 Build 0)  -->
<svg version="1.1" id="Layer_1" xmlns="http://www.w3.org/2000/svg" xmlns:xlink="http://www.w3.org/1999/xlink" x="0px" y="0px"
	 viewBox="0 0 800 685.4" style="enable-background:new 0 0 800 685.4;" xml:space="preserve">
<style type="text/css">
	.st0{fill:#F15A22;}
</style>
<path d="M-0.3-0.9c266.7,0,533.5,0,800.3,0c0,228.7,0,457.4,0,686.3c-266.7,0-533.5,0-800.3,0C-0.3,456.7-0.3,228-0.3-0.9z
	 M410.6,669.4c47.2,0,94.3,0,141.5,0c73.5,0,132.3-58.3,132.4-131.7c0.2-85.1,0.1-170.3,0-255.4c0-32.8-10.6-61.7-31.8-86.8
	c-1.6-1.9-3.7-5.9-3.1-6.5c2.2-2.2,5.3-4.3,8.2-4.7c6.2-0.7,12.5-0.6,18.7-0.1c3.6,0.3,7.6,1.3,10.4,3.4c13,9.7,26.8,11.3,41.8,5.8
	c2.2-0.8,4.8-1.1,7-0.7c25.5,4.6,47.7-12.4,48.1-38.1c0.6-31.7,0.4-63.5,0.1-95.2c-0.2-16.8-10.6-31.4-25.8-36.6
	c-16.3-5.6-31-2.2-42.8,10.5c-4.3,4.7-6.8,3.8-10.7-0.2c-12.5-12.7-27.8-17.3-45.3-14.2c-18.6,3.3-30.7,14.5-37.7,31.6
	c-2.1,4.9-4.3,6.6-9.5,3c-25.6-17.8-52.3-18.2-79.5-3.8c-3.8,2-6.5,2.5-10.3-0.1c-10-7-21.4-9.9-33.5-9.8c-10.3,0-20.6-0.1-30.8,0.2
	c-4.7,0.1-7.7-1.5-10.4-5.5c-11.1-16.7-30.6-22-48.9-14c-2.6,1.1-6,1.5-8.8,0.9c-16.9-3.7-32.9,2.4-42.4,17.2
	c-2.8,4.4-5.4,5.4-10.4,4c-17.1-4.6-34.7-4.7-50.2,3.8c-10.7,5.9-18.4,6.9-29-0.2c-11-7.3-24.6-7.1-37.7-5.7
	c-5.2,0.6-10.3,1.2-14.1-4.7c-13.6-21.4-38.4-25.3-58.4-9.5c-3.2,2.5-5.4,2.4-9,0.9c-7.5-3.2-15.3-7.5-23.1-8
	C93.5,18,71.4,18,49.3,18c-19.2,0-31.5,12.3-31.6,31.5c-0.1,34.2-0.1,68.4,0,102.6c0,11.7,3.9,22,12.2,30.2
	c22,21.9,59.3,11.8,67.2-18.2c1.3-5.1,3.4-6.6,8.5-7c7.3-0.6,14.6-2.1,21.6-4.1c4.9-1.4,7.3-0.8,9.3,4.1
	c4.8,11.7,13.5,19.1,25.5,22.9c9.5,2.9,11.7,10.5,5.4,18.1c-19.5,23.9-29.8,51.3-29.9,82.1c-0.2,86.5-0.2,173,0.1,259.4
	c0,9.9,1.3,20.1,3.7,29.8c14.6,59.4,67.1,100.1,128.2,100.2C316.7,669.4,363.6,669.4,410.6,669.4z"/>
<path d="M412.9,639.1c-47,0-94,0.1-141.1,0c-44.1-0.1-82.4-26.8-96.6-68.2c-3.6-10.5-5.6-22.2-5.7-33.3
	c-0.5-85.8-0.4-171.6-0.2-257.4c0.2-55.6,45.4-100.4,102-100.6c94.3-0.4,188.5-0.3,282.8,0c56.8,0.2,101.6,45.8,101.6,102.5
	c0,84.9,0,169.8,0,254.7c0,56.5-45.4,102.1-101.8,102.3C507,639.3,459.9,639.1,412.9,639.1z M413.2,203.9c-46.3,0-92.7-0.1-139,0.1
	c-6.2,0-12.6,0.2-18.6,1.6c-37.7,8.5-62.1,39.2-62.1,78c-0.1,83.6,0,167.1,0,250.7c0,2.4,0.1,4.9,0.2,7.3
	c3,42.1,36.6,73.3,78.9,73.3c92.7,0,185.4,0,278.1,0c47.1,0,81.1-33.7,81.1-80.7c0.1-83.3,0.1-166.7,0-250c0-46.3-34-80.2-80.1-80.2
	C505.4,203.9,459.3,203.9,413.2,203.9z"/>
<path d="M71.2,128.2c0,9,0.2,17.2-0.1,25.4c-0.2,7.1-4.2,11-10.7,11.1c-6.4,0-10.7-3.8-10.8-11c-0.2-34.1-0.1-68.2-0.1-102.3
	c0-0.8,0.4-1.7,0.8-3.2c17.8,0,35.5-0.1,53.3,0c3.5,0,7.1,0.3,10.6,1c20,4.1,33.7,22.7,31.6,42.6c-2.2,20.8-18.8,36.1-39.4,36.3
	C95.1,128.3,83.7,128.2,71.2,128.2z M71.6,70.9c0,12.5,0,24,0,36c13,0,25.7,0.5,38.3-0.2c8.6-0.4,15.1-8.7,15.1-17.5
	c0.1-9.1-5.9-17.6-14.5-18.1C97.8,70.4,84.9,70.9,71.6,70.9z"/>
<path class="st0" d="M671.3,49.3c6.3-0.2,12.8,3.4,15.8,11.3c11.9,31,23.4,62.1,34.9,93.2c2,5.4-0.8,10.8-5.6,12.6
	c-5,1.9-10-0.3-12.4-6c-2.5-5.9-4.7-12-6.6-18.2c-1.3-4-3.3-5.8-7.7-5.7c-14,0.2-28.1,0.2-42.1,0.1c-3.6,0-5.7,1-6.9,4.7
	c-1.9,6.1-4.4,12.1-6.7,18.2c-2.7,6.9-7.7,9.9-13.2,8.1c-5.7-1.9-7.8-7.2-5.1-14.3c11.5-30.6,23.3-61.1,34.9-91.7
	C653.8,52.9,660.3,49.4,671.3,49.3z M650.4,115.8c13.1,0,24.5,0,37.2,0c-6-16-11.7-31-17.4-46.1c-0.7,0.1-1.4,0.1-2.1,0.2
	C662.3,84.9,656.5,99.8,650.4,115.8z"/>
<path d="M217.1,148c0,7.4,0.1,14,0,20.7c-0.1,6.8-4,11.3-9.6,11.4c-6,0.1-10-4.4-10.1-11.6c-0.1-28.9-0.1-57.8,0-86.8
	c0-9.7,7.6-13.8,16-9.2c1.5,0.8,3.8,1.3,5.1,0.7c18.2-7.8,44,0.1,47.4,28.3c1.2,10.4,0.3,20.4-4.1,30
	C252.9,151.2,237.4,157.3,217.1,148z M217.1,110.1c0,3.3,0,6.7,0,10c0,7.6,3.5,12.2,10.6,14c6.5,1.6,13.1-1,16.4-7.3
	c5.1-9.7,4.8-19.8,0.2-29.6c-3.1-6.6-10.4-8.3-19.2-6.5c-7.6,1.5-8.5,6.4-7.9,12.7C217.3,105.6,217.1,107.9,217.1,110.1z"/>
<path d="M554.2,128.6c6.1,2.1,12.1,4.9,18.4,6.2c5.1,1,8.6,2.3,8.3,8.1c-0.3,5.8-3.4,8.9-9.2,9.4c-19.2,1.8-37.8-12.4-39.9-31.6
	c-0.8-7.4-0.4-15.2,1.3-22.4c4.3-19.2,18.8-28.5,41.3-27.7c17.6,0.6,31.7,12.7,34.7,30.3c1.1,6.3,0.8,12.8,1.3,19.3
	c0.3,4.3-1.6,5.2-5.5,5.2c-15.4-0.2-30.7-0.1-46.1,0c-1.2,0-2.5,0.2-3.7,0.4C554.7,126.7,554.4,127.6,554.2,128.6z M550.7,105
	c13.3,0,26.2,0,39.3,0c-2.7-12-10.1-17.4-21.9-16.6C557.2,89.2,551.5,94.6,550.7,105z"/>
<path d="M300.9,125c6.2,7.2,12.7,9.1,19.5,9.9c5.3,0.6,8.3,2.4,8,8.2c-0.3,6-3.4,8.7-9.2,9.2c-24.7,1.9-43-18.3-40.3-45
	c2.9-29.2,23.9-41.2,51.2-35.4c15.4,3.3,25.9,16.4,27.4,32.5c0.6,6.6,0.1,13.3,0.1,20.7C339.2,125,321,125,300.9,125z M337.4,105.4
	c-1.1-12-10.1-18.4-22.9-16.9c-10.5,1.2-16.4,7.6-15.3,16.9C311.7,105.4,324.3,105.4,337.4,105.4z"/>
<path d="M464.7,89.7c0,11.7,0,23.7,0,35.7c0,5.6,0.1,11.1-0.1,16.7c-0.2,6.1-3.8,10-9.2,10.2c-5.4,0.2-9.9-4-10-10.2
	c-0.2-18,0-36.1,0-54.1c0-5.5,0-11,0-17c17.8,0,34.9-0.9,51.9,0.3c12.2,0.9,22.1,13,22.5,25.5c0.5,15.1,0.3,30.3,0.1,45.4
	c-0.1,6-4,10-9.4,10.1c-5.2,0.2-9.7-4.3-9.8-10.5c-0.2-12.7,0-25.4-0.1-38.1c0-11-3.8-14.9-14.7-15.1c-6.2-0.1-12.5,0.1-18.7,0.2
	C466.7,88.7,466.1,89.2,464.7,89.7z"/>
<path class="st0" d="M754.1,107.6c0,14.9,0,29.8,0,44.7c0,7.5-3.2,11.6-8.8,11.8c-5.9,0.2-9.6-4.1-9.7-11.8
	c-0.1-28.7-0.2-57.4-0.1-86.1c0-10.4,3.2-14.9,9.4-15c6.6,0,9.3,4.7,9.2,15.6C754,80.5,754.1,94,754.1,107.6z"/>
<path d="M372.2,100.9c0-12.7,0-25.4,0-38c0-7.6,3.4-11.9,9.4-12.1c6.3-0.1,9.8,4.2,9.8,12.2c0,26.2,0,52.5,0,78.7c0,5.1-2,9.2-7,9.8
	c-3.2,0.3-7.3-1.2-9.9-3.3c-1.8-1.4-2.1-5.2-2.2-8C372.1,127.2,372.2,114.1,372.2,100.9z"/>
<path d="M165,111c0-9.8-0.1-19.6,0-29.4c0.1-7.2,3.5-10.9,9.7-11c5.9-0.1,9.7,3.5,9.8,10.3c0.2,20.3,0.2,40.6,0,60.8
	c-0.1,6.6-4.2,10.6-9.7,10.6c-5.8,0-9.6-4.3-9.7-11.2C164.9,131.1,165,121,165,111z"/>
<path d="M426.2,111.6c0,9.8,0.1,19.6,0,29.4c-0.1,6.9-3.8,11.1-9.6,11.2c-5.7,0.1-9.5-4.3-9.5-11.2c-0.1-19.8-0.1-39.7,0-59.5
	c0-7.4,3.2-10.9,9.6-10.9c6.2,0,9.5,3.6,9.5,11C426.3,91.6,426.2,101.6,426.2,111.6C426.2,111.6,426.2,111.6,426.2,111.6z"/>
<path d="M426.1,57.2c0.1,5.5-4.1,9.9-9.4,9.9c-5.3,0-9.6-4.4-9.7-9.7c0-5.2,4.5-10.1,9.4-10.2C421.4,47.1,426.1,51.9,426.1,57.2z"/>
<path d="M184.1,57.2c0.1,5.6-4.1,10-9.5,9.9c-5.2-0.1-9.7-4.7-9.5-10c0.1-4.9,4.7-9.7,9.3-9.7C179.7,47.2,184.1,51.6,184.1,57.2z"/>
<path d="M412,600.6c-43.5,0-86.9,0-130.4,0c-40.5,0-71.9-29.5-72.5-70.1c-0.8-59.9-0.4-119.9-0.4-179.9c0-21.6-0.2-43.2,0.3-64.9
	c1-36.2,31.9-67.5,68.1-67.7c90.5-0.5,181-0.4,271.5,0c34,0.2,64.7,30.5,67.1,64.6c0.2,3.3,0.2,6.7,0.2,10c0,78.5,0,156.9,0,235.4
	c0,41.1-31.3,72.4-72.3,72.5C499.9,600.7,456,600.6,412,600.6z M413.2,225.7c-43.7,0-87.3,0-131,0c-37.9,0-65.9,28-65.9,65.8
	c0,78.7,0,157.3,0,236c0,36.9,27.4,65.4,64.1,65.6c88,0.3,176,0.3,264,0c36.5-0.1,64-28.3,64-64.9c0.1-78.9,0.1-157.7,0.1-236.6
	c0-37.9-27.8-65.8-65.8-65.9C499.7,225.7,456.4,225.7,413.2,225.7z"/>
<path d="M492.2,323.9c-13.1,13.7-26.7,28.1-40.4,42.4c-6,6.3-12.3,12.3-18.4,18.4c-4.2,4.2-9.2,7.7-9.3,14.7c0,1.7-1.7,4.2-3.2,4.8
	c-6.2,2.5-5.6,7.5-5.6,12.7c0.1,16.9,0,33.9,0.1,50.8c0,2.2,0,4.3,0,4.8c9.8,4.2,19.2,6.5,26.6,11.7c28.3,19.5,24.6,60.7-6.4,75.6
	c-18.1,8.7-36,7.6-52.6-3.9c-14.1-9.8-20.5-23.7-18.8-41c1.9-18.9,17.3-34.9,37-39c2.6-0.5,5.2-1,8.4-1.6c0-12.3,0-24.3,0-36.2
	c0-6.7-0.1-13.4,0-20.1c0.1-5.5,0.9-11.1-5.8-14c-1.5-0.7-3.1-3.2-3-4.9c0.2-6.5-4.3-10-8.1-13.9c-19.6-20.1-39.3-40.1-59-60.1
	c-0.6-0.6-1.4-1.1-2-1.5c-29.1,20.6-60,9.4-73-8.6c-12.8-17.7-10.7-42,5.4-57.2c18.7-17.5,48.2-18.2,67.8-1.8
	c15.2,12.7,23.7,38.7,4.1,63.4c22.6,21.6,45.2,43.3,68.5,65.7c4.3-3,11-4,17.7,1.8c22-22.7,43.7-45.3,66.1-68.5
	c-8.7-10-13.4-23.4-9.8-38.9c2.5-10.9,8.7-19.5,17.6-26c19.5-14.2,48.2-12.1,65.1,4.6c15.5,15.3,17.7,38.6,5.3,56.2
	C551.1,336.4,526,340.1,492.2,323.9z M409.7,484.4c-21.7-1.1-40.7,20.8-36.7,41.2c3.3,16.9,18.3,29.7,35.9,30.7
	c19.8,1.1,36.6-9.3,42-26.2c7.1-22-12-47.1-35.5-45.7c0,6.3-0.3,12.8,0.2,19.1c0.2,2.2,1.7,4.8,3.5,6.1c4.8,3.6,7.5,7.7,5.6,13.7
	c-1.8,5.6-6.3,8.2-11.7,8.3c-5.7,0.1-10.5-2.5-12.3-8.3c-1.8-5.9,0.6-10.3,5.7-13.6c1.6-1,3.3-3.2,3.4-4.9
	C409.9,498.2,409.7,491.6,409.7,484.4z M500.1,316.5c17.2,14.6,43.9,11.6,57.6-4.7c13-15.6,10.5-37.1-6-50.2
	c-17.2-13.6-44.4-10.8-57.6,6c-11.6,14.8-10.4,35.4,3.2,45.7c5.3-8.9,18.2-12.1,16.8-26.3c-0.6-6.4,7.3-10.3,14.5-9
	c6.5,1.1,10.6,6.5,9.9,12.9c-0.8,6.4-6.3,10.4-13.5,10.1c-2.8-0.1-6.4-0.5-8.4,1C511,306.3,505.9,311.4,500.1,316.5z M328.9,313.3
	c14.3-16.4,12.7-37-2.5-50.4c-16.8-14.8-43.3-13.1-58.4,3.6c-12.8,14.2-11.7,35.5,2.5,48.5c15.5,14.2,41.5,14.9,54.8,0.6
	c-2.4-2.1-4.9-4.3-7.4-6.4c-5.5-4.8-9.1-12-19.3-8.5c-6.3,2.1-11.9-4.4-12-11.1c-0.1-6.9,5.2-11.8,12.6-11.7
	c7.3,0.1,12.5,4.9,12.7,11.8c0,1.9-0.3,4.3,0.7,5.5C317.6,301.4,323.1,307.1,328.9,313.3z"/>
<circle cx="298.9" cy="289.5" r="12.8"/>
<circle cx="412.4" cy="520.4" r="12.8"/>
<circle cx="526.1" cy="289.5" r="12.8"/>
<circle cx="412.6" cy="395.7" r="13.7"/>
</svg>
