<?xml version="1.0" encoding="utf-8"?>
<!-- Generator: Adobe Illustrator 22.1.0, SVG Export Plug-In . SVG Version: 6.00 Build 0)  -->
<svg version="1.1" id="Layer_1" xmlns="http://www.w3.org/2000/svg" xmlns:xlink="http://www.w3.org/1999/xlink" x="0px" y="0px"
	 viewBox="0 0 2267.7 5669.3" style="enable-background:new 0 0 2267.7 5669.3;" xml:space="preserve">
<style type="text/css">
	.st0{clip-path:url(#SVGID_2_);}
	.st1{fill:#4677BC;}
	.st2{fill:#9CD7D4;}
	.st3{fill:#3EB779;}
	.st4{fill:#794126;}
	.st5{fill:#514033;}
	.st6{fill:#EF5E25;}
	.st7{fill:#EEEEEE;}
	.st8{fill:#F0EAE8;}
	.st9{fill:#D14728;}
	.st10{fill:#C73D27;}
	.st11{fill:#FEFAF8;}
	.st12{fill:#F17446;}
	.st13{fill:#F28A67;}
	.st14{fill:#F3A082;}
	.st15{fill:#F3BAA8;}
	.st16{fill:#A78550;}
	.st17{fill:#FFFFFF;}
	.st18{fill:#F15A22;}
	.st19{fill:none;}
	.st20{font-family:'MyriadPro-Regular';}
	.st21{font-size:162.464px;}
	.st22{clip-path:url(#SVGID_2_);fill:none;}
</style>
<g>
	<defs>
		<rect id="SVGID_1_" x="4.9" width="2263.9" height="5664.2"/>
	</defs>
	<clipPath id="SVGID_2_">
		<use xlink:href="#SVGID_1_"  style="overflow:visible;"/>
	</clipPath>
	<g id="Page-1" class="st0">
		<g id="icon-1-cloud">
			<path id="cloud" class="st1" d="M2038.1,3038.7c51.8,22.6,88,74.3,88,134.4c0,80.8-65.6,146.6-146.6,146.6h-498.4
				c-81.1,0-146.6-65.6-146.6-146.6c0-60.1,36.3-111.9,88.3-134.5l0,0c-0.2-4-0.3-8-0.3-12.1c0-113.3,91.9-205.2,205.2-205.2
				c67.4,0,127.1,32.5,164.6,82.6c24.6-15.2,53.6-24,84.6-24C1965.1,2880,2036.7,2950.8,2038.1,3038.7L2038.1,3038.7z"/>
		</g>
	</g>
	<g class="st0">
		<path class="st2" d="M-22.6,5664.2v35.6c16.5-0.4,33-0.8,49.5-1.1C6.4,5692.9-12.2,5684-22.6,5664.2z"/>
		<path class="st2" d="M2270.2,5154.5c-1,0-2,0-2.9,0c1,1.4,2.1,2.8,3.1,4.1C2270.3,5157.2,2270.3,5155.9,2270.2,5154.5z"/>
		<path class="st2" d="M2318,5582c3.3-61.7-44.8-125.2-42.9-187c1.1-35.6,0-71.3-0.7-106.9c-0.2-9.3-0.4-18.5-0.6-27.8
			c-202.2-0.5-404.5,0.4-606.7-2.8c-79.1-1.2-158.4-1.6-237.5-4.3c-147.7-5.1-295.4-9.3-443-15.4c-64-2.6-127.9-8.9-191.8-13.5
			c-0.3,116-0.6,231.9-1.3,347.9c-0.1,10.3,4.8,16.9,11.9,23.4c6.1,5.7,12.8,10.7,14.6,19.8c6.4,33.1,2,37.8-33.7,38.7
			c-50,1.2-100.1,2.8-150,5.3c-16.2,0.8-25.2-0.9-22.4-19.2c3.1-20-6.1-42.9,17.6-57.6c1.1-0.7-0.9-6-1.5-9.1
			c-130.1-0.5-260.2-1.1-390.3-1.6c-1.8,7.6-2.7,15.4,6.7,18.9c31,11.5,15,36.2,17.6,55.4c1,7.1-7.6,7.7-13.8,7.7
			c-58.8,0.1-117.5-0.1-176.3,0.2c-12.7,0.1-15.1-5.5-16.7-16.4c-3.6-24.5,5.4-42.7,26.1-56.8c-0.5-93.6-1-187.1-1.6-280.7
			c-0.1-10.6-0.9-21.2-1.3-31.9c-33.8,5.8-67.5,11.4-101.3,17.1c-0.8,35.1-1.4,70.2-1.4,105.4v272.8
			c45.2,38.4,100.9,31.5,154.2,31.5c14.2,0,28.4,0.4,42.6,0.8c18.6-0.3,37.2-0.5,55.8-0.7c18.7-1.3,37.2-4.2,55.5-10
			c-1.6,3.8-3.6,6.9-5.9,9.5c105.8-0.9,211.5-0.7,317.3,0.5c103.4,1.2,206.8,3.6,310.1,7.3c4.5,0.2,9,0.3,13.5,0.5
			c7.6-2.6,15.2-5.4,22.7-8.6c3.7-1.6,7.7-4,12.7-0.4c-3.1,4-6.6,7.2-10.4,9.9c79.9,2.9,159.9,6,239.4,12.8
			c79.8,6.8,159.1,17.6,238.2,29.9c2.9-5.8,9-8.9,16.3-9.8c71.3-8.7,143-10.9,214.8-9.5c2.5-1.4,5.5-2.2,9.1-2.2
			c61.1,0,122.2-1.8,183.3-3.6c139.7-4.2,283.1-10.5,424.1-0.8C2257.7,5675.3,2315.5,5628.4,2318,5582z M286,5684.9
			c5.1-7.3,10.4-14.2,22.5-13.3C304.2,5682.9,295.9,5685.1,286,5684.9z M572.8,5668.5c99.4,23.6,195,6.4,290.4-4.8
			C832.4,5694,611.8,5712.3,572.8,5668.5z M972.3,5683.4c-0.7,1.8-2.5,3.3-5.2,6.5c-0.8-3.9-2-6.1-1.3-7.5c0.8-1.5,3.4-2.1,5.3-3.1
			C971.5,5680.7,972.7,5682.3,972.3,5683.4z"/>
		<path class="st3" d="M81.4,5239.9c-0.1-161.7-0.4-323.4,0.3-485.1c0.1-18.3-2.9-25.7-25.4-24.4c-20.9,1.2-41.8,2.3-62.7,3.4
			c-0.4,85.1-1.9,170.1-4.5,255.1c-3,99-8,197.8-10.3,296.7c33.8-5.7,67.6-11.4,101.3-17.1c1-0.6,2-1.1,3-1.5
			C82.5,5257.8,81.4,5248.8,81.4,5239.9z"/>
		<path class="st3" d="M2271,5175.7c-0.2-5.7-0.4-11.4-0.7-17.1c-1-1.4-2.1-2.8-3.1-4.1c-25.9-26.8-51.3-54.1-77.9-80.3
			c-86.9-85.5-181.6-160.9-303.8-199.5c-15.7-5-32.3-7.5-48.5-11.2c-0.7,12.4-7.8,15.6-19.5,11.7c-10.9-3.6-20.3-9.7-28.7-17
			c-17.1-0.6-23.8,4.2-23.4,23c1.7,84.7,0.9,169.5,1,254.3c19.6,9.6,12.9,26.7,13.1,41.6c0.1,7.8-6.8,8.3-13.2,8.3
			c-7.9,0-15.8,0-23.7,0c-34.7,0-35.6-0.1-35.4-32c0.1-15.9-5.2-21.7-22.6-21.1c-29.7,1.1-59.6,0.8-89.4,0.1
			c-14-0.3-20.6,2.9-20.6,17.6c0,12.2,8,31.4-6.5,35.4c-18.6,5.1-40.7,7.8-60.3-2.7c-2.7-17-6.6-33.6,8.4-48.5
			c6.9-6.8,3.4-17.4,3.5-26.3c0.4-86.5,0.6-173,0.9-259.5c-25.3-13.3-54.1-11-81.3-15c-126.6-18.5-249.4-47.7-361.2-109
			c-94.3-8.5-188.9-8.9-283.5-9.8c0,169.9,0.1,339.8,0.1,509.7c63.9,4.6,127.8,10.9,191.8,13.5c147.6,6.1,295.4,10.3,443,15.4
			c79.1,2.7,158.4,3.1,237.5,4.3c202.2,3.2,404.4,2.2,606.7,2.8C2273,5232.1,2272.1,5203.9,2271,5175.7z"/>
		<path class="st4" d="M794.5,4714.7c0,169.9,0.1,339.8,0.1,509.7c-0.3,116-0.6,231.9-1.3,347.9c-0.1,10.3,4.8,16.9,11.9,23.4
			c6.1,5.7,12.8,10.7,14.6,19.8c6.4,33.1,2,37.8-33.7,38.7c-50,1.2-100.1,2.8-150,5.3c-16.2,0.8-25.2-0.9-22.4-19.2
			c3.1-20-6.1-42.9,17.6-57.6c1.1-0.7-0.9-6-1.5-9.1c0.4-34.3,0.8-68.6,1.2-102.9c0.7-1,0.7-1.9-0.2-2.6c0.3-6.2,0.7-12.5,1-18.7
			c3.6-11.5,2.3-23.1,0.3-34.6c1.1-67.1,2.8-134.2-0.9-201.2c0.6-15.3,1-30.5,1.8-45.8c1.1-20.8-9.4-19.3-23.5-10.8
			c-12.5-6.6-25-13.2-37.5-19.8c-1-36.7-1-36.7-39.7-36.7c-72.2,0-144.4-0.2-216.6,0.2c-8.8,0-21.1-4.6-25.1,7.4
			c-3.5,10.8,0.3,20.3,9.7,28.8c32.2,29.2,63.6,59.1,95.3,88.7c7.2,7.3,14.4,14.5,21.5,21.8c-10.1,8.5-20.1,16.9-30.2,25.4
			c-16.8-14.5-33.7-29-50.5-43.5c-24.2-23.4-48.3-46.8-72.5-70.1c-5.6-5.4-12.2-10.3-20.7-6.3c-7.9,3.8-5,11.5-5,17.6
			c0.1,23.6,0.7,47.3,1.2,70.9c-0.4,76.2-0.8,152.4-1.2,228.5c-5,34.1,0.1,68,1.2,102c-1.8,7.6-2.7,15.4,6.7,18.9
			c31,11.5,15,36.2,17.6,55.4c1,7.1-7.6,7.7-13.8,7.7c-58.8,0.1-117.5-0.1-176.3,0.2c-12.7,0.1-15.1-5.5-16.7-16.4
			c-3.6-24.5,5.4-42.7,26.1-56.8c30.8-2,62.1,6,92.4-4.3c3.5-1.9,3.4-4.1,0.5-6.4c0.2-280.1,0.3-560.3,0.5-840.4
			c20.5-8,41.9-5.4,63.1-5c-0.5,87.4-1,174.8-1.4,262.2c0,5.5-1.2,12.5,6.6,14.6c9.2,2.5,14.7-3.8,20.1-9.2
			c33-33.2,66.1-66.2,98.7-99.7c20.5-21,17.8-71.3-3.5-92.3c-25.3-25.1-50.1-50.8-75.1-76.2c26.3-6.9,53.3-3.2,79.9-4.3
			c10.1,26.6,35.4,40.8,56.4,58.1c7.1,5.8,23,5.6,30,0c23.2-18.5,49.8-34.8,62.1-62.9c26.9,5.3,54-2.8,80.9,0.6
			c-30.6,29.4-61.3,58.6-91.8,88.2c-18.4,17.9-18.2,70.4,0.4,88.3c33.6,32.4,67.4,64.8,101.5,96.8c6.4,6,12.1,17,23.4,12.1
			c9.6-4.2,5.3-14.9,5.3-22.5c0.3-79.7,0.1-159.5,0-239.2c0-8.1,1.4-16.5-3.9-23.9C684.3,4714.9,739.4,4714.8,794.5,4714.7z
			 M433.9,5052c38.7,0,77.5,0.3,116.2-0.3c8.6-0.1,21.3,5.4,24.9-7c3-10.1,3.2-20.9-6.3-29.9c-37.7-35.7-74.6-72.2-112.7-107.5
			c-14.3-13.3-35.1-13.6-48-1.9c-38.3,35-74,72.6-110.3,109.5c-8.6,8.8-7.1,20.4-3.2,30.5c4,10.3,15,6.3,23.2,6.4
			C356.4,5052.2,395.1,5052,433.9,5052z"/>
		<path class="st5" d="M2270.2,5154.5c-2.6-68.2,0.6-135.8,0-205c-0.6-68.5,0.3-126.8,0-195.3c-1.5-1.4-16.6-12.8-18.1-14.3
			c-2,0.3-3.3-0.5-3.7-2.4c-1.3-1.1-2.5-2.2-3.8-3.3l-0.7-0.7c-33-24.5-64.3-51.6-106.4-62.7c-100.7-16.8-198.8,0.7-296.7,20.1
			c-6.8,1.3-13.7,2-20.6,3c-19.8,8-41.4,9.8-62.1,14.5c-0.3,6.6,0,13.2-0.9,19.7c-4.1,30.1,4.2,53.5,33.3,71.4
			c23.8,14.7,38.8,37.6,46.5,63.9c16.2,3.7,32.8,6.2,48.5,11.2c122.2,38.5,216.9,113.9,303.8,199.5c26.6,26.2,52,53.5,77.9,80.3
			C2268.2,5154.5,2269.2,5154.5,2270.2,5154.5z"/>
		<path class="st6" d="M176.4,4729.8c-0.2,280.1-0.3,560.3-0.5,840.4c-0.2,2.2-0.3,4.3-0.5,6.4c-30.3,10.2-61.6,2.2-92.4,4.3
			c-0.5-93.6-1-187.1-1.6-280.7c-0.1-10.6-0.9-21.2-1.3-31.9c1-0.6,2-1.1,3-1.5c0.5-7.3,1.4-14.7,1.4-22
			c0.1-163.5,0.4-327.1-0.3-490.6c-0.1-19.1,5-26.9,26.4-25.2C132.4,4730.8,154.4,4729.7,176.4,4729.8z"/>
		<path class="st6" d="M387.1,5272.7c10.1-8.5,20.1-16.9,30.1-25.4c30.3,3.6,54.1-5.7,69.9-30.9c31-23.9,57-52.5,84.9-79.4
			c12.5,6.6,25,13.2,37.5,19.8c-16.3,18.4-32.5,36.9-48.8,55.3c-18.2,18.9-36.3,37.9-54.8,56.5c-5.9,5.9-7.6,12.1-7.6,20
			c-0.2,36.7,8.7,69.1,41.3,93.5c12.9,9.6,21.8,23.7,33.9,34.3c19.5,16.9,31.1,41.4,57.4,51.5c-0.5,0.9-0.5,1.9,0.1,2.8
			c-0.4,34.3-0.8,68.6-1.2,102.9c-130.1-0.5-260.2-1.1-390.3-1.6c-1.1-34-6.2-68-1.2-102c19.1,5.4,32.7-0.7,45.5-15
			c30.3-33.8,62.1-66.5,93.7-99.4c7.5-7.8,11.7-15.9,11.3-26.4C388,5310.3,387.6,5291.5,387.1,5272.7z M449.9,5521
			c0,0.5,0,0.9,0,1.4c37,0,73.9,0.3,110.9-0.2c8.2-0.1,20.7,5.4,24-3.7c3.8-10.2,4.9-22.8-2.1-33.4c-2.3-3.5-5.6-6.3-8.7-9.2
			c-33.5-31.5-67-63-100.7-94.3c-18-16.7-42.1-16.5-60.2,0.6c-32.2,30.4-63.5,61.6-96.2,91.5c-13.1,11.9-12.1,26.1-8.3,38.8
			c3.2,10.9,18.1,8,27.9,8.2C374.2,5521.5,412,5521,449.9,5521z"/>
		<path class="st7" d="M583,5729c31.4,9.6,64.4,12.4,96.9,14.4c53.3,3.2,105.9-0.4,157.9-9.4C752.9,5731.5,668,5729.9,583,5729z"/>
		<path class="st7" d="M945.5,5703.9c3.8-2.7,7.3-6,10.4-9.9c-5.1-3.6-9-1.2-12.7,0.4c-7.5,3.2-15,6.1-22.7,8.6
			C928.8,5703.3,937.2,5703.6,945.5,5703.9z"/>
		<path class="st7" d="M279.6,5694.8c2.3-2.6,4.3-5.8,5.9-9.5c-18.3,5.8-36.9,8.7-55.5,10C246.5,5695.1,263,5694.9,279.6,5694.8z"/>
		<path class="st7" d="M26.8,5698.6c49.1-1.1,98.2-2,147.3-2.7c-14.2-0.3-28.4-0.8-42.6-0.8c-53.3,0-108.9,6.9-154.2-31.5v0.5
			C-12.2,5684,6.4,5692.9,26.8,5698.6z"/>
		<path class="st7" d="M572.8,5668.5c99.4,23.6,195,6.4,290.4-4.8C832.4,5694,611.8,5712.3,572.8,5668.5z"/>
		<path class="st7" d="M285.9,5685.1c5.1-7.4,10.4-14.5,22.7-13.6c-4.3,11.5-12.8,13.7-22.9,13.3
			C285.6,5684.9,285.9,5685.1,285.9,5685.1z"/>
		<path class="st7" d="M967.1,5689.9c-0.8-3.9-2-6.1-1.3-7.5c0.8-1.5,3.4-2.1,5.3-3.1c0.5,1.4,1.7,3.1,1.2,4.1
			C971.6,5685.2,969.8,5686.6,967.1,5689.9z"/>
		<path class="st6" d="M1338.5,4601.1C1338.5,4601.1,1338.5,4601.1,1338.5,4601.1C1338.5,4601.1,1338.5,4601.1,1338.5,4601.1
			L1338.5,4601.1z"/>
		<path class="st6" d="M1396.5,4611.2C1396.5,4611.2,1396.5,4611.2,1396.5,4611.2c0.1,0.1,0.1,0.1,0.1,0.1L1396.5,4611.2z"/>
		<path class="st6" d="M657.8,4625.3c-221.5-4.9-443-6-664.5-5.7c0.3,33.9,0.4,67.8,0.3,101.6c11.1-0.7,22.1-1.5,33.1-2.5
			c53.7-4.9,107.7,1,160.7-5.1c53.5-6.1,107-3.7,160.4-6.5c38.7-2,78.3-4.7,117.7-2.6c76.6,4.1,152.9-6.8,229.5-4.4
			c15.2,0.5,19.2-5.4,19.8-18.9C717.1,4625.8,717.5,4626.7,657.8,4625.3z"/>
		<path class="st6" d="M1790.5,4799.6c-29-17.9-37.4-41.3-33.3-71.4c0.9-6.5,0.6-13.1,0.9-19.7c-5.2-22.5-1.7-45.3-2.9-67.9
			c-4.2-38-4.2-76-3.4-114.1c-4.3-20.6-2.6-41.3-1.4-62.1c-2.8-1.8-3.7-4.1-2.4-7.1c0.1-5,0.1-10,0.2-14.9
			c-0.8-33-1.6-66.1-2.3-99.1c-5.2-13.3-3.5-26.9-1.7-40.6c-0.4-6.2-0.8-12.3-1.2-18.5c-3.3-13.3-2.6-26.6-0.7-39.9
			c-0.2-6.7-0.4-13.4-0.6-20.1c-4.9-41-5.7-82.2-5.2-123.4c-0.2-18.2-0.3-36.4-0.5-54.7c-6.5-32.8-4.9-66-4.1-99.1
			c-0.4-9.9-0.8-19.8-1.2-29.8c-4.3-18.1-3-36.3-1.4-54.5c-3.1-4.7-3.6-9.6-1-14.7c-2.8-8.6-2.3-17.1-0.2-25.7
			c-1.1-9.8-2.2-19.6-3.3-29.3c-0.6-5.4,1.4-13.6-6.6-14c-10.5-0.5-7.8,8.6-8.6,14.7c-0.4,3.2-0.9,6.5-1.4,9.7c0.3,5,0.5,10,0.8,15
			c-1.3,3-3.3,5.9-3.9,9.1c-6.9,35.5-6.8,35.5-46.7,35.5c-27.1,0-54.3-1.5-81.2,0.4c-24.6,1.8-36.4-4.8-32.1-29.2
			c0.8-4.8,0.1-9.8,0.1-14.7c-6-7.1-3.4-15.5-4-23.4c-0.7-9.2,2.9-20.8-13.8-20.6c-15.6,0.2-14.6,10.8-14.7,20.6
			c0,2.4,0.2,4.8,0.4,7.3c8.7,9.5,0,16.9-3.5,24.9c-0.4,6.6-0.7,13.2-1.1,19.8c6.4,4.7,4.2,8-2.1,10.4c-0.6,3.1-1.3,6.2-1.9,9.2
			c9.9,3.5,30.3,0.6,13.9,20.1c-4,178-8,356.1-12,534.1c-0.7,5.3-1.3,10.6-2,15.9c3.1,34.5,5.1,68.9-2,103.2
			c1.9,28.1,2.2,56.2-0.2,84.3c-1.1,23.4-13.2,7.9-21.6,5.4c-10.8-1.6-16.1-11-24.8-15.5c-7.9,6.7-15,16.1-27.3,6.4
			c-3.6-2-7.1-3.9-10.7-5.9c-1.7,0-3.2-0.4-4.7-1.2c-6.1,1.4-11.9,1.5-16.5-3.5c-9.3,0.5-18.5,0.5-26.3-5.4l-2.5,0l-2.4-0.6
			c-9.4,1.3-18.6,0.9-26.9-4.2c-17.3-3.3-37.3,5.4-51.9-10.1c-4.7-0.7-9.4-1.4-14.2-2.1c-27.5,5.3-54.7,1.8-81.7-3
			c-1.9-1.1-3.9-2.2-5.8-3.3l-1.3-0.9c-5.4-0.1-11,0.2-14.2-5.2c-0.9-1.1-2.2-1.5-3.6-1.3c-4.2,0.9-8.5,1.7-12.7,2.6
			c0.3,3.7-0.9,6.6-5.5,6.2c-58-4.2-116.1-8.5-174.1-12.8l0.1,0c-36.9-2-73.8-3.9-110.7-5.9c-5.5-0.2-10.9-0.4-16.4-0.6l-2.4,0.9
			l-2.4-0.9c-7.3,2-14.3,1.2-21.2-1.4c-5.4,2.6-10.8,3.1-16.3,0.3c-6.1,0.4-12.3,0.7-18.4,1.1c-4.9,1.7-9.5,2.1-13.3-2.2l-1.6-0.5
			c-2.5-0.3-4.9-0.6-7.4-1c-12.6,9.2-27.1,4.2-40.8,4.4c-8.2,0.1-12.4-5.5-13-13c-0.4-4.9-0.4-9.9-0.4-14.8c0-216.7,0-433.5,0-650.2
			c0-4.9,0.5-9.8,4.2-15.7c16.6,38.7,33.1,77.4,49.7,116.1c4-0.4,8-0.8,12-1.2c-4.2-12.9-8.4-25.9-12.5-38.8
			c-28-60.8-55.4-120-54.6-189.8c3-250.6,0.8-501.3,1.8-752c0.1-24.3-7.7-31.9-32.7-29.5c-19.2,1.8-38.7,0.3-58.1,0.2
			c-0.9,2.4-1.7,4.7-2.6,7.1c3.4,12.2,1.9,21.9-14.7,22c-42.7,0.3-85.6,2.7-128.1-0.2c-58.3-4-116.6,7-174.7-2.3
			c-2.2-0.3-4.8,1.8-7.2,2.9c-24.7,0.1-49.3,0.8-74,0.1c-15-0.4-22.6,2.9-22.3,19c0.9,47,0.3,94,0.3,141c0,9.5-0.2,19.3,14.3,18.3
			c16.8-1.1,17.1,6.9,12.3,18.2c-17.1,39.9-26.5,82.7-52.9,126.3c0-64.1,0-122.1,0-180c0-40.4,4.4-81.3-0.9-121.1
			c-11.2-82.6-13.4-165.5-8.6-248.1c6.7-114.5,5.1-228.9,2.9-343.2c-1.6-83.9-2.8-167.7-4.2-251.6c-0.7-43.7,8.5-86.8,5.6-130.5
			c-0.6-8.6-5.2-21.1,11.6-23.1c15.9-1.9,15.1,10.8,19,19.1c1.4,2.8,0.8,6.5,1.2,9.7c8.6,1,9.7-4.5,10.5-10.4
			c-2.2-16.9,5.3-24.2,23.9-23.6c78.3,2.7,156.4-6.1,234.7-6c35.7,0.1,71.8-4,107.8-3.9c9.7,0,20.6-1.7,19.8,12.7
			c5.2,0.5,10.4,1,15.5,1.5c0.8-5.3-1-12.3,7.7-13.3c7.2-0.9,10.7,4,13.9,9.1c7.6,12.1,5,25.2,4.3,38.1c0,91,0.1,181.9,0.1,272.9
			c15.6-1.4,31.2-3,46.8-4c15.2-1,12.2-11.6,12.2-20.1c0.2-61.6-2.3-123.4,0.9-184.8c2.5-47.1-7.5-94.6,5.5-141.6
			c7.9,2.3,1.9,12.7,9.7,14.8c1.4-13.5-1.5-26.5-4.9-39.5c-10.9-1.1-11.3-8.4-11-16.1c1.7-43.8-4.4-87.8,4.9-131.4
			c-26.5-8.6-10.3-30.4-16.1-45.4c-22.8-4.3-32.9,3.4-28.6,25.8c0.9,4.6-0.4,9.2-3.1,14c-17,29.8-44.1,44.8-79.1,49
			c-43.8,6.6-88,4.2-132,5c-19.1,0.1-38.3,0.3-57.4,0.4c-1.7,0.2-3.4,0.4-5.1,0.7c-12.5,4.5-25.2,3-38,1.5c-35.3,2.5-70.6,4-106,1.9
			c-7,2.4-14.1,2.7-21.1,0.2c-6.1,0.8-11.6,0.2-15.9-4.5c-10.9-1.8-22.8-2.1-26.4-15.1c-13.7-7-4.3-20.5-9.7-29.9
			c0,0-0.6-0.5-0.6-0.5c-11.6-4.1-6.2-13.5-7.4-20.8c-1.2-7.4,3.9-17.6-7.9-20.4c-9.2-2.2-19.2-2.9-24.8,7.4c0.1,3.5,0.3,7,0.4,10.5
			c1.7,6.9,3.6,13.9-1.7,20.2c0,0,0.6-0.2,0.6-0.2c-9.8,9.4,0.5,25.5-13,33.7c-0.8,3.6-1.6,7.3-2.3,10.9
			c2.7,136.5,3,273.1,0.4,409.7c2.2,30,2.3,60,0,90c-21.3,99.9-3.1,201.4-14.4,301.6c0,33,0,65.9,0,98.9
			c-0.1,67.5,4.3,135.4-2.2,202.3c-3,31.5-4.1,63.4-8.2,94.9c0,33,0,65.9,0,98.9c0,33,0,66.1,0,99.1c0,33,0,65.9,0.1,98.9
			c0,33.1,0,66.1,0,99.2c0,33,0,65.9,0,98.9c0.2,4.8,0.5,9.7,0.7,14.5c0.5,6.1,1.4,12.2-7,14.5c-1.2,3.5-2.4,7-3.6,10.5
			c30.8,8.8,13.5,28.7,11.9,45c0.1,13.1,0.1,26.2,0.2,39.3c5.8,6.6,5.8,13.3,0,19.9c0,19.8-0.1,39.5-0.1,59.3
			c6.9,24.8,6.9,49.6,0,74.4c-0.7,6.6-1.4,13.2-2,19.8c0,33,0,65.9,0,98.9c0.7,1.7,1.4,3.3,2,5c6.9,24.8,6.9,49.6,0,74.4
			c-0.7,6.6-1.4,13.2-2,19.8c0,33,0,65.9,0,98.9c0.7,1.7,1.4,3.3,2,5c6.9,24.8,6.9,49.6,0,74.4c-0.7,6.6-1.4,13.2-2,19.8
			c0,33,0,65.9,0,98.9c0.7,1.7,1.4,3.3,2,5c6.5,26.3,7.2,52.7-0.3,78.9c-0.7,0.5-1.3,1.2-1.5,2c0.3,30.4-0.1,60.9,1.3,91.3
			c0.7,14.2-4.7,19.2-19,18.3c-16.6-1.1-33.2-1.9-49.8-2.8c-3.7,0.1-7.4,0.2-11.2,0.3c-2.6,0-5.2-0.1-7.8-0.1
			c0.3,17.8,0.6,35.7,0.8,53.5c131.1,0.1,262.1,2,393.2,2.5c132.7,0.5,265.4,7.1,398.2,9.8c75.4,1.5,150.9,5.4,226.3,9.4
			c158.4,8.4,317.2,15.8,471.4,54.6c62.4,15.7,125.9,31.3,179.5,68.5c4.4,0,8.3,1,10.6,5c21,2.7,36.6,12.9,47.5,29.7
			c4.4,0,8.3,0.9,10.6,5c0.7,0.7,1.4,1.4,2.2,2.1c-0.5-0.1-1.1-0.1-1.3-0.4c-0.4-0.5-0.6-1.1-0.8-1.7c-4.4,0-8.3-0.9-10.6-4.9
			c-18.8-8.2-40.8-11.3-53.1-29.6c-1.7-1.7-3.4-3.4-5.1-5.1c-27.2,1.1-47.5-15.9-71.1-24.1c-71.9-24.9-146-40.2-221.7-50.6
			c-122.6-16.9-246-20.3-369.5-25.7c-63.3-2.8-126.6-1.1-189.7-4c-18.5-0.9-26.8,2.9-26.6,22.7c0.6,45-0.2,42.7,47.3,47.9
			c63.3,7,126.7,0,189.7,4.7c110.8,8.3,222.1,9,332.7,22.8c100.9,12.6,200.7,27.3,298.1,55.6c47.7,13.8,89.9,36.6,131,61.9
			c4.8,3,6.5,7.6,7.2,12.6c8.5,7.3,17.9,13.3,28.8,17c11.7,3.9,18.8,0.7,19.5-11.7C1829.3,4837.2,1814.3,4814.3,1790.5,4799.6z
			 M583.3,1882.8c8-0.3,12.7,1.9,15,10.2c8.7,31.8,4.2,63.9,3.9,95.9c-0.1,8.8-9.6,11.5-17.7,11.6c-8.3,0.1-12.5-5.7-12.7-13.1
			c-0.3-15.7-0.1-31.3-0.1-47c-0.1,0-0.2,0-0.4,0c0-14.8,0-29.7,0-44.5C571.4,1888.3,574.1,1883.2,583.3,1882.8z M524.6,1895.2
			c-0.1-8.9,7.6-12.4,16.7-11.9c9.7,0.6,14,6.3,14.1,14.7c0.3,14,0.1,28,0.1,42h0.3c0,14-0.1,28,0,42c0.1,8.3-1.9,14.7-12.7,14.8
			c-8.2,0.1-12.2-2.8-14.4-10.8C520.2,1955.9,524.9,1925.4,524.6,1895.2z M491.7,1883.2c13.2-1.3,14.7,5.8,17.3,15.9
			c4.6,18,3.8,35.8,4,47.8c0,17.6,0.3,29.1-0.1,40.6c-0.3,8.7-5.7,13.5-15.2,13.6c-9.3,0-15.2-4.3-15.8-13.1
			c-2-28.6-3.7-57.2-5.3-85.8C476,1892.1,478.8,1884.4,491.7,1883.2z M449.7,1887.7c9,0,15.7,1.9,15.7,12c0,15.6,0,31.2,0,46.9
			c0.1,0,0.3,0,0.4,0c0,13.2-0.3,26.3,0.1,39.5c0.3,9.9-3.1,15.7-14.9,15.2c-10.6-0.4-16.5-5.2-16.6-15.1
			c-0.2-28.8-0.1-57.6-0.2-86.3C434,1889.8,440.6,1887.7,449.7,1887.7z M387,1900.8c0.7-10.5,9-12.9,18.8-12.7
			c8.9,0.2,12,4.6,12.4,12.5c1.4,26.9,3.4,53.8,4.9,80.8c0.6,11-2.3,19.4-16.6,20.2c-14.5,0.8-13.1-8.6-15.8-17.4
			c-5.1-16.2-3.7-32.5-3.8-48.8C386.8,1923.8,386.2,1912.2,387,1900.8z M356.1,1892.6c9.6-0.5,16.1,3.9,17.3,11.9
			c4.4,28.7,2.4,57.6,1.3,86.3c-0.3,7.4-7.5,10.6-15.6,10.3c-9.6-0.4-14.7-5.4-14.9-14c-0.4-14-0.1-28-0.1-42.1c-0.1,0-0.3,0-0.4,0
			c0-12.4,0.1-24.8,0-37.1C343.7,1899.8,345.1,1893.2,356.1,1892.6z M311.3,1892.6c12.8-0.3,16.5,5.1,17,16.3
			c1.1,26.3-3,52.7,2.7,78.8c2.2,10.1-4.8,13-13.8,13.6c-10.9,0.7-19.8-2.1-20.3-14c-0.5-14-0.1-28-0.1-42c-0.1,0-0.2,0-0.3,0
			c0-12.4,0.2-24.7-0.1-37.1C296.1,1898.3,299.5,1892.9,311.3,1892.6z M264.2,1893.1c10.6-0.7,20.2,1.2,20.9,13.3
			c0.7,14,0.2,28,0.2,42c0.1,0,0.3,0,0.4,0c0,12.4-0.2,24.7,0.1,37.1c0.2,9.5-2.2,15.7-14.4,16c-12.4,0.3-17-4.2-17.5-15.8
			c-1-25.4,3.2-51-4.1-76.2C247,1900.2,253.2,1893.8,264.2,1893.1z M206.6,1908.1c0-8.7,6.6-10.4,14.4-10.4
			c9,0.1,15.9,3.6,16.4,12.4c0.8,13.9,0.2,27.8,0.2,41.7c0.2,0,0.5,0,0.7,0c0,11.5,0,22.9,0,34.4c0,8-1,14.9-12.1,15.2
			c-9.7,0.2-18.6-1.9-19-12.3C206.4,1962.1,206.5,1935.1,206.6,1908.1z M565,3026.1c12.5-0.1,17.5,4.6,17.2,16.2
			c-0.5,16.5-0.1,33-0.1,49.5c0,16.5-0.2,33,0.1,49.5c0.2,12-4.8,18.7-18.5,18.7c-13.7,0-18.6-6.8-18.5-18.7c0.2-33,0.5-66-0.1-99
			C544.7,3028.2,552.7,3026.2,565,3026.1z M510.3,3026c13.3,0.1,19.1,4.1,18.9,17.2c-0.6,33-0.3,65.9-0.2,98.9
			c0.1,12.4-6.1,18.1-19.4,17.7c-12.2-0.3-17.4-6.2-17.3-17.2c0.1-16.5,0-33,0-49.4c0-16.5,0.5-33-0.2-49.4
			C491.5,3031.2,496.4,3026,510.3,3026z M459.4,3026.8c10.3-1.4,17,1.7,16.8,12.9c-0.3,15.5-0.1,30.9-0.1,46.4
			c-2.1,0.3-4.2,0.6-6.3,0.9c-5.1-15.1-10.4-30.2-15.2-45.4C452.9,3036,447.3,3028.5,459.4,3026.8z M444.7,3061.9
			c14.8,27,16.4,56.9,29.9,83.6c3.4,6.8-4.4,9.3-11.3,9.7c-11.1,0.7-18.9-1.4-18.7-14.3C445,3114.6,444.7,3088.2,444.7,3061.9z
			 M386,3135.7c0.6-29.7,0.4-59.4,0.1-89.1c-0.1-12.9,4.6-20.5,19.8-20.1c14.2,0.4,17.5,8.5,17.3,19.8c-0.2,15.7-0.1,31.3-0.1,47
			c0,14-0.5,28.1,0.2,42.1c0.5,12.5-2.1,20.2-18.4,20.1C389,3155.5,385.7,3148.7,386,3135.7z M349,3031.1c10.8,0,16.5,3.5,16.3,14.3
			c-0.3,15.6-0.1,31.3-0.1,46.9c0,15.6-0.4,31.3,0.1,46.9c0.4,11.5-4.6,16.3-17.1,16c-11.8-0.3-15.1-5.7-15-15.5
			c0.2-31.3,0.2-62.5,0-93.8C333.1,3035.4,337.9,3031.1,349,3031.1z M294.9,3043.4c2.4-5,2.6-12.6,11.3-10.4c7.9,2,6,9.1,6.1,14.6
			c0.2,15.6,0.1,31.2,0.1,46.8c0,15.6,0,31.2-0.1,46.8c0,7.2-1.5,13.3-11.2,13.3c-8.2,0-14.5-3.9-14.3-11.4
			C287.2,3109.7,279.7,3075.7,294.9,3043.4z M227.6,3128.6c-0.9-13-0.3-26.2-0.3-39.2c0-13.9,0.4-27.8-0.1-41.7
			c-0.4-11.1,3.8-16.7,16.5-16.4c11.1,0.2,15.6,4.5,15.6,14.8c0.1,28.6,1.9,57.2-10.1,84.5c-3.2,7.3-3.3,18.8-14,18
			C222.5,3147.6,228.1,3135.8,227.6,3128.6z M609.8,4555.9c-24.7-2.1-50,4-74.2-4.6c-5,0.3-10,0.7-14.9,1c-5,3.5-9.9,3.5-14.9,0.1
			c-76.3-2.8-152.6-6.1-228.9-8c-12.4-0.3-24.3-2.8-36.5-3.3c-65.8,1.7-65.8,1.7-65.8-59.3c0-97.4,2.8-194.8-0.5-292.1
			c-9-260.5-1-521.1-5.2-781.6c-0.7-42.7,20.7-77.5,33.2-115.5c9-27.5,22-53.9,30.3-81.5c5.2-17.5,11.6-28.6,33.4-26.4
			c24.3,2.4,11.3,19.7,14.6,30.5c0.7,2.3,0.1,4.9,0,7.4c2,0.7,4,1.4,6,2.1l1.2-1.2l-0.6-1.5c0.8-7.2,3.7-14.9,2-21.6
			c-3.7-15.3,5.1-15.9,17-15.8c35,0.3,70-0.1,105,0.2c26.8,0.2,32,8.1,23,34.2c0.5,1.7,0.9,3.4,1.4,5.1c1.4-0.4,2.7-0.3,4,0.3
			c1.3-0.3,2.6-0.4,4-0.3c0.4-1.6,0.9-3.2,1.3-4.9c-0.1-32.8,8.1-42.2,30.7-33.7c15.4,5.8,14.5,20.7,17.1,33.2c0,1.5,0.8,2.2,2.4,2
			c4.4-1,8.7-1.9,13.1-2.9c-11-29.9-8.7-33.1,23.4-33.3c5.3,0,10.5,0,15.8,0c35.4,0,35.4,0,34.8,33.4c3.8,2.4,7.6,4.8,11.4,7.1
			c0,0-0.6-1.2-0.6-1.2c0-8.2-0.1-16.3,0-24.5c0.1-6.7,0-13.7,10-14.2c9.4-0.4,15.4,4.2,15.7,12.8c0.6,16.3,0.1,32.6,0.1,48.9
			c-0.9,22.2-2.6,44.3,1.1,66.4c8.1,26.4,7.4,52.8,0.6,79.3c0,8.2,0,16.4,0,24.6c7.9,23,5.3,46.1,1,69.3c0.4,3.4,0.8,6.8,1.2,10.2
			c3.2,3.2,3.2,6.4-0.1,9.5c-2,11.7-2.1,23.5,0.2,35.2c2.9,3.7,2.5,7.6,0.6,11.6c0,1.8,0,3.7,0,5.5c6.9,11.9-8.6,17.2-9.1,26.9
			l0.1,0.1c4.9,2.5,5.7,6.4,4.5,11.1c5.9,30.9,3.6,62.2,4.2,93.4c0.3,16.1-8.9,26.5-28.7,23.3c-4,0.3-8,0.5-12,0.8
			c-1.8-0.2-3.6-0.4-5.5-0.6c-6.9,0.1-13.7,0.1-20.6,0.2c-1.9,0-3.9,0.1-5.8,0.1c-34.6-0.1-69.3-0.2-103.9-0.3
			c-2.8,0-5.5-0.1-8.3-0.1c0,0-2.4,0-2.4,0l-2.2-0.8c-1.5,0.9-3,1.8-4.5,2.7c-1.9,3.3-3.8,3.1-5.6-0.1c-42.2,0.1-84.5,0.1-126.7,0.2
			c-2.2,3.2-4,2.8-5.5-0.5c-0.8-1.1-1.9-1.6-3.4-1.5c-2.6,0.1-5.2,0.2-7.8,0.4l-2.6,0.1l-2.4-0.8c-15.7,0.4-31.4,0.7-47,1.1
			c-3.3-0.1-6.5-0.1-9.8-0.2c-12.2-0.6-17,4.5-16.9,16.2c0.4,56.8,0.5,113.6,0,170.3c-0.1,13.1,5.5,18,18.8,16.9
			c3.5-0.3,7-0.1,10.5-0.1c51.6,0.5,51.1-8.2,49.7,48.4c2.2,0.4,4.3,0.9,6.5,1.3c1.6-1.5,3.2-2.9,4.8-4.4
			c-14.9-36.9-9.1-45.4,30.6-45.4c28,0,56.1,1.6,83.9-0.4c27.2-2,37.1,7.9,33.4,32.2c-0.6,4-0.1,8.2-0.2,12.3c1.7,0,3.5,0.1,5.2,0.1
			c0.6-44.3,0.6-43.5,47.9-44.5c24.6-0.5,47,5.7,68.4,15.4c11.8,5.3,22.8,13.1,21.5,28.2c5.1,2.5,13.1-0.7,15.4,7.1
			c16.8,30.1,21,62.9,21.2,95.9c0.5,126.1,0,252.2-0.1,378.4c-0.1,1.8-0.1,3.5-0.2,5.3c0,29.6,0,59.2,0,88.8
			c0.2,2.6,0.5,5.3,0.7,7.9C619,4550.2,617.9,4556.6,609.8,4555.9z M576.5,3774.6c0.5,32,0.1,64,0.2,95.9c0.1,11.6-1.1,21.6-17.4,22
			c-17.5,0.5-19.8-9.6-19.5-22.5c0.3-15.6,0.1-31.2,0.1-46.7c0-15.6,1.4-31.3-0.4-46.7c-2-17.2,6.5-24.3,22.8-25
			C581.3,3750.9,576.3,3765.1,576.5,3774.6z M523.7,3822c0,17.2-0.3,34.5,0.1,51.7c0.3,12.9-7.9,14.3-18.8,14.4
			c-11.4,0.1-18.3-2.6-18.2-15.1c0.4-34.5,0.4-69,0-103.4c-0.1-11.9,5.6-15.5,17.6-15.7c12.7-0.2,20,2.8,19.4,16.4
			C523.2,3787.5,523.7,3804.7,523.7,3822z M444.6,3819.6c0-16.5,0-32.9,0-49.4c0-7.7,0-15.6,11.7-15.4c8.2,0.1,14,4.5,14.1,11.9
			c0.5,37,0.5,74.1,0.3,111.2c0,7.2-5.4,9.7-12.4,9.9c-8.4,0.2-13.5-3-13.6-11.4c-0.1-18.9,0-37.9,0-56.8
			C444.7,3819.6,444.7,3819.6,444.6,3819.6z M386.2,3771.2c0-9.4,3.8-16.1,14.8-16.6c12.5-0.6,17,6.3,17,17c0,17.2,0,34.4,0,51.6
			c0,16.4-0.2,32.8,0.1,49.2c0.2,9.8-3.3,15.2-14.9,15.4c-12.3,0.2-17.4-4.2-17.3-15.8C386.4,3838.5,386.2,3804.8,386.2,3771.2z
			 M365.3,3820.7c0,17.2-0.2,34.5,0.1,51.7c0.2,9.9-3.4,15.2-15,15.4c-12.4,0.2-17.3-4.5-17.1-16c0.4-33.7,0.3-67.3,0-101
			c-0.1-11,3.5-16.6,16.5-16.6c13.5,0,16,6.7,15.8,17.2C365,3787.9,365.3,3804.3,365.3,3820.7z M312.3,3871.8
			c0,7.8-0.3,15.5-11.8,15.3c-8.2-0.1-13.9-4.4-13.9-12c-0.3-36.2-0.4-72.4,0.1-108.6c0.1-7.5,6.1-11.5,14.3-11.6
			c9.8-0.2,11.3,6,11.3,13.2c0,17.3,0,34.6,0,51.9C312.3,3837.3,312.3,3854.5,312.3,3871.8z M259.4,3823.2c0,14.8-0.3,29.7,0,44.5
			c0.2,9.9-3.4,15.2-15.1,15.5c-12.5,0.3-17.3-4.6-17.1-16.1c0.4-30.5,0.4-61,0-91.4c-0.1-11,3.4-16.8,16.5-16.8
			c13.6,0,16,6.9,15.8,17.4C259.2,3791.9,259.4,3807.6,259.4,3823.2z M629.6,3820.8c-0.1,18.1-0.2,36.2,0,54.3
			c0.1,12.5-6.4,17.9-19.5,17.5c-12.3-0.3-17.2-6.4-17.2-17.2c0-35.4,0.5-70.7-0.3-106.1c-0.4-15.6,11.4-17.5,22.2-18.6
			c13.6-1.5,14.7,8.8,14.8,18.3C629.6,3786.2,629.6,3803.5,629.6,3820.8z M1543.7,3888.2c-0.5-9,7.8-9.3,15.2-9.2
			c43,0.1,85.9,0.2,128.9,0.2c8.6,0,16.4,1,15.2,11.7c-4.3,38.2-8.6,76.4-13.4,114.6c-0.3,2.6-4.4,4.7-6.7,7.1
			c7.1,37.4,1.9,43.7-35.7,43.7c-22.7,0-45.6-1.4-68.1,0.4c-23.2,1.9-32.7-5.4-29-27.2c0.9-5.6,0.1-11.4,0.1-17.1
			C1541,3971.2,1545.9,3929.5,1543.7,3888.2z M1545.1,4076.1c1.4-1.8,2.9-3.6,4.3-5.4c4-0.5,8.1-1,12.1-1.5
			c15.8-5.5,31.5-5.3,47.3,0.1l-0.5,2.1c15.9-0.7,31.8-1.5,47.7-2.2c1.9-2.4,3.8-2.3,5.5,0.2c3.5-0.1,6.9-0.2,10.4-0.3
			c2.4-3,4.3-2.4,5.7,0.8l1.1,0.5c5.2,0.4,10.3,0.7,15.5,1.1c18-4.1,13,8.7,13.1,16.4c0.6,45,0.6,90.1,0.9,135.1
			c0.3,2.1,0.6,4.2,0.9,6.4c0,6.6,0.1,13.1,0,19.7c-0.2,23-15.3,32.2-39,24.5c-9.3-3.1-9-9.1-7.2-15.7c2.6-9.5,6-18.8,9.1-28.2
			c0.1-1.8,0.1-3.6,0.2-5.5c-0.2-1.5-0.5-3-0.9-4.5c-2.9,0.3-5.8,0.5-8.7,0.8c-1.6,1.7-3.3,3.5-4.9,5.2c-0.6,1.4-1,2.7-1.4,4.1
			c-7.8,44.1-7.8,44.1-53.9,44.1c-1.7,0-3.5,0-5.2,0c-46.5,0-46.5,0-46.7-44.2c0.1-1.9,0.1-3.7,0.2-5.6c-0.8-26-1.6-52.1-2.4-78.1
			C1541.4,4123,1547,4099.4,1545.1,4076.1z M1702.9,4709.3c0.4,16.7-13.5,19.7-25.6,12.7c-35.2-20.5-72.5-37.3-109.6-54.3
			c-13.1-6-10.7-15.7-10.4-25.1c0.4-12.2-2.1-24.9,5.6-36.2c0.6-6.3,2.6-11.8,8.9-15.2c0.3-1.6,0.6-3.2,1-4.8
			c-2.4-4.8,6.1-8.2,1.8-13.3c-1.5-0.3-3.6-1.3-4.6-0.7c-5.7,3.6-7.1,16.2-16.5,10.7c-7.6-4.4-3.1-14.9-3.3-22.7
			c-0.2-9.2,8.7-12.1,14.2-9.4c15.2,7.4,29.8-3.6,44.4,0.6c26.9-0.2,53.7-0.3,80.6-0.7c11.4-0.2,19.6,1.6,14.3,15c0,3.3,0,6.7,0,10
			C1709.2,4620.5,1702,4664.8,1702.9,4709.3z M1709.2,4349c0.9,36.1,0.4,72.2,0.1,108.3c-0.1,8.7,2.8,18.3-5.5,25.6
			c-0.3,60.5,7.1,53.1-55.1,53.4c-52.4,0.3-52.5,0-35.1-45.7c1.1-3,3.2-5.7,4.8-8.5c0-1.6,0.2-3.2,0.6-4.7c-0.5-1.7-1.1-3.5-1.6-5.2
			c-2.7-3.2-5.5-6.5-8.2-9.7c-2.9,6.7-3.7,14.5-11.1,18.8c-3.5,12.5-7.1,25-10.5,37.5c-2.9,11-11.1,13.6-21.8,12.4
			c-11.4-1.2-10.1-9.4-10.1-16.6c-0.1-11.4,0.3-22.8,0.5-34.2c-1.7-49.9-3.3-99.7-5-149.6c-0.3-9-0.5-18-0.8-27
			c-5.1-4.4-5.5-7.6,2.4-8.8c2.7-0.6,5.3-1.3,8-1.9c2-3.3,3.9-2.9,5.6,0.2c19.3,0.1,38.6,0.1,57.9,0.2c1.8-3.4,3.6-3.5,5.6-0.1
			c3.4,0.2,6.8,0.4,10.2,0.7c14.4-1.6,28.7-3.8,43.2-4.7c7.9-0.4,18-3.4,21.2,8.1l0.5,1.2C1713.9,4314.8,1708.8,4332.2,1709.2,4349z
			 M1737.1,4779.5c20.6,3,24.7,13.9,39,23.8C1753.2,4802.8,1748.3,4792.8,1737.1,4779.5z"/>
		<path class="st8" d="M381.8,1863.3c-1.7,0.2-3.4,0.4-5.1,0.7C378.5,1863.8,380.2,1863.6,381.8,1863.3z"/>
		<path class="st9" d="M711.1,1868.1c0,23.1-0.1,46.3-0.1,69.4c-0.6,6.5-1.2,12.9-1.7,19.4c-1.6,1.7-3.3,3.5-4.9,5.2
			c-10.9-1.1-11.3-8.4-11-16.1c1.7-43.8-4.4-87.8,4.9-131.4C721,1828.5,704,1850.8,711.1,1868.1z"/>
		<path class="st10" d="M1781.6,4845.6c-41.1-25.4-83.3-48.1-131-61.9c-97.4-28.3-197.2-43-298.1-55.6
			c-110.6-13.8-221.9-14.5-332.7-22.8c-63-4.7-126.4,2.3-189.7-4.7c-47.5-5.2-46.7-2.9-47.3-47.9c-0.3-19.8,8.1-23.6,26.6-22.7
			c63.2,2.9,126.4,1.2,189.7,4c123.5,5.5,246.9,8.9,369.5,25.7c75.7,10.4,149.7,25.8,221.7,50.6c23.6,8.2,44,25.2,71.1,24.1
			c0,0,0.1-0.1,0.1-0.1c-53.5-37.1-117.1-52.8-179.5-68.5c-154.1-38.8-313-46.2-471.4-54.6c-75.4-4-150.9-7.9-226.3-9.4
			c-132.8-2.7-265.5-9.3-398.2-9.8c-131-0.5-262.1-2.4-393.2-2.5c0,1.5,0,2.9,0.1,4.4c0.1,8.5,0.2,17,0.3,25.6
			c221.5-0.2,443,0.8,664.5,5.7c59.7,1.3,59.3,0.5,57,55.9c-0.5,13.5-4.6,19.4-19.8,18.9c-76.6-2.4-152.9,8.5-229.5,4.4
			c-39.4-2.1-79,0.6-117.7,2.6c-53.4,2.8-106.9,0.4-160.4,6.5c-53,6.1-107,0.2-160.7,5.1c-11,1-22.1,1.8-33.1,2.5
			c0,4.2,0,8.3,0,12.5c20.9-1.1,41.8-2.2,62.7-3.4c22.5-1.3,25.5,6.1,25.4,24.4c-0.7,161.7-0.4,323.4-0.3,485.1c0,9,1.1,18,1.7,27
			c0.5-7.3,1.4-14.7,1.4-22c0.1-163.5,0.4-327.1-0.3-490.6c-0.1-19.1,5-26.9,26.4-25.2c21.8,1.7,43.9,0.6,65.8,0.8
			c20.5-8,41.9-5.4,63.1-5c15.2-0.2,30.3-0.5,45.5-0.7c26.3-6.9,53.3-3.2,79.9-4.3c49.5-1.6,99-3.2,148.6-4.8
			c26.9,5.3,54-2.8,80.9,0.6c11.6-0.1,23.2-0.3,34.8-0.4c55.1-0.1,110.2-0.3,165.3-0.4c94.6,1,189.2,1.4,283.5,9.8
			c106.4,0,212,11.4,317.5,22.4c83.8,8.7,166.7,22.6,247,47.4c43.1,13.3,86.6,26.9,119.4,58.9c0,85.4,0,170.9,0.2,256.3
			c0,8.7-3,18.2,4.2,26c-0.1-84.8,0.7-169.5-1-254.3c-0.4-18.8,6.3-23.6,23.4-23C1788.1,4853.2,1786.4,4848.6,1781.6,4845.6z"/>
		<path class="st9" d="M1761.9,4853.2c0,85.4,0,170.9,0.2,256.3c0,8.7-3,18.2,4.2,26c19.6,9.6,12.9,26.7,13.1,41.6
			c0.1,7.8-6.8,8.3-13.2,8.3c-7.9,0-15.8,0-23.7,0c-34.7,0-35.6-0.1-35.4-32c0.1-15.9-5.2-21.7-22.6-21.1
			c-29.7,1.1-59.6,0.8-89.4,0.1c-14-0.3-20.6,2.9-20.6,17.6c0,12.2,8,31.4-6.5,35.4c-18.6,5.1-40.7,7.8-60.3-2.7
			c-1.3-12.9,0.1-25.2,14.4-31.4c16.6-7.2,17.8-20,17.8-34.8c-0.4-89.4-0.2-178.8-0.2-268.2c11.8-1.6,23.4-0.9,34.9,1.7
			c2,22-2.5,44.4,2.9,67.6c42.3-31.4,42.3-31.4,13.8-64.9c30.9-5.6,61.7,0.9,92.5,1.3c-31.6,29.4-29.5,36.2,21.5,65.1
			c6.3-21.5,3.2-42.8,2.8-63.9C1726,4851,1744,4853.9,1761.9,4853.2z M1587.1,5107.7c38.8,0,73.4,0,106.8,0
			c-15.9-16.1-31.2-31.6-46.6-47.1c-5.1-5.1-10.4-5.3-15.6,0.3C1617.5,5075.8,1603.3,5090.7,1587.1,5107.7z M1688.5,4949.5
			c-12.6-18-29.3-31.9-44.8-46.7c-4.5-4.3-9.1-4.4-13.2,0.7c-11.7,14.6-27.3,26.6-37,46C1626.3,4949.5,1656,4949.5,1688.5,4949.5z
			 M1705.7,4994.9c-2.1-1.4-4.2-2.8-6.3-4.2c-11.9,12.7-23.8,25.5-35.8,38.2c-3.6,3.8-7.7,7.8-2.1,12.5
			c14.2,12.1,26.3,26.7,44.3,35.4C1705.7,5048,1705.7,5021.4,1705.7,4994.9z M1678.5,4973.9c-29.7,0-57.7,0-87.2,0
			c58,58.3,39.4,51.1,85.9,5.1C1677.7,4978.5,1677.6,4977.4,1678.5,4973.9z M1574.8,5000.5c0.4,27.6-2.9,52,1.7,77.3
			C1627.4,5033.9,1634.5,5042.3,1574.8,5000.5z"/>
		<path class="st5" d="M1761.9,4853.2c-17.9,0.7-36-2.2-53.7,2c-8.1-0.4-16.2-0.8-24.3-1.2c-30.8-0.4-61.6-6.9-92.5-1.3
			c-5.3-2.4-10.7-4.2-16.7-2.7c-11.5-2.7-23.2-3.4-34.9-1.7c-6.4,0.1-12.8,0.2-19.2,0.3c-25.3-13.3-54.1-11-81.3-15
			c-126.6-18.5-249.4-47.7-361.2-109c106.4,0,212,11.4,317.5,22.4c83.8,8.7,166.7,22.6,247,47.4
			C1685.7,4807.6,1729.1,4821.2,1761.9,4853.2z"/>
		<path class="st6" d="M1520.5,4848.5c6.4-0.1,12.8-0.2,19.2-0.3c0,89.4-0.2,178.8,0.2,268.2c0.1,14.8-1.2,27.6-17.8,34.8
			c-14.3,6.2-15.7,18.5-14.4,31.4c-2.7-17-6.6-33.6,8.4-48.5c6.9-6.8,3.4-17.4,3.5-26.3C1520,5021.5,1520.2,4935,1520.5,4848.5z"/>
		<path class="st3" d="M594.3,4715.5c11.6-0.1,23.2-0.3,34.8-0.4c5.3,7.4,3.9,15.8,3.9,23.9c0.1,79.8,0.3,159.5,0,239.2
			c0,7.7,4.3,18.4-5.3,22.5c-11.2,4.9-17-6.1-23.4-12.1c-34.1-32-67.8-64.4-101.5-96.8c-18.6-17.9-18.8-70.4-0.4-88.3
			C533,4774.1,563.7,4744.9,594.3,4715.5z"/>
		<path class="st3" d="M433.9,5052c-38.7,0-77.5,0.2-116.2-0.2c-8.1-0.1-19.2,3.9-23.2-6.4c-3.9-10.1-5.4-21.7,3.2-30.5
			c36.3-37,72-74.5,110.3-109.5c12.8-11.7,33.7-11.4,48,1.9c38.1,35.3,75,71.8,112.7,107.5c9.5,9,9.3,19.8,6.3,29.9
			c-3.6,12.4-16.3,6.9-24.9,7C511.3,5052.3,472.6,5052,433.9,5052z"/>
		<path class="st3" d="M239.5,4724.8c15.2-0.2,30.3-0.5,45.5-0.7c25,25.4,49.7,51.1,75.1,76.2c21.2,21,23.9,71.3,3.5,92.3
			c-32.6,33.5-65.7,66.5-98.7,99.7c-5.4,5.4-10.9,11.7-20.1,9.2c-7.7-2.1-6.6-9-6.6-14.6C238.5,4899.6,239,4812.2,239.5,4724.8z"/>
		<path class="st2" d="M387.1,5272.7c0.5,18.8,0.9,37.6,1.6,56.4c0.4,10.5-3.8,18.7-11.3,26.4c-31.6,32.8-63.4,65.5-93.7,99.4
			c-12.8,14.3-26.4,20.4-45.5,15c0.4-76.2,0.8-152.4,1.2-228.6c32.4-4.1,64.7-8.1,97.1-12.1C353.4,5243.7,370.3,5258.2,387.1,5272.7
			z"/>
		<path class="st3" d="M572,5137c-27.9,26.9-53.9,55.4-84.9,79.4c-30.8-0.2-61.5,1.5-91.4,9.1c-31.7-29.6-63.2-59.5-95.3-88.7
			c-9.3-8.5-13.2-18-9.7-28.8c3.9-12,16.3-7.4,25.1-7.4c72.2-0.3,144.4-0.2,216.6-0.2C571,5100.3,571,5100.3,572,5137z"/>
		<path class="st2" d="M630.9,5467.9c-26.3-10.1-37.9-34.7-57.4-51.5c-12.2-10.6-21.1-24.7-33.9-34.3
			c-32.6-24.4-41.6-56.8-41.3-93.5c0.1-7.9,1.7-14,7.6-20c18.6-18.5,36.6-37.6,54.8-56.4c23.5,0.4,47,0.9,70.5,1.3
			c3.6,67.1,2,134.2,0.9,201.2c-0.1,11.5-0.2,23.1-0.3,34.6c-0.3,6.2-0.7,12.5-1,18.7C630.8,5468,630.9,5467.9,630.9,5467.9z"/>
		<path class="st3" d="M364.9,4719.7c49.5-1.6,99-3.2,148.6-4.8c-12.3,28.1-38.9,44.4-62.1,62.9c-7,5.6-23,5.8-30,0
			C400.3,4760.5,375,4746.4,364.9,4719.7z"/>
		<path class="st3" d="M336.6,5229.2c-32.4,4-64.7,8.1-97.1,12.1c-0.4-23.6-1.1-47.3-1.2-70.9c0-6.1-2.9-13.9,5-17.6
			c8.5-4,15.1,0.8,20.7,6.3C288.3,5182.4,312.4,5205.8,336.6,5229.2z"/>
		<path class="st3" d="M631.2,5213.5c-23.5-0.4-47-0.9-70.5-1.3c16.3-18.4,32.5-36.9,48.8-55.3c14.2-8.5,24.6-10,23.5,10.8
			C632.3,5182.9,631.8,5198.2,631.2,5213.5z"/>
		<path class="st2" d="M395.7,5225.5c30-7.6,60.6-9.3,91.4-9.1c-15.8,25.2-39.6,34.6-69.9,30.9
			C410.1,5240,402.9,5232.7,395.7,5225.5z"/>
		<path class="st3" d="M631.8,5449.3c0.1-11.6,0.2-23.1,0.3-34.6C634.1,5426.3,635.4,5437.8,631.8,5449.3z"/>
		<path class="st10" d="M175.4,5576.7c0.2-2.1,0.3-4.3,0.5-6.4C178.8,5572.6,178.9,5574.8,175.4,5576.7z"/>
		<path class="st3" d="M630.9,5467.9c0,0-0.1,0.1-0.1,0.1c0.8,0.7,0.9,1.6,0.2,2.6C630.4,5469.7,630.4,5468.8,630.9,5467.9z"/>
		<path class="st11" d="M2244.5,4734.3c1.4,0.9,2.7,2.1,3.8,3.3C2247.1,4736.5,2245.8,4735.4,2244.5,4734.3z"/>
		<path class="st2" d="M449.9,5521c-37.8,0-75.7,0.5-113.5-0.3c-9.7-0.2-24.7,2.7-27.9-8.2c-3.7-12.7-4.7-26.9,8.3-38.8
			c32.7-29.9,64-61.1,96.2-91.5c18.1-17.1,42.2-17.3,60.2-0.6c33.8,31.3,67.2,62.8,100.7,94.3c3.1,2.9,6.4,5.8,8.7,9.2
			c7,10.7,5.8,23.2,2.1,33.4c-3.3,9.1-15.8,3.6-24,3.7c-36.9,0.5-73.9,0.2-110.9,0.2C449.9,5521.9,449.9,5521.5,449.9,5521z"/>
		<path class="st10" d="M714.2,2065.7c-9.1,6.2-4.3,15.2-4.5,22.7c-0.9,61,1.8,122.1-2.8,182.8c-3.5,47,15.1,90.2,15.9,136.4
			c1.7,106.1,8.5,212.1,13.1,318.2c3,68.2-4.7,138.6,10.6,204.3c32,136.6,9.9,273.4,15.1,409.8c5.2,136.6,2.9,273.5,2.5,410.3
			c-0.2,65.8,3.6,131.7-1.5,197.5c-28-60.8-55.4-120-54.6-189.8c3-250.6,0.8-501.3,1.8-752c0.1-24.3-7.7-31.9-32.7-29.5
			c-19.2,1.8-38.7,0.3-58.1,0.2c-1.9-9.6,1.2-18.1,7-25.9c17.6,0.4,35.3-0.3,52.7,1.6c24.2,2.6,30.8-5.5,31.1-28.5
			c1.8-138.4-7.5-276.6-6.5-414.9c0.2-32.8,3.3-65.7-4.3-98.4c-4.2-18.1,9.4-42.8-6.4-54c-15.5-10.9-40.9-2.5-61.9-3.3
			c-0.8-5.7-3.5-11.7,3.4-16c15.6-1.4,31.2-3,46.8-4c15.2-1,12.2-11.6,12.2-20.1c0.2-61.6-2.3-123.4,0.9-184.8
			c2.5-47.1-7.5-94.6,5.5-141.6c7.9,2.3,1.9,12.7,9.7,14.8c0,0,0,0,0,0c0.2,6.7,0.3,13.4,0.5,20
			C708.7,2036.5,718.1,2050.5,714.2,2065.7z"/>
		<path class="st10" d="M240.3,4541c-65.8,1.7-65.8,1.7-65.8-59.3c0-97.4,2.8-194.8-0.5-292.1c-9-260.5-1-521.1-5.2-781.6
			c-0.7-42.7,20.7-77.5,33.2-115.5c9-27.5,22-53.9,30.3-81.5c5.2-17.5,11.6-28.6,33.4-26.4c24.3,2.4,11.3,19.7,14.6,30.5
			c0.7,2.3,0.1,4.9,0,7.4c0,0-0.1,2.2-0.1,2.2c-6-1-11.7-1-15.4,4.7c-16.6,6.8-28.4,17.8-34.3,34c-5.3,5.9-7.8,12.7-8.8,20.2
			c-5.1,4.5-4.3,10.5-4.3,16.2c0.2,138.2,0.4,276.4,0.7,414.5c-12.2-0.6-17,4.5-16.9,16.2c0.4,56.8,0.5,113.6,0,170.3
			c-0.1,13.1,5.5,18,18.8,16.9c3.5-0.3,7-0.1,10.5-0.1c51.6,0.5,51.1-8.2,49.7,48.4c0.1,2,0.1,3.9,0.2,5.8
			c-16.2-3.1-21.4,8.6-27.2,18.4c-7.4,12.4-9.6,26.5-10.8,40.4c-6.5,78-1.4,156.1-2.5,234.2c-0.9,60.8,1,121.6,1.7,182.3
			C241,4478.5,240.6,4509.8,240.3,4541z"/>
		<path class="st12" d="M714.2,2065.7c3.9-15.2-5.5-29.2-4.6-44.2c7.1-6.8,6.6-13.5-0.5-20c0,0,0,0,0,0c1.4-13.5-1.5-26.5-4.9-39.5
			c1.6-1.7,3.3-3.5,4.9-5.2c1.3,1,2.7,1.9,4.1,2.8c0.3,2.4,0.6,4.9,0.9,7.3c2.3,37.6,14.8,73.5,20.4,110.5
			c13.2,62.7,26.5,125.3,39.7,188c8.1,32.6,9,66.6,21.5,98.3c3.2,33.9,11.1,66.9,21.2,99.4c3.5,33.4,12.3,65.8,20.6,98.3
			c14.5,66.2,28.9,132.4,43.4,198.6c7.3,32.9,14.7,65.8,22,98.6c9.5,30.8,8.9,63.8,23.2,93.6c7.4,58.3,28.3,114.2,35.6,172.7
			c1.7,14,2,31.8,14.5,44.2c-3.1,30.9,16.4,56.6,22.2,85.5c10.3,61.8,27.4,122.3,42.8,183.1c18.1,71.2,37.6,142.1,56.5,213.2
			c8.5,33.1,14.5,66.8,28.2,98.6c16.1,69.1,36.2,137.3,57.4,205.2c9.5,30.5,19.1,61,28.6,91.5c10.5,33,21,66,31.5,99.1
			c20.7,67.3,44,133.8,72,198.8c10.7,39.5,29.8,75.8,48.5,117.8c30-74,53.4-144.1,67.6-216.8c12.9-32.2,17-66.1,22.9-99.7
			c10.4-32.1,14.1-65.3,18.6-98.4c11.1-32.2,11.3-66,17-99.1c9.5-21.2,4-44.6,11.5-66.1c0.8,0.8,1.5,1.7,2.3,2.5
			c0.1,5.7-3.3,11.9,2.9,16.6c0.7,0.9,1.4,1.7,2.1,2.5c-5.7,81.5-25.4,161.2-37.2,241.9c-8.9,25.7-14.8,52-17.3,78.9
			c-0.9,3.3-1.8,6.6-2.7,9.9c-0.8,3.3-1.6,6.6-2.4,10c-12.7,32.1-17.2,66.2-26.3,99.2c-11.2,30.8-18.5,63.5-34.5,91.9
			c-18.4,32.9-15.7,60,8.1,87.4c3.2,6.2,6.4,12.5,9.6,18.7c11.4,27.7,34.9,48.3,49.4,74.1c-7.9,6.7-15,16.1-27.3,6.4
			c2-0.6,4-1.1,5.9-1.7c2.6-0.2,5-0.9,4.1-3.9c-0.2-0.6-2.7-0.7-4.1-1l0.7-0.1c-21.1-40.4-51.3-75.8-70.4-121.4
			c-11.7,22.5-26.1,37.4-31.9,56.7c-15.2,13.6-26.7,30.9-46,40.6c-4.7-0.7-9.4-1.4-14.2-2.1c18.9-18.4,44.4-31.9,51.2-59.5
			c26.7-27.1,41.1-56,14.4-90.3c-7.8-10.1-10.9-21.7-14.5-33.2c-23.3-61.8-46.7-123.6-70-185.4c-0.4-7.4-6.6-6.7-11.8-7.3
			c-0.2-2.7-0.4-5.5-0.6-8.2c2.4-3.9,1.8-7.8-0.3-11.6c0.2-2.4,0.4-4.8,0.6-7.2c0.4-0.7,1.2-1.5,1.1-2.2c-0.3-1.5-1-3-1.5-4.5
			c-10.9-9.2-5.6-24-13.5-34.2c-19.6-62.2-39.2-124.4-58.8-186.6c-0.9-2.7-0.8-7.5-4.8-1.6c-3.1,1.5-6.2,3-9.2,4.6
			c0-4.7-0.1-9.5-0.1-14.2c0.7-0.5,1.9-1,1.9-1.4c-0.1-1.4-0.7-2.7-1-4l-2.2,0.5c0.8-8.3,1.6-16.6,2.4-25c3.6-3.7,3.3-7-1.1-10
			c-5.5-18.1-11.1-36.3-16.6-54.4c-18.1-68.4-36.3-136.8-54.4-205.3c-0.3-8.8-7.7-7.2-13.5-7.9c-1-30.4-1-60.9-15.2-89.3
			c-18.2-74.3-36.5-148.7-54.7-223c-2.5,0.3-5.1,0.6-7.6,0.9c0,21.2,0,42.5,0,63.7c-2.5,0.1-5,0.2-7.5,0.3
			c-0.1-34.6-0.2-69.1-0.3-103.7c6-6.7,6.1-13.3-0.1-19.9c-7.4-29.3-15.4-58.4-22.2-87.8c-15.7-68.8-27-138.6-52.4-205.3
			c0.7-10.7,12.6-24.7-9.4-28.9c0.5-65-22.6-125.9-36.6-188.4c-6.8-32.9-10.4-66.5-21.8-98.5c-3.9-23.1-2.7-47.3-16.4-68.3
			c-1.1-4.6-4.8-6-9.2-6.4c-0.1-6.4-0.1-12.8-0.2-19.2c0.5-0.5,1.6-1.2,1.5-1.6c-0.4-1.3-1.2-2.4-1.8-3.6c0-3.3,0-6.5-0.1-9.8
			c5.6-8.4,6.3-16.7-0.9-24.8c-16.5-78.2-31.9-156.7-49.9-234.7c-15.8-68.4-28.9-137.2-42.3-206
			C721.6,2078.7,721.6,2070.6,714.2,2065.7z"/>
		<path class="st10" d="M291.8,3006.1c-24.7,0.1-49.3,0.8-74,0.1c-15-0.4-22.6,2.9-22.3,19c0.9,47,0.3,94,0.3,141
			c0,9.5-0.2,19.3,14.3,18.3c16.8-1.1,17.1,6.9,12.3,18.2c-17.1,39.9-26.5,82.7-52.9,126.3c0-64.1,0-122.1,0-180
			c0-40.4,4.4-81.3-0.9-121.1c-11.2-82.6-13.4-165.5-8.6-248.1c6.7-114.5,5.1-228.9,2.9-343.2c-1.6-83.9-2.8-167.7-4.2-251.6
			c-0.7-43.7,8.5-86.8,5.6-130.5c-0.6-8.6-5.2-21.1,11.6-23.1c15.9-1.9,15.1,10.8,19,19.1c1.4,2.8,0.8,6.5,1.2,9.8
			c-3.7,2.1-6.1,4.8-5.5,9.1c-6,14.9-7.1,30.5-7,46.1c0.5,67.4,1.4,134.9,1.7,202.3c0.3,77,6.7,82.8,89.2,78.7
			c-0.5,1-0.3,1.9,0.5,2.7c-2.2,10.9-11.5,8.1-18.9,8.3c-17.6,0.4-35.2,0.6-52.8,0.2c-11.5-0.2-18.6,2.7-18.1,15.1
			c1.9,42.7-7.7,85-5.5,127.8c0.8,16.3,6.2,21.6,23.2,20.9c25.5-1,51.1-1.5,76.5,0.2c15.4,1.1,34.2-1.9,43,16.1
			c-21.1-0.1-42.3-1.6-63.2,0.1c-42.2,3.4-56.5,19.4-56.4,59.3c0,9.9-0.6,19.7-0.6,29.6c-0.4,97.9-0.7,195.8-1,293.7
			c0,18.5,9.8,26.4,29.9,25.5c16.6-0.8,33.3,0.6,50,1.1C284.5,3000,288.1,3003,291.8,3006.1z"/>
		<path class="st10" d="M766.2,4244c0,5.2,0.1,10.4,0.1,15.6c-6.4,26.1-6.3,52.3,0,78.4c-0.1,25-0.1,49.9-0.2,74.9
			c-5.9,9.7-6.2,19.5,0.1,29.2c0,5.2,0.1,10.4,0.1,15.6c-6.4,26.1-6.4,52.3,0,78.4c-0.1,5.2-0.2,10.3-0.3,15.5
			c-3.9,2.4-3.6,5.9-2.7,9.5c-12.6,9.2-27.1,4.2-40.8,4.4c-8.2,0.1-12.4-5.5-13-13c-0.4-4.9-0.4-9.9-0.4-14.8
			c0-216.7,0-433.5,0-650.2c0-4.9,0.5-9.8,4.2-15.7c16.6,38.7,33.1,77.4,49.7,116.1c-0.5,15.9-4.5,31.9,0.5,47.8
			c0.1,3.9,0.2,7.7,0.3,11.6c-3.5,6-3.7,12,0,18c0,3.9,0.1,7.8,0.1,11.7c-3.8,26.1-4.5,52.2,2.1,78.1c0,19.9,0,39.9,0,59.8
			C760.2,4224.6,759.9,4234.3,766.2,4244z"/>
		<path class="st12" d="M68.6,3590.6c-21.1,36.2-31.8,76.9-58.5,116.8v-57.1c-2.6,0.1-5.2,0.2-7.8,0.3c0,0-2.2-0.5-2.2-0.5
			c0.7,16.5,1.5,33,2.2,49.5c4.1,3.3,4.3,6.6,0.1,9.9c0.2,5,0.4,10,0.5,15c2.9,3.4,3,6.7-0.6,9.7c-1.2,1.7-2.4,3.4-3.6,5
			c-0.1,0.2-0.1,0.3-0.2,0.5c-0.2,12-0.4,24-0.6,36c0.6,0.2,1.4,1,2.4,2.7l0.1,0.2c3.1,3.1,6.2,6.2,9.4,9.3
			c-4.5-52.3,29.8-93.3,46.3-139.5c4.9-13.7,11.8-26.9,20.9-47.2c1.6,16.2,2.5,25.2,3.5,34.2C82.1,3619.3,99.4,3599.4,68.6,3590.6z"
			/>
		<path class="st3" d="M0,4408.8c-3.8-0.8-7.5-1.6-11.3-2.3c1.5,43.2,2.7,86.4,3.5,129.6c2.6,0,5.2,0.1,7.8,0.1
			c1-41.2,2-82.5,3-123.7C1.4,4411.7,0.4,4410.5,0,4408.8z"/>
		<path class="st3" d="M240.3,4541c0.4-31.3,0.8-62.5,1.1-93.8c12.6,0,25.3-0.1,37.9-0.1c2.4,0.2,4.8,0.4,7.2,0.6
			c51.6,5.8,100.6,20,147.9,39.7c3.4,1.9,6.7,3.8,10.1,5.6c30.3,16.7,57.5,38.1,90.3,50.8c0.2,2.5,0.4,4.9,0.6,7.4
			c-5,0.3-10,0.7-14.9,1c-5,0-10,0-15,0.1c-76.3-2.8-152.6-6.1-228.9-8C264.4,4544,252.5,4541.5,240.3,4541z"/>
		<path class="st12" d="M291.8,3006.1c-3.6-3.1-7.3-6.1-10.9-9.2c26.7-2,20.6-25.2,29-39c10.2-30.9,20.3-61.9,30.5-92.8
			c8.6-24.1,16.8-48.2,25.9-72.1c3-7.9,5.7-15,3.1-23.7c-10-33.9-19.4-68-29-101.9c-0.7-2.4-1.4-4.8-2.1-7.2
			c-3.5-19.8-7-39.6-10.5-59.4c6.7-3.4,4.8-9.6,5.7-14.9c2.1,0.3,4.2,0.7,6.4,1c3,54.9,26,105.5,38.1,163.9
			c23.3-53.8,34.6-105.4,52.5-154.9c0.9-2.6-1.5-6.2-2.3-9.3c1.9-0.5,3.9-0.9,5.8-1.4c3.8,0.1,7.6,0.3,11.3,0.4
			c-0.1,1.7-0.3,3.4-0.4,5.1c0.2,23.2,0.4,46.3,0.7,69.5c-0.2,3.2-0.4,6.5-0.6,9.7c0,3.4-0.1,6.7-0.1,10.1c0.3,13,0.7,26,1,39
			c0,2,0,3.9,0,5.9c0,9.6,0,19.1,0,28.7c-2.4,15.1-2.5,30.2-0.1,45.4c0,4.7,0,9.5,0.1,14.2c-2.2,8.5-2.3,16.9,0.1,25.4
			c0,4.7,0,9.4,0,14.1c0,3.6-0.1,7.2-0.1,10.8c0,17.9,0,35.7,0,53.6c-2.5,13.5-2.6,27.1,0,40.6c0,4.6,0,9.3,0.1,13.9
			c-5.4,18.9,1,26.7,23.2,25.7c37.5-1.6,75-0.8,112.6-1c5.3-2.1,6.9-5.1,2.5-9.5c0-8.1,0-16.2,0-24.3c2.5-0.1,5-0.1,7.5-0.2
			c5.6,9.9-11.2,42.3,24.8,21.3c3.4,12.2,1.9,21.9-14.7,22c-42.7,0.3-85.6,2.7-128.1-0.2c-58.3-4-116.6,7-174.7-2.3
			C296.8,3002.9,294.2,3005.1,291.8,3006.1z M436.3,2678.3c0-2.3,0-4.5,0-6.8c3.1-10.8,6.8-21.6-1.6-31.9
			c-22.6,43.5-31.4,91.3-48.8,136.4c-0.6,1.5-0.6,3.4-0.2,4.9c14.4,56.4,28.1,113,47.9,168.1c-0.1,2.3-0.1,4.6,3.6,3.6
			c0.6-0.2,1.3-1.2,1.3-1.9c0.1-12.8,2.7-25.7-2.3-38.2c0-4.9,0-9.7,0-14.6c3.4-14.9,3.9-29.9,1.1-45c0-29.5,0-59,0-88.4
			c-0.1-1.9-0.1-3.9-0.2-5.8c0-13-0.1-25.9-0.1-38.9C439.4,2705.9,441.6,2692,436.3,2678.3z M378.8,2813.9c-2.7,1.3-5.1,1.7-5.5,2.7
			c-19.5,56.3-38.9,112.7-58.3,169c-2.7,7.8,1.1,10.4,9,10.4c30.8,0,61.7-0.1,92.5,0.2c11.3,0.1,14.5-5.4,11.2-14.1
			C407,2927.3,398,2869.4,378.8,2813.9z"/>
		<path class="st12" d="M980,4411.5c-16.3-40.1-47.3-72.8-65.3-112c-1.8-7.2-9.1-4.8-13.8-7c2.1-25.8-17.9-43.8-27.4-65.4
			c-13.9-31.4-31.8-61.2-48-91.8c-3.3-0.1-6.7-0.2-10-0.3c0.1-3.1,0.2-6.2,0.3-9.3c0.7-0.5,1.9-1,1.8-1.5c-0.1-1.4-0.6-2.8-1-4.2
			c-10.2-38.9-29.5-74.5-48.3-115.6c-2.1,13.8-3.4,22.5-4.7,31.1c-4.9-15.9-1-31.9-0.5-47.8c4-0.4,8-0.8,12-1.2
			c14.4,24.5,18.5,53.8,39.9,75c2.9,9.9,5.8,19.7,8.7,29.6c14,30.7,25.8,62.6,42.9,91.8c10.3,17.6,13.8,39.7,33.5,52
			c2.4,5.2,4.7,10.5,7.1,15.7c0.1,2.4,0.2,4.7,0.2,7.1c-1.5,2.8-0.6,5,2.1,6.7c23.3,37.8,42.4,77.8,69.4,113.6
			c0.8,5.9,5.5,8.1,10.7,9.9c4.6,22.8,21.7,38.1,37,54.5c9.6,16.9,23.7,30.4,36.7,44.8c5,5.1,9.9,10.3,14.9,15.4
			c19.2,23.8,44.2,41.5,69.3,59.2c5.5,3.1,11,6.2,16.5,9.3c1,1.2,1.5,2.5,1.7,4c-4.2,0.9-8.5,1.7-12.7,2.6
			c-46.4-20.5-78.1-56.6-110.4-91.8c-15.4-16.8-28.5-35.5-42.7-53.4C993.3,4425.6,990.4,4415.4,980,4411.5z"/>
		<path class="st3" d="M78.6,4429.2c0.3,30.4-0.1,60.9,1.3,91.3c0.7,14.2-4.7,19.2-19,18.3c-16.6-1.1-33.2-1.9-49.8-2.8
			c-0.2-40.6-0.3-81.2-0.5-121.9C33.3,4419.1,56,4424.2,78.6,4429.2z"/>
		<path class="st9" d="M1708.9,3818.6c-1.3,3-3.3,5.9-3.9,9.1c-6.9,35.5-6.8,35.5-46.7,35.5c-27.1,0-54.3-1.5-81.2,0.4
			c-24.6,1.8-36.4-4.8-32.1-29.2c0.8-4.8,0.1-9.8,0.1-14.7c51.1-0.6,102.2-1.2,153.3-1.9C1701.9,3818.1,1705.4,3818.4,1708.9,3818.6
			z"/>
		<path class="st10" d="M291.4,3963c-14.9-36.9-9.1-45.4,30.6-45.4c28,0,56.1,1.6,83.9-0.4c27.2-2,37.1,7.9,33.4,32.2
			c-0.6,4-0.1,8.2-0.2,12.3c-1.2,0.6-1.8,1.5-1.9,2.7c-4.5-0.1-9-0.2-13.6-0.2c-28.3,0.1-56.5,0.1-84.8,0.2
			C323,3963.9,307.2,3963.5,291.4,3963z"/>
		<path class="st9" d="M206.4,2049.8c-2.2-16.9,5.3-24.2,23.9-23.6c78.3,2.7,156.4-6.1,234.7-6c35.7,0.1,71.8-4,107.8-3.9
			c9.7,0,20.6-1.7,19.8,12.7c-0.8,0.8-1,1.8-0.5,2.8c-4.3-0.7-8.6-2.2-12.9-2c-119.3,5.3-238.7,10.8-358,16.2
			c-4.2-0.7-7.7,0-9.8,3.9l-0.8,0.8C209.3,2050.4,207.9,2050,206.4,2049.8z"/>
		<path class="st12" d="M592,3462.2c-5.5,34.7,17.2,63.1,24.1,95.1c0.2,0.9,4.5,1.1,6.9,1.6c6.9,11.9-8.6,17.2-9.1,26.9
			c-10.8-9.8-8.6-25.4-19.1-37.7c-1.3,5.4-2.2,9.1-3.1,12.8c-2.6,0-5.3-0.1-7.9-0.1c-0.7-3.2-1.3-6.3-2-9.5
			c0.7-8.3,1.5-16.6,2.2-24.8c4.3-8.5,5.8-16.8-1.4-24.7c-16.4-49.5-32.8-99-49.2-148.6c-12.9-44.1-25.8-88.2-38.6-132.3
			c4.4-1,8.7-1.9,13.1-2.8c1.5,0.1,2.8,0.6,4.1,1.3c9.8,61.8,34.1,119.9,51.9,179.7c4.5,15.2,4.3,33,18.3,45.1
			C575,3455,591.4,3454.8,592,3462.2z"/>
		<path class="st9" d="M1550.3,4012.2c44.2,0.1,88.4,0.2,132.7,0.3c7.1,37.4,1.9,43.7-35.7,43.7c-22.7,0-45.6-1.4-68.1,0.4
			c-23.2,1.9-32.7-5.4-29-27.2C1551.1,4023.8,1550.3,4018,1550.3,4012.2z"/>
		<path class="st12" d="M206.4,2049.8c1.4,0.2,2.8,0.5,4.2,1c5.4,31.1,10.3,62.3,20.5,92.4c0.4,7.8,0.9,15.5,5.5,22.4
			c4.5,33.4,11.2,66.4,22.8,98.4c5.5,45.5,19.5,89.1,32.1,133.1c-5.6,0.7-11.2,1.3-16.7,2c-0.8-0.8-0.9-1.7-0.5-2.7
			c-24.4-105.5-49-211-73.2-316.6c-1.4-6.1-2-11.5-10.6-10.5c-0.6-4.3,1.8-7,5.5-9.1C204.6,2061.2,205.7,2055.7,206.4,2049.8z"/>
		<path class="st10" d="M444.3,3961.8c0.6-44.3,0.6-43.5,47.9-44.5c24.6-0.5,47,5.7,68.4,15.4c11.8,5.3,22.8,13.1,21.5,28.2
			c-1.1,0.7-1.2,1.5-0.3,2.4c-12,0.4-24.1,0.7-36.1,1.1c-26.8,0-53.6-0.1-80.4-0.1c-4.9-0.3-9.9-0.6-14.8-0.9
			C448.4,3962.8,446.3,3962.3,444.3,3961.8z"/>
		<path class="st9" d="M1652.4,4480.6c13.1,0,26.3,0,39.4,0c4,0.8,8,1.5,11.9,2.2c-0.3,60.5,7.1,53.1-55.1,53.4
			c-52.4,0.3-52.5,0-35.1-45.7c1.1-3,3.2-5.7,4.8-8.5C1629.7,4481.6,1641.1,4481.1,1652.4,4480.6z"/>
		<path class="st10" d="M286.9,3221.9c0.8-7.2,3.7-14.9,2-21.6c-3.7-15.3,5.1-15.9,17-15.8c35,0.3,70-0.1,105,0.2
			c26.8,0.2,32,8.1,23.1,34.3c-3.5,0.5-7,0.9-10.5,1.4c-28.2-1.8-56.5-2.1-84.7,0.1C321.4,3218,304.1,3218.7,286.9,3221.9z"/>
		<path class="st10" d="M629.5,3820.8c0,18.1-0.1,36.2,0,54.3c0.1,12.5-6.4,17.9-19.5,17.5c-12.3-0.3-17.2-6.4-17.2-17.2
			c0-35.4,0.5-70.7-0.3-106.1c-0.4-15.6,11.4-17.5,22.2-18.6c13.6-1.5,14.7,8.8,14.8,18.3C629.6,3786.2,629.6,3803.5,629.5,3820.8z"
			/>
		<path class="st10" d="M539.9,3823.3c0-15.6,1.4-31.3-0.4-46.7c-2-17.2,6.5-24.3,22.8-25c18.9-0.7,13.9,13.5,14.1,23
			c0.5,32,0.1,64,0.2,95.9c0.1,11.6-1.1,21.6-17.4,22c-17.5,0.5-19.8-9.6-19.5-22.5C540.2,3854.5,539.9,3838.9,539.9,3823.3z"/>
		<path class="st10" d="M523.7,3822c0,17.2-0.3,34.5,0.1,51.7c0.3,12.9-7.9,14.3-18.8,14.4c-11.4,0.1-18.3-2.6-18.2-15.1
			c0.4-34.5,0.4-69,0-103.4c-0.1-11.9,5.6-15.5,17.6-15.7c12.7-0.2,20,2.8,19.4,16.4C523.2,3787.5,523.7,3804.7,523.7,3822z"/>
		<path class="st10" d="M492.2,3093.2c0-16.5,0.5-33-0.2-49.4c-0.5-12.6,4.3-17.8,18.2-17.7c13.3,0.1,19.1,4.1,18.9,17.2
			c-0.6,33-0.3,65.9-0.2,98.9c0.1,12.4-6.1,18.1-19.4,17.7c-12.2-0.3-17.4-6.2-17.3-17.2C492.3,3126.2,492.3,3109.7,492.2,3093.2z"
			/>
		<path class="st10" d="M582,3091.7c0,16.5-0.2,33,0.1,49.5c0.2,12-4.8,18.7-18.5,18.7c-13.7,0-18.6-6.8-18.5-18.7
			c0.2-33,0.5-66-0.1-99c-0.2-14,7.7-16,20-16.1c12.5-0.1,17.5,4.6,17.2,16.2C581.7,3058.7,582,3075.2,582,3091.7z"/>
		<path class="st10" d="M423.2,3093.4c0,14-0.5,28.1,0.1,42.1c0.5,12.5-2.1,20.2-18.4,20.1c-15.9-0.1-19.2-6.9-18.9-19.9
			c0.6-29.7,0.4-59.4,0.1-89.1c-0.1-12.9,4.6-20.5,19.8-20.1c14.2,0.4,17.5,8.5,17.3,19.8C423,3062,423.2,3077.7,423.2,3093.4z"/>
		<path class="st9" d="M1656.2,4229.9c-7.8,44.1-7.8,44.1-53.9,44.1c-1.7,0-3.5,0-5.2,0c-46.5,0-46.5,0-46.7-44.2
			C1585.6,4229.9,1620.9,4229.9,1656.2,4229.9z"/>
		<path class="st10" d="M365.3,3820.7c0,17.2-0.2,34.5,0.1,51.7c0.2,9.9-3.4,15.2-15,15.4c-12.4,0.2-17.3-4.5-17.1-16
			c0.4-33.7,0.3-67.3,0-101c-0.1-11,3.5-16.6,16.5-16.6c13.5,0,16,6.7,15.8,17.2C365,3787.9,365.3,3804.3,365.3,3820.7z"/>
		<path class="st10" d="M418.1,3823.3c0,16.4-0.2,32.8,0.1,49.2c0.2,9.8-3.3,15.2-14.9,15.4c-12.3,0.2-17.4-4.2-17.3-15.8
			c0.4-33.6,0.1-67.2,0.2-100.8c0-9.4,3.8-16.1,14.8-16.6c12.5-0.6,17,6.3,17,17C418.1,3788.8,418.1,3806,418.1,3823.3z"/>
		<path class="st10" d="M365.2,3092.3c0,15.6-0.4,31.3,0.1,46.9c0.4,11.5-4.6,16.3-17.1,16c-11.8-0.3-15.1-5.7-15-15.5
			c0.2-31.3,0.2-62.5,0-93.8c-0.1-10.5,4.8-14.7,15.8-14.7c10.8,0,16.5,3.5,16.3,14.3C365,3061,365.2,3076.6,365.2,3092.3z"/>
		<path class="st10" d="M259.4,3823.2c0,14.8-0.2,29.7,0.1,44.5c0.2,9.9-3.4,15.2-15.1,15.5c-12.5,0.3-17.3-4.6-17.1-16.1
			c0.4-30.5,0.4-61,0-91.4c-0.1-11,3.4-16.8,16.5-16.8c13.6,0,16,6.9,15.8,17.4C259.2,3791.9,259.4,3807.6,259.4,3823.2z"/>
		<path class="st10" d="M513,1946.9c0,17.6,0.3,29.1-0.1,40.6c-0.3,8.7-5.7,13.5-15.2,13.6c-9.3,0-15.2-4.3-15.8-13.1
			c-2-28.6-3.7-57.2-5.3-85.8c-0.6-10,2.3-17.8,15.2-19c13.2-1.3,14.7,5.8,17.3,15.9C513.6,1917.1,512.8,1934.9,513,1946.9z"/>
		<path class="st10" d="M386.8,1935.2c0-11.5-0.6-23,0.2-34.5c0.7-10.5,9-12.9,18.8-12.7c8.9,0.2,12,4.6,12.4,12.5
			c1.4,26.9,3.4,53.8,4.9,80.8c0.6,11-2.3,19.4-16.6,20.2c-14.5,0.8-13.1-8.6-15.8-17.4C385.6,1967.8,386.9,1951.6,386.8,1935.2z"/>
		<path class="st10" d="M571.4,1940.4c0-14.8,0-29.7,0-44.5c0-7.6,2.7-12.7,11.9-13c8-0.3,12.7,1.9,15,10.2
			c8.7,31.8,4.2,63.9,3.9,95.9c-0.1,8.8-9.6,11.5-17.7,11.6c-8.3,0.1-12.5-5.7-12.7-13.1c-0.3-15.7-0.1-31.3-0.1-47
			C571.7,1940.4,571.5,1940.4,571.4,1940.4z"/>
		<path class="st10" d="M465.7,1946.6c0,13.2-0.3,26.3,0.1,39.5c0.3,9.9-3.1,15.7-14.9,15.2c-10.6-0.4-16.5-5.2-16.6-15.1
			c-0.2-28.8-0.1-57.6-0.2-86.3c0-10,6.6-12.1,15.6-12.1c9,0,15.7,1.9,15.7,12c0,15.6,0,31.2,0,46.9
			C465.5,1946.6,465.6,1946.6,465.7,1946.6z"/>
		<path class="st10" d="M285.6,1948.5c0,12.4-0.2,24.7,0.1,37.1c0.2,9.5-2.2,15.7-14.4,16c-12.4,0.3-17-4.2-17.5-15.8
			c-1-25.4,3.2-51-4.1-76.2c-2.7-9.3,3.6-15.8,14.5-16.5c10.6-0.7,20.2,1.2,20.9,13.3c0.7,14,0.2,28,0.2,42
			C285.4,1948.5,285.5,1948.5,285.6,1948.5z"/>
		<path class="st10" d="M444.6,3819.6c0-16.5,0-32.9,0-49.4c0-7.7,0-15.6,11.7-15.4c8.2,0.1,14,4.5,14.1,11.9
			c0.5,37,0.5,74.1,0.3,111.2c0,7.2-5.4,9.7-12.4,9.9c-8.4,0.2-13.5-3-13.6-11.4c-0.1-18.9,0-37.9,0-56.8
			C444.7,3819.6,444.7,3819.6,444.6,3819.6z"/>
		<path class="st10" d="M312.3,3820c0,17.3,0,34.6,0,51.9c0,7.8-0.3,15.5-11.8,15.3c-8.2-0.1-13.9-4.4-13.9-12
			c-0.3-36.2-0.4-72.4,0.1-108.6c0.1-7.5,6.1-11.5,14.3-11.6c9.8-0.2,11.3,6,11.3,13.2C312.3,3785.4,312.3,3802.7,312.3,3820z"/>
		<path class="st10" d="M296.5,1945.3c0-12.4,0.2-24.7-0.1-37.1c-0.2-9.8,3.1-15.3,14.9-15.6c12.8-0.3,16.5,5.1,17,16.3
			c1.1,26.3-3,52.7,2.7,78.8c2.2,10.1-4.8,13-13.8,13.6c-10.9,0.7-19.8-2.1-20.3-14c-0.5-14-0.1-28-0.1-42
			C296.7,1945.3,296.6,1945.3,296.5,1945.3z"/>
		<path class="st10" d="M555.8,1940c0,14-0.1,28,0,42c0.1,8.3-1.9,14.7-12.7,14.8c-8.2,0.1-12.2-2.8-14.4-10.8
			c-8.4-30.1-3.8-60.5-4.1-90.8c-0.1-8.9,7.6-12.4,16.7-11.9c9.7,0.6,14,6.3,14.1,14.7c0.3,14,0.1,28,0.1,42
			C555.6,1940,555.7,1940,555.8,1940z"/>
		<path class="st10" d="M343.8,1945c0-12.4,0.1-24.8,0-37.1c-0.1-8.1,1.3-14.7,12.3-15.3c9.6-0.5,16.1,3.9,17.3,11.9
			c4.4,28.7,2.4,57.6,1.3,86.3c-0.3,7.4-7.5,10.6-15.6,10.3c-9.6-0.4-14.7-5.4-14.9-14c-0.4-14-0.1-28-0.1-42.1
			C344.1,1945,343.9,1945,343.8,1945z"/>
		<path class="st10" d="M227.4,3089.4c0-13.9,0.4-27.8-0.1-41.7c-0.4-11.1,3.8-16.7,16.5-16.4c11.1,0.2,15.6,4.5,15.6,14.8
			c0.1,28.6,1.9,57.2-10.1,84.5c-3.2,7.3-3.3,18.8-14,18c-12.9-1-7.2-12.8-7.7-19.9C226.8,3115.6,227.4,3102.5,227.4,3089.4z"/>
		<path class="st10" d="M238.3,1951.8c0,11.5,0,22.9,0,34.4c0,8-1,14.9-12.1,15.2c-9.7,0.2-18.6-1.9-19-12.3c-0.9-27-0.7-54-0.6-81
			c0-8.7,6.6-10.4,14.4-10.4c9,0.1,15.9,3.6,16.4,12.4c0.8,13.9,0.2,27.8,0.2,41.7C237.8,1951.8,238.1,1951.8,238.3,1951.8z"/>
		<path class="st12" d="M1704.6,4297.3c-7.8-0.5-15.6-0.9-23.4-1.6c-15.4-1.5-22.4,3.1-25.8,19.2c-11.1,52.7-25.1,104.9-38,157.2
			c-2.7-3.2-5.5-6.5-8.2-9.7c10-47.3,20-94.6,29.9-142c1.8-8.8,5.2-17.6,1.1-26.6c14.4-1.6,28.7-3.8,43.2-4.7
			C1691.2,4288.8,1701.4,4285.8,1704.6,4297.3z"/>
		<path class="st10" d="M312.3,3094.3c0,15.6,0,31.2,0,46.8c0,7.2-1.5,13.3-11.2,13.3c-8.2,0-14.5-3.9-14.3-11.4
			c0.5-33.3-7-67.3,8.2-99.6c2.4-5,2.6-12.6,11.3-10.4c7.9,2,6,9.1,6.1,14.6C312.5,3063.1,312.3,3078.7,312.3,3094.3z"/>
		<path class="st10" d="M512.1,3219.3c-1.2-0.8-2.6-1.2-4.1-1.3c-11-29.9-8.7-33.1,23.4-33.3c5.3,0,10.5,0,15.8,0
			c35.4,0,35.4,0,34.8,33.4c-1.2,0.9-1.3,2-0.4,3.2C558.5,3216.2,535.2,3220.6,512.1,3219.3z"/>
		<path class="st12" d="M288.5,3314.4c-0.4,90.4-0.9,180.7-1.2,271.1c-0.1,42.7,0.1,85.5,0.2,128.2c-2.6,0.1-5.2,0.2-7.8,0.4
			c0.7-120.6,2.3-241.2-1.1-361.8c-0.2-4.5-0.4-9-0.7-13.4c0-2.1,0.1-4.1,0.1-6.2c0.3-6.3,0.5-12.5,0.8-18.8
			c0.5-29.8,0.9-59.5,1.4-89.3c0,0,0.1-2.2,0.1-2.2c2,0.7,4,1.4,6,2.1c1.2,15.9,2.3,31.8,3.5,47.7
			C284.8,3286.3,287.4,3300.4,288.5,3314.4z"/>
		<path class="st12" d="M446.1,3239.7c0,3,0,6,0,8.9c-0.1,2-0.2,4-0.3,6c0,7.9,0,15.9,0,23.8c0,1.9,0,3.9,0.1,5.8
			c0,21.2,0,42.3,0,63.5c0,3.6,0,7.2,0,10.7c0.1,9.6,0.1,19.3,0.2,28.9c0,1.9-0.1,3.8-0.1,5.7c0.3,19.7,0.6,39.4,0.8,59.2
			c-0.3,3.1-0.7,6.2-1,9.4c0,5.2,0,10.4,0,15.6c0.1,22.8,0.1,45.6,0.2,68.4c0.1,3.6,0.1,7.2,0.2,10.9c0.3,31.2,0.5,62.5,0.8,93.7
			c-0.2,21.2-0.4,42.3-0.6,63.5c-2.8,0-5.5-0.1-8.3-0.1c0.8-34.5,3.3-69-1.3-103.4c0-12.9,0-25.9,0-38.8c2.9-16.7,3.3-33.4,0.3-50.2
			c-0.1-3.2-0.2-6.3-0.4-9.5c2.8-10.1,2.3-20.1-0.1-30.1c0.1-6.4,0.1-12.8,0.2-19.3c0-6.9-0.1-13.8-0.1-20.7c0.2-3,0.4-6,0.5-9
			c0.6-8.1,1.6-16.2,1.6-24.3c0.3-61.4,0.5-122.7,0.7-184.1c1.3-0.3,2.6-0.4,4-0.3C444.3,3229.3,445.2,3234.5,446.1,3239.7z"/>
		<path class="st13" d="M592,3462.2c-0.5-7.3-16.9-7.2-9.7-18.2c-0.2-74.3-0.5-148.5-0.7-222.8c-0.9-1.2-0.8-2.2,0.4-3.2
			c3.8,2.4,7.6,4.8,11.4,7.1C592.9,3304.2,592.4,3383.2,592,3462.2z"/>
		<path class="st14" d="M221.6,3283.6c0.3,133.3,0.5,266.6,1,399.9c0,10.5-2.6,21.6,5.1,31c-3.3-0.1-6.5-0.1-9.8-0.2
			c-0.2-138.2-0.5-276.4-0.7-414.5C217.3,3294.1,216.5,3288.1,221.6,3283.6z"/>
		<path class="st12" d="M1694.3,4071.5c-7.7,49.4-15.4,98.8-23,148.3c-2.9,0.3-5.8,0.5-8.7,0.8c-0.7-0.6-1.5-1.3-2.2-1.9
			c3-24.3,6-48.5,8.9-72.8c6-24.8,8.2-50.1,9.5-75.5C1684,4070.8,1689.2,4071.2,1694.3,4071.5z"/>
		<path class="st9" d="M1709.1,4229.4c0,6.6,0.1,13.1,0,19.7c-0.2,23-15.3,32.2-39,24.5c-9.3-3.1-9-9.1-7.2-15.7
			c2.6-9.5,6-18.8,9.1-28.2C1684.4,4229.6,1696.7,4229.5,1709.1,4229.4z"/>
		<path class="st15" d="M278.6,3352.4c3.5,120.6,1.9,241.2,1.1,361.8c0,0-2.6,0.1-2.6,0.1s-2.4-0.8-2.4-0.8c0-54.1,0-108.2,0-162.3
			c0-33,0-65.9-0.1-98.9c0-33.1-0.1-66.2-0.1-99.2C275.9,3352.6,277.2,3352.4,278.6,3352.4z"/>
		<path class="st9" d="M1556.2,4480.4c14,0.3,27.9,0.5,41.9,0.8c-3.5,12.5-7.1,25-10.5,37.5c-2.9,11-11.1,13.6-21.8,12.4
			c-11.4-1.2-10.1-9.4-10.1-16.6C1555.6,4503.2,1556,4491.8,1556.2,4480.4z"/>
		<path class="st10" d="M444.7,3061.9c14.8,27,16.4,56.9,29.9,83.6c3.4,6.8-4.4,9.3-11.3,9.7c-11.1,0.7-18.9-1.4-18.7-14.3
			C445,3114.6,444.7,3088.2,444.7,3061.9z"/>
		<path class="st13" d="M597.5,3967.9c-9.5,15.1-3.7,31.6-4.4,47.4c-1.3,33.3-1.2,66.6-1.6,99.9c-2.7,0-5.5,0-8.2,0
			c-0.8-49.4-1.6-98.8-2.3-148.2c0.2-1.3,0.5-2.6,0.7-3.9c-0.8-0.9-0.7-1.7,0.3-2.4C587.2,3963.3,595.2,3960.2,597.5,3967.9z"/>
		<path class="st13" d="M591.7,3560.8c0.8,50.9,1.5,101.9,2.3,152.8c-4,0.3-8,0.5-12,0.8c-0.1-1.7-0.2-3.4-0.4-5.2
			c0.7-49.5,1.5-99.1,2.2-148.6C586.5,3560.7,589.1,3560.8,591.7,3560.8z"/>
		<path class="st10" d="M492.4,3218.7c-8.9,0.4-17.8,0.8-26.8,1.2c-7-0.2-14-0.5-21-0.7c-0.1-32.8,8.1-42.2,30.7-33.7
			C490.8,3191.4,489.9,3206.2,492.4,3218.7z"/>
		<path class="st16" d="M9.9,4411.6c0.4,0.8,0.7,1.6,0.8,2.5c0.1,40.6,0.3,81.2,0.4,121.9c-3.7,0.1-7.4,0.2-11.2,0.3
			c1-41.2,2-82.5,3-123.7C5.2,4412.3,7.6,4411.9,9.9,4411.6z"/>
		<path class="st4" d="M590.3,4542.6c8.2,3.4,16.7,2.7,25.1,0.9c0,0,1.7,0.9,1.7,0.9l2-0.3c-0.1,6-1.3,12.4-9.4,11.7
			c-24.7-2.1-50,4-74.2-4.6c-0.2-2.5-0.4-4.9-0.6-7.4c5.2-0.3,10.4-0.6,15.6-0.9c13,4.6,25.7-2.6,38.6-1.1L590.3,4542.6z"/>
		<path class="st10" d="M618.4,3247.1c-8.2-8-9.3-23.1-25.7-23.1c0-8.2-0.1-16.3,0-24.5c0.1-6.7,0-13.7,10-14.2
			c9.4-0.4,15.4,4.2,15.7,12.8C618.9,3214.4,618.5,3230.8,618.4,3247.1z"/>
		<path class="st15" d="M439.3,3224.4c-0.2,61.4-0.3,122.7-0.7,184.1c0,8.1-1.1,16.2-1.6,24.3c-7.9-26.2-0.6-53.1-4.1-79.4
			c0.1-33.1,0.1-66.2,0.2-99.3c-0.5-9.9-0.9-19.8-1.4-29.7l1.8-0.4l1.8,0.1C436.7,3223.7,438,3223.8,439.3,3224.4z"/>
		<path class="st9" d="M469.9,3087c-5.1-15.1-10.4-30.2-15.2-45.4c-1.8-5.7-7.4-13.2,4.7-14.9c10.3-1.4,17,1.7,16.8,12.9
			c-0.3,15.5-0.1,30.9-0.1,46.4C474.1,3086.4,472,3086.7,469.9,3087z"/>
		<path class="st12" d="M1703.8,4482.9c-4-0.7-8-1.5-11.9-2.2c14.1-3.2,12.2-13.5,12.3-23.3c0.2-53,0.6-105.9,1-158.9
			c8.8,16.3,3.6,33.7,4.1,50.6c0.9,36.1,0.4,72.2,0.1,108.3C1709.2,4466,1712.1,4475.6,1703.8,4482.9z"/>
		<path class="st12" d="M286.6,3967.4c0.6,26.3,1.3,52.7,1.9,79c-2.6,31.4-2.1,62.9-0.3,94.3c-0.8,6.5-1.6,13-2.5,19.4
			c-1.8,0-3.6,0-5.4,0c0-62.8,0-125.5-0.1-188.3c-0.1-1.9-0.1-3.9-0.2-5.8C282.2,3966.5,284.4,3967,286.6,3967.4z"/>
		<path class="st13" d="M444.3,3961.8c2.1,0.5,4.1,1,6.2,1.5c-6.4,8.7-4.8,18.1-3.3,27.6c-2.2,7-3.3,14.1-0.7,21.3
			c0.3,7.8,0.5,15.5,0.8,23.3c0.1,3.6,0.3,7.3,0.4,10.9c-4.2,13.2-3.4,26.5-0.9,39.8c-0.8,1.5-0.7,3,0.1,4.4c0,3.5,0,7,0,10.5
			c-0.8,1.4-0.9,2.9-0.2,4.4c-0.7,1.7-1.4,3.5-2.1,5.2c-1.9,0-3.8,0-5.6,0c-2.2-21.9,3.3-44.1-2.5-65.9c0.2-10.8,0.3-21.6,0.5-32.4
			c3.4-7.1,2.7-14.2-0.1-21.3c0-2.8,0-5.6,0-8.4c1.9-6,2.7-11.8-2.2-17l0.8-1.4l1.7,0.1c0.1-1.3,0.7-2.2,1.9-2.7
			C440.8,3961.7,442.5,3961.7,444.3,3961.8z"/>
		<path class="st9" d="M634,2064.4c-9.2-9.5-11.3-24.1-25.4-30c0.4-1.3,0.2-2.6-0.5-3.8c0.8-5.3-1-12.3,7.7-13.3
			c7.2-0.9,10.7,4,13.9,9.1C637.3,2038.5,634.8,2051.5,634,2064.4z"/>
		<path class="st9" d="M1719.7,4769.1c-18.8-8.2-40.8-11.3-53.1-29.6c1.9-0.1,3.8-0.1,5.6-0.2
			C1693.2,4742.1,1708.8,4752.3,1719.7,4769.1L1719.7,4769.1z"/>
		<path class="st15" d="M436.6,3610.2c4.7,34.4,2.1,69,1.3,103.4c0,0-2.4,0-2.4,0s-2.2-0.8-2.2-0.8c-0.1-21-0.2-41.9-0.3-62.9
			C436.3,3636.9,429.9,3623.1,436.6,3610.2z"/>
		<path class="st12" d="M1656.2,4229.9c-35.3,0-70.6-0.1-105.9-0.1c0.1-1.9,0.1-3.7,0.2-5.6c19.4,0,38.8,0,58.2,0
			c15.8,0.1,31.7,0.2,47.5,0.2l1.5,1.3C1657.1,4227.2,1656.6,4228.5,1656.2,4229.9z"/>
		<path class="st12" d="M1501.6,3881.8c0.9-4.6,1.9-9.2,2.8-13.9c9.9,3.5,30.3,0.6,13.9,20.1c-3.2,5.2-6.3,10.3-9.5,15.5
			c-0.7-0.8-1.4-1.7-2.1-2.5c-0.2-5.7,3.9-12-2.9-16.7C1503.1,3883.5,1502.4,3882.6,1501.6,3881.8z"/>
		<path class="st12" d="M80.2,4427.2c-1.7-26.3-2.3-52.6,0.3-78.9C87,4374.6,87.7,4400.9,80.2,4427.2z"/>
		<path class="st12" d="M620.1,3392.8c-2.4-26.4-2.4-52.9-0.6-79.3C627.6,3339.9,626.9,3366.4,620.1,3392.8z"/>
		<path class="st12" d="M80.4,3828.5c-2.3-24.8-2.4-49.6,0-74.4C87.4,3778.9,87.4,3803.7,80.4,3828.5z"/>
		<path class="st12" d="M80.4,4224.6c-2.3-24.8-2.4-49.6,0-74.4C87.4,4175,87.4,4199.8,80.4,4224.6z"/>
		<path class="st12" d="M80.4,4026.5c-2.3-24.8-2.4-49.6,0-74.4C87.4,3977,87.4,4001.7,80.4,4026.5z"/>
		<path class="st9" d="M1737.1,4779.5c20.6,3,24.7,13.9,39,23.8C1753.2,4802.8,1748.3,4792.8,1737.1,4779.5z"/>
		<path class="st12" d="M621.1,3486.8c-5.3-23-2.3-46.2-1-69.3C628,3440.5,625.4,3463.6,621.1,3486.8z"/>
		<path class="st12" d="M1608.9,4069.3c-14.2,0.8-28.5,1.6-42.7,2.4c-1.8,0.1-3.6,0.1-5.4,0.2c-0.5-1.1-0.2-1.9,0.8-2.6
			C1577.4,4063.8,1593.1,4063.9,1608.9,4069.3z"/>
		<path class="st12" d="M608.2,2030.6c0.7,1.2,0.9,2.5,0.5,3.8c-8.5,5.2-5.2,15.4-10.5,22c-1.9-5.1,0.9-11.8-5.9-15.3
			c0-3.1-0.1-6.2-0.1-9.3c-0.5-1-0.3-2,0.5-2.8C597.8,2029.6,603,2030.1,608.2,2030.6z"/>
		<path class="st12" d="M1709.1,4229.4c-12.4,0.1-24.7,0.2-37.1,0.3c0.1-1.8,0.1-3.6,0.2-5.4c12.1,1.2,24.2,2.4,36.1-1.3
			C1708.5,4225.2,1708.8,4227.3,1709.1,4229.4z"/>
		<path class="st12" d="M1509.5,3828.5c-1.5-8.6-1.6-17.1,3.5-24.9C1521.7,3813.1,1513,3820.5,1509.5,3828.5z"/>
		<path class="st12" d="M1652.4,4480.6c-11.3,0.5-22.7,0.9-34,1.4c0-1.6,0.2-3.2,0.6-4.7C1630.1,4478.4,1641.3,4479.5,1652.4,4480.6
			z"/>
		<path class="st15" d="M1338.5,4601.1c9.4-1.1,18.9-2.5,26.9,4.2C1355.9,4606.5,1346.8,4606.2,1338.5,4601.1z"/>
		<path class="st15" d="M1370.2,4605.9c9.3-0.4,19.1-2.7,26.4,5.4C1387.3,4611.8,1378.1,4611.7,1370.2,4605.9z"/>
		<path class="st12" d="M80.6,3694.8c0-6.6,0-13.3,0-19.9C86.5,3681.6,86.5,3688.2,80.6,3694.8z"/>
		<path class="st4" d="M505.7,4552.4c5,0,10,0,15-0.1C515.6,4555.8,510.7,4555.8,505.7,4552.4z"/>
		<path class="st12" d="M1505.1,3850.2c1-0.8,2.1-1.5,3.3-1.9c6.4,4.7,4.2,8-2.1,10.4C1505.9,3855.9,1505.5,3853,1505.1,3850.2z"/>
		<path class="st12" d="M72.2,3580.2c0.2-5.7,2.4-10.7,7-14.5C79.7,3571.7,80.5,3577.9,72.2,3580.2z"/>
		<path class="st12" d="M763.4,4561c-0.9-3.6-1.2-7.1,2.7-9.5c1.6,3.5,3.1,7,4.7,10.4C768.3,4561.6,765.8,4561.3,763.4,4561z"/>
		<path class="st15" d="M804.1,4563.5c5.4-3.2,10.8-4.5,16.3-0.3C815,4565.8,809.6,4566.3,804.1,4563.5z"/>
		<path class="st15" d="M1417.7,4615.9c5.8-0.3,11.5-0.5,17.3-0.8c0,0-0.7,0.1-0.7,0.1c-0.3,1.6-0.3,3.3,0,4.9c-2,0.6-4,1.1-5.9,1.7
			C1424.8,4619.9,1421.2,4617.9,1417.7,4615.9z"/>
		<path class="st15" d="M1396.5,4611.2c6-0.8,12-1.8,16.5,3.5C1406.9,4616.1,1401,4616.2,1396.5,4611.2z"/>
		<path class="st12" d="M1169.3,4576.5c5.8-0.7,10.8,0.4,14.2,5.2C1178.1,4581.6,1172.5,4581.9,1169.3,4576.5z"/>
		<path class="st8" d="M423.4,3220.4c3.5-0.5,7-0.9,10.5-1.4c0.4,1.7,0.9,3.4,1.4,5.1c0,0-1.8-0.1-1.8-0.1s-1.8,0.4-1.8,0.4
			C429,3223,426.2,3221.7,423.4,3220.4z"/>
		<path class="st12" d="M618.4,3596.9c-3.8-2.9-5.1-6.6-4.5-11.1C618.9,3588.3,619.6,3592.3,618.4,3596.9z"/>
		<path class="st12" d="M1552.9,4294.9c-0.8,2.9-1.6,5.9-2.4,8.8C1545.3,4299.4,1545,4296.2,1552.9,4294.9z"/>
		<path class="st12" d="M622.2,3506.5c-2-3.2-2.1-6.4,0.1-9.5C625.5,3500.2,625.5,3503.3,622.2,3506.5z"/>
		<path class="st12" d="M623,3553.3c-3.5-3.7-3.5-7.6-0.6-11.6C625.3,3545.4,624.8,3549.3,623,3553.3z"/>
		<path class="st10" d="M1672.2,4739.4c-1.9,0.1-3.8,0.1-5.6,0.2c-1.7-1.7-3.4-3.4-5.1-5.1c0,0,0.1-0.1,0.1-0.1
			C1666,4734.4,1669.9,4735.4,1672.2,4739.4z"/>
		<path class="st12" d="M772.4,4562.4c4.8-1,9.4-1.3,13.3,2.2C780.8,4566.3,776.1,4566.7,772.4,4562.4z"/>
		<path class="st9" d="M1719.7,4769.1c4.4,0,8.3,0.9,10.6,5l0,0C1725.9,4774,1721.9,4773.2,1719.7,4769.1
			C1719.7,4769.1,1719.7,4769.1,1719.7,4769.1z"/>
		<path class="st15" d="M550.1,3714.1c1.8-3.2,3.8-3.4,5.8-0.1C554,3714.1,552,3714.1,550.1,3714.1z"/>
		<path class="st15" d="M581.6,3709.3c0.1,1.7,0.2,3.4,0.4,5.2c-1.8-0.2-3.6-0.4-5.5-0.6C578.2,3712.3,579.9,3710.8,581.6,3709.3z"
			/>
		<path class="st12" d="M290.9,3715.3c1.8,0.2,3.7,0.4,5.5,0.5C294.3,3719,292.4,3718.6,290.9,3715.3z"/>
		<path class="st12" d="M423.2,3715.6c1.9,0,3.7,0,5.6,0.1C426.9,3718.9,425,3718.7,423.2,3715.6z"/>
		<path class="st12" d="M1566.4,4293.2c-1.9-0.1-3.7-0.1-5.6-0.2C1562.8,4289.7,1564.7,4290.1,1566.4,4293.2z"/>
		<path class="st12" d="M1629.9,4293.2c-1.9,0-3.7,0.1-5.6,0.1C1626.1,4290,1628,4289.9,1629.9,4293.2z"/>
		<path class="st15" d="M618.4,4447.5c-0.6-1.3-1.3-2.5-1.7-3.8c-0.1-0.3,1.2-1,1.8-1.5C618.5,4444,618.5,4445.7,618.4,4447.5z"/>
		<path class="st8" d="M1748,4457.4c0.8,2.4,1.6,4.8,2.4,7.1C1747.7,4462.7,1746.7,4460.4,1748,4457.4z"/>
		<path class="st15" d="M619.1,4544.2l-2,0.3c0,0-1.7-1-1.7-0.9c1-2.4,2-4.8,3-7.2C618.7,4538.9,618.9,4541.5,619.1,4544.2z"/>
		<path class="st8" d="M841.6,4564.6c1.6-2.1,3.2-2.1,4.9,0c0,0-2.4,0.9-2.4,0.9L841.6,4564.6z"/>
		<path class="st12" d="M1184.8,4582.6c1.9,1.1,3.9,2.2,5.8,3.3C1188.7,4584.8,1186.8,4583.7,1184.8,4582.6z"/>
		<path class="st9" d="M1730.3,4774c0.7,0.7,1.4,1.4,2.2,2.1c-0.5-0.1-1.1-0.1-1.3-0.4C1730.7,4775.3,1730.5,4774.6,1730.3,4774
			L1730.3,4774z"/>
		<path class="st12" d="M1661.6,4069.3c-1.8-0.1-3.7-0.1-5.5-0.2C1658,4066.8,1659.9,4066.9,1661.6,4069.3z"/>
		<path class="st12" d="M1677.7,4069.9c-1.9-0.3-3.8-0.6-5.7-0.8C1674.4,4066.1,1676.3,4066.7,1677.7,4069.9z"/>
		<path class="st12" d="M1549.5,4070.7c-1.4,1.8-2.9,3.6-4.3,5.4C1546.6,4074.3,1548,4072.5,1549.5,4070.7z"/>
		<path class="st12" d="M1662.6,4220.6c-1.6,1.7-3.3,3.5-4.9,5.2c0,0-1.5-1.3-1.5-1.3c1.4-1.9,2.8-3.9,4.2-5.8
			C1661.1,4219.3,1661.9,4219.9,1662.6,4220.6z"/>
		<path class="st15" d="M79.2,1966.4c9,5.1,6.5,13.1,4.8,20c-14.9,59.9-30.3,119.8-45.6,179.6c-1.9-3.4-3.9-6.8-5.8-10.2
			C48.2,2092.6,63.7,2029.5,79.2,1966.4z"/>
		<path class="st14" d="M32.7,2155.7c-10.3,36.3-20.6,72.6-30.9,108.9c-0.3,3.3-0.6,6.6-0.9,9.8c4.1,3.1,6.8,7.8,6.8,12.7v3.8
			c0.9,0.8,1.7,1.6,2.6,2.4c1-44.1,21.5-84.4,28.2-127.4C36.5,2162.5,34.6,2159.1,32.7,2155.7z"/>
		<path class="st15" d="M11.6,2363.2c-0.4-23.3-0.9-46.6-1.3-69.9c-0.9-0.8-1.7-1.6-2.6-2.4v103.9c0,5.5-2.9,10.1-7.4,13
			c0.8,33.2-2.8,66.6,1.5,99.8c2.9-0.3,5.9-0.5,8.8-0.8c0.8-15,1.6-29.9,2.3-44.9C12.4,2429,12,2396.1,11.6,2363.2z"/>
		<path class="st8" d="M713.3,1959.7c-1.4-0.9-2.8-1.8-4.1-2.8c0.6-6.5,1.2-12.9,1.7-19.4C716.8,1944.4,714.2,1952.1,713.3,1959.7z"
			/>
		<path class="st3" d="M1587.1,5107.7c16.2-17,30.5-31.9,44.6-46.8c5.2-5.5,10.5-5.4,15.6-0.3c15.4,15.4,30.7,31,46.6,47.1
			C1660.5,5107.7,1625.9,5107.7,1587.1,5107.7z"/>
		<path class="st3" d="M1688.5,4949.5c-32.5,0-62.2,0-95.1,0c9.7-19.4,25.3-31.4,37-46c4.1-5.1,8.7-5,13.2-0.7
			C1659.2,4917.6,1675.9,4931.5,1688.5,4949.5z"/>
		<path class="st3" d="M1705.7,4994.9c0,26.5,0,53.1,0,81.9c-17.9-8.7-30-23.3-44.3-35.4c-5.5-4.7-1.5-8.7,2.1-12.5
			c12-12.7,23.9-25.5,35.8-38.2C1701.5,4992.1,1703.6,4993.5,1705.7,4994.9z"/>
		<path class="st3" d="M1678.5,4973.9c-0.9,3.6-0.8,4.6-1.3,5.1c-46.5,46-27.9,53.2-85.9-5.1
			C1620.9,4973.9,1648.8,4973.9,1678.5,4973.9z"/>
		<path class="st3" d="M1683.9,4853.9c8.1,0.4,16.2,0.8,24.3,1.2c0.4,21.1,3.5,42.4-2.8,63.9
			C1654.4,4890.1,1652.3,4883.3,1683.9,4853.9z"/>
		<path class="st3" d="M1574.8,5000.5c59.6,41.8,52.6,33.4,1.7,77.3C1572,5052.4,1575.2,5028.1,1574.8,5000.5z"/>
		<path class="st3" d="M1574.7,4850c6-1.6,11.4,0.3,16.7,2.7c28.6,33.5,28.6,33.5-13.8,64.9C1572.2,4894.4,1576.6,4872,1574.7,4850z
			"/>
		<path class="st13" d="M823.7,4091.2c-2.9-9.9-5.8-19.7-8.7-29.6c-0.3-192.9-0.9-385.8-0.9-578.7c0-289.3,0.4-578.6,0.7-868
			c0-9.8,1.1-19.7,1.6-29.5c4.4,0.4,8.1,1.8,9.2,6.4c-0.1,22.8-0.3,45.5-0.4,68.3c0.4,33,0.8,66.1,1.2,99.1c0,33,0,65.9,0,98.9
			c0,33,0,66.1,0,99.1c0,33,0,65.9,0,98.9c0,33,0,66.1,0,99.1c0.1,29.8,0.2,59.6,0.3,89.4c-0.1,36.2-0.2,72.4-0.2,108.7
			c0,33,0,65.9,0,98.9c-0.1,34.6-0.2,69.3-0.4,103.9c0.1,31.4,0.3,62.8,0.4,94.1c-0.4,65.7-0.9,131.4-1.3,197.2
			C824.8,3928.6,824.3,4009.9,823.7,4091.2z"/>
		<path class="st13" d="M815.1,2526.4c7.2,8.1,6.5,16.3,0.9,24.8C815.7,2542.9,815.4,2534.6,815.1,2526.4z"/>
		<path class="st13" d="M816,2560.9c0.6,1.2,1.4,2.4,1.8,3.6c0.1,0.4-1,1-1.5,1.6C816.2,2564.4,816.1,2562.7,816,2560.9z"/>
		<path class="st6" d="M274.8,2399.1c5.6-0.7,11.2-1.3,16.7-2c0,0-0.5,0.5-0.5,0.5c0.8,5.3,3.1,9.8,9.5,9.6
			c62.2-2.1,125,7.5,186.5-8.3c1.8-1.8,3.5-3.6,5.3-5.4l0.5-0.4c3.5,0.2,6.9,0.5,10.4,0.7c25.4,17.2,52.2,9.7,79,4.1
			c30.6,9.2,42.5,2.6,47-25.8c0.5-6.2,1-12.5,1.5-18.7c21,0.8,46.4-7.6,61.9,3.3c15.8,11.2,2.2,35.9,6.4,54
			c7.6,32.7,4.6,65.6,4.3,98.4c-1,138.3,8.3,276.5,6.5,414.9c-0.3,23-7,31.1-31.1,28.5c-17.4-1.9-35.2-1.2-52.7-1.6
			c0.6-92.1,1.1-184.2,1.7-276.3c0.1-17.2,1.1-34.4-3.8-51.2c7.1-11.8,2.4-23.5-1.4-34.6c-2.7-7.9-10.2-12.7-19.9-12.5
			c-10.1,0.2-9.7,7.1-9.6,13.7c-3.7,0.5-7.4,1-11.1,1.4l0.4-1c0.3-8.3-1.6-14.6-12.6-14.5c-35.8,0.1-71.6,0.2-107.5-0.1
			c-8.5-0.1-11.9,5.9-17,10c-3.8-0.1-7.6-0.3-11.3-0.4c1.5-13.1-7.9-16.4-18-13.8c-27.1,6.9-60.4-16.8-82.4,14.4
			c-0.9,5.3,1.1,11.6-5.7,14.9c-1.8-4.4-3.6-8.7-5.5-13.1c-8.8-18-27.6-15-43-16.1c-25.4-1.7-51-1.3-76.5-0.2
			c-17,0.7-22.3-4.6-23.2-20.9c-2.2-42.9,7.4-85.1,5.5-127.8c-0.5-12.4,6.5-15.3,18.1-15.1c17.6,0.3,35.2,0.2,52.8-0.2
			C263.3,2407.2,272.6,2410,274.8,2399.1z M582.4,2536.6c10.3-2.2,8.1,11.7,20.7,12c0-33.4,0.1-66.4-0.1-99.5
			c-0.1-14.2-11.7-11.2-20.9-11.8c-8.7-0.3-15.8,1.2-15.8,11.4c0,30.1,0.1,60.2,0,90.3c0,7.9,3.8,13.2,12.5,11.6
			C588.8,2548.8,580.8,2541.3,582.4,2536.6z M550.2,2494.2c0-13.1-0.5-26.3,0.1-39.4c0.6-12.1-3.5-18.2-17.8-18
			c-12.8,0.2-19.6,3.2-19.3,16.6c0.6,27.1,0.7,54.1,0,81.2c-0.3,13.4,6.3,16.6,19.1,16.7c14,0.2,18.6-5.4,18-17.8
			C549.7,2520.5,550.2,2507.4,550.2,2494.2z M254.1,2491.1c0,0,0.1,0,0.1,0c0,13.1-0.1,26.2,0,39.3c0.1,11.4,7.2,15.7,18.6,15.7
			c11.8-0.1,17.9-5.3,17.9-16.4c0-23.7,0.1-47.5,0-71.2c-0.1-13-8.6-16.1-20.8-16.3c-13.2-0.2-16.3,6.3-15.9,17
			C254.4,2469.8,254.1,2480.4,254.1,2491.1z M238.1,2494.4c0-11.4-0.2-22.9,0.1-34.3c0.2-9.8-0.8-17.9-14.8-17.9
			c-13.4,0-22.1,3.5-22,17.8c0.2,22.9,0.1,45.8,0.1,68.7c0,10.7,4.8,16.9,17,17.3c12.8,0.4,19.9-4.6,19.8-17.1
			C238,2517.3,238.1,2505.9,238.1,2494.4z M444.6,2494.8c0-13.2-0.1-26.3,0-39.5c0.1-10.6-4-17.8-16.6-17.5
			c-11.1,0.3-15.3,6.7-15.3,16.3c0,26.3-0.2,52.7,0,79c0.1,8.7,1.5,17.6,14.3,15.6c9.7-1.5,18.7-4.3,17.8-17
			C443.9,2519.6,444.6,2507.2,444.6,2494.8z M391.7,2493.9c0-13.1,0-26.2,0-39.3c0-9.3-3.6-16.2-14.7-16.7
			c-12.3-0.5-17.2,6-17.2,16.8c0,25.4,0.1,50.8-0.1,76.2c-0.1,9.7,3,15.4,14.8,15.6c12.2,0.2,17.8-3.9,17.4-15.7
			C391.3,2518.5,391.7,2506.2,391.7,2493.9z M343.3,2494.5c0.1,0,0.3,0,0.4,0c0-11.5-0.5-23.1,0.1-34.6c0.6-12.2-3.5-18.2-17.8-18.1
			c-12.9,0.2-18.2,3.4-19.5,16.6c-3,29.1,12.8,54.1,17.5,81.4c0.8,4.8,5.4,6.2,10.2,5c5.7-1.5,8.9-5.8,9-10.9
			C343.6,2520.8,343.3,2507.6,343.3,2494.5z M496.9,2445.5c-2.2,0-4.4,0-6.6,0c-3.6,11.6-7,23.3-10.7,34.9
			c-5.7,18-12,35.8-17.3,53.9c-3,10.2,3,15.9,13.5,16.4c8.1,0.3,20.3,3.4,20.8-8.7C497.6,2509.9,496.9,2477.7,496.9,2445.5z
			 M462.8,2481.7c5.1-13.3,16.1-25.1,10.8-40.6c-0.3-0.9-5.6-1.6-6.5-0.7C454.5,2452.9,462.4,2467.6,462.8,2481.7z"/>
		<path class="st6" d="M709.1,2001.5c7.1,6.5,7.6,13.2,0.5,20C709.5,2014.9,709.3,2008.2,709.1,2001.5z"/>
		<path class="st15" d="M278.8,3314c-7.2-21.6-1.9-43.8-3.7-65.6c-0.6-7.7,2.6-17.2-10.4-19c3.7-5.7,9.4-5.7,15.4-4.7
			C279.7,3254.5,279.3,3284.2,278.8,3314z"/>
		<path class="st13" d="M910,2975.9c0.6,92.8,1.1,185.6,1.7,278.4c0,32.9,0,65.8,0,98.7c0,33.1,0,66.2,0,99.3
			c-0.1,19.8-0.2,39.7-0.3,59.5c0.1,3.1,0.2,6.2,0.2,9.3c-0.3,8.4-0.6,16.8-0.8,25.2c0.3,34.6,0.6,69.3,1,103.9
			c-4.6,19.8,0,39.6-0.8,59.5c0.1,3.2,0.1,6.3,0.2,9.5c0.2,9.9,0.4,19.9,0.6,29.8c-0.9,33.1-3.5,66.2,0,99.3
			c-0.1,3.3-0.2,6.7-0.3,10c-0.2,3.2-0.4,6.3-0.6,9.5c-0.1,26.4-0.2,52.9-0.2,79.3c-0.5,26.4-1.1,52.8-1.6,79.2
			c-4.6,3.1-4.8,6.5-0.5,10c-0.1,3.3-0.1,6.7-0.2,10c-2.5-0.2-5-0.3-7.6-0.5c-0.4-11.4-1-22.9-1.1-34.3c-0.8-87.5-1.5-175-2.2-262.5
			c0.4-3.3,0.8-6.7,1.1-10c-0.1-4.8-0.3-9.6-0.4-14.4c0.2-15,0.4-30,0.6-45c-0.1-3.2-0.1-6.4-0.2-9.6c-0.3-3.5-0.5-7-0.8-10.5
			c-0.2-36.2-0.3-72.4-0.5-108.6c0.3-109.4,0.5-218.8,1.1-328.1c0.5-92,1.3-184,2-276C922.6,2951.2,910.7,2965.2,910,2975.9z"/>
		<path class="st13" d="M1083.5,3647.9c-8.3,14.7-3.7,30.5-3.9,45.7c-0.4,51.6,0.4,103.1,0.8,154.7c0,33,0.1,65.9,0.1,98.9
			c0,33,0.1,66.1,0.1,99.1c-0.1,33-0.1,65.9-0.2,98.9c-1.1,12.9-2.1,25.8-3.2,38.7c-2.6,0.2-5.3,0.4-7.9,0.6
			c-0.3-13.1-0.7-26.1-1-39.2c-0.2-33-0.4-66.1-0.7-99.1c0-33,0-65.9,0-98.9c0-33.1,0-66.1,0-99.2c0-33-0.1-65.9-0.1-98.9
			c0-33,0.1-66.1,0.1-99.1c0.8-3.4,1.6-6.8,2.4-10.2C1075.9,3640.7,1083.2,3639.1,1083.5,3647.9z"/>
		<path class="st13" d="M995.9,3551.3c-0.6,32.9-3.1,65.9,1,98.8c-3.2,33-2.5,66.1-1.2,99.2c-0.4,8.2-0.8,16.4-1.3,24.7
			c-0.6,0.5-1.8,1-1.8,1.4c0.2,1.3,0.9,2.4,1.4,3.7c-0.1,6.5-0.1,13-0.2,19.5c-3.1,0-6.2,0.1-9.3,0.1c-0.7-16.5-1.4-33-2.1-49.5
			c0-19.7,0-39.4,0-59.1c0-6.7,0-13.5-0.1-20.2c0-4.9,0-9.8,0-14.8c0.8-1.6,0.8-3.2,0.2-4.8c0-33,0-66,0-99
			c0.8-52.9,1.6-105.8,2.4-158.8c2.5-0.1,5-0.2,7.5-0.3C999,3445.2,992.8,3498.3,995.9,3551.3z"/>
		<path class="st14" d="M1237.7,4244.3c2.8-10.2-1.8-21.2,4-31.1c5.2,0.6,11.4-0.1,11.8,7.3c-10.2,20.1-2.6,41.2-4,61.8
			c-1.7,25-1.3,50.2-1.8,75.3c-2.8,0-5.6,0.1-8.4,0.1c-0.6-4.8-1.1-9.6-1.7-14.3C1237.6,4310.4,1237.7,4277.3,1237.7,4244.3z"/>
		<path class="st13" d="M1152.9,4046.3c0.6-28.2,1.1-56.5,1.7-84.7c3.1-1.5,6.2-3,9.2-4.6c-0.3,33-0.6,66-0.9,99
			c-2.7,3.2-5.4,6.5-8.2,9.7C1154.2,4059.3,1153.6,4052.8,1152.9,4046.3z"/>
		<path class="st6" d="M1503.8,3884.3c6.8,4.7,2.7,11,2.9,16.7C1500.5,3896.3,1503.9,3890,1503.8,3884.3z"/>
		<path class="st13" d="M984.7,3288.9c0-6.6-0.1-13.3-0.1-19.9C990.7,3275.6,990.6,3282.2,984.7,3288.9z"/>
		<path class="st8" d="M1454.3,4224.3c7.9,5.4,0.2,7.1-2.7,9.9C1452.5,4230.9,1453.4,4227.6,1454.3,4224.3z"/>
		<path class="st14" d="M1241.1,4205c-3.3-3.8-3.2-7.7-0.3-11.6C1242.9,4197.2,1243.5,4201.1,1241.1,4205z"/>
		<path class="st13" d="M1155.6,3917.5c-0.4-3.3-0.7-6.6-1.1-10C1159,3910.5,1159.2,3913.8,1155.6,3917.5z"/>
		<path class="st8" d="M1434.3,4620.2c-0.3-1.6-0.3-3.3,0-4.9c1.4,0.3,3.9,0.4,4.1,1C1439.2,4619.3,1436.9,4620,1434.3,4620.2z"/>
		<path class="st13" d="M1154.5,3947.4c0.3-1.8,0.6-3.6,0.9-5.4c0.4,1.3,0.9,2.7,1,4C1156.5,3946.5,1155.2,3947,1154.5,3947.4z"/>
		<path class="st14" d="M1241.4,4186.2c-0.5-1.5-1.3-3-1.5-4.5c-0.1-0.6,0.7-1.4,1.1-2.2c0.5,1.5,1.2,3,1.5,4.5
			C1242.6,4184.7,1241.8,4185.5,1241.4,4186.2z"/>
		<path class="st14" d="M1154.8,4065.8c2.7-3.2,5.4-6.5,8.2-9.7c-0.1,131.8-0.1,263.6-0.2,395.5c-2.6,0.1-5.2,0.1-7.8,0.2
			c-0.6-3.1-1.2-6.2-1.7-9.4c-0.2-33.1-0.5-66.1-0.7-99.2c0-32.9,0-65.9,0-98.8c0-33.1,0-66.1,0-99.2
			C1153.3,4118.7,1154,4092.3,1154.8,4065.8z"/>
		<path class="st15" d="M1237.5,4442.3c0.6-28.2,1.2-56.3,1.8-84.5c2.8,0,5.6-0.1,8.4-0.1c0,60.2,0,120.5,0,180.8
			c-2.3,0.1-4.6,0.2-6.8,0.3C1234.4,4506.9,1240.3,4474.3,1237.5,4442.3z"/>
		<path class="st15" d="M1155,4451.8c2.6-0.1,5.2-0.1,7.8-0.2c0.4,39.9,0.9,79.7,1.3,119.6c-5.5-3.1-11-6.2-16.5-9.3
			c9.8-6.5,6.2-16.3,6.5-24.7C1154.8,4508.7,1154.7,4480.2,1155,4451.8z"/>
		<path class="st15" d="M824.2,4214c0,111.3,0,222.6,0,334c-2.8,0-5.6,0-8.4,0.1c0-111.3,0-222.6,0-333.9
			C818.6,4214.1,821.4,4214.1,824.2,4214z"/>
		<path class="st15" d="M900.9,4292.5c4.7,2.1,12-0.2,13.8,7c-9.8,25.4-2.5,51.5-4,77.3c-1.1,18.7-0.2,37.4-2.9,56.3
			c-13.4-29-6.9-59.8-8.6-89.7C899.8,4326.4,900.3,4309.4,900.9,4292.5z"/>
		<path class="st14" d="M824.2,4214c-2.8,0-5.6,0.1-8.4,0.1c-0.1-26.4-0.3-52.7-0.4-79.1c3.3,0.1,6.7,0.2,10,0.3
			c-0.2,14.8-0.4,29.6-0.6,44.4c-0.6,0.5-1.7,1-1.7,1.5c0,1.3,0.6,2.7,0.9,4C824.1,4194.8,824.2,4204.4,824.2,4214z"/>
		<path class="st12" d="M766.3,4536c-6.3-26.1-6.4-52.3,0-78.4C769,4483.8,769,4509.9,766.3,4536z"/>
		<path class="st12" d="M766.3,4338c-6.3-26.1-6.4-52.3,0-78.4C769,4285.8,769,4311.9,766.3,4338z"/>
		<path class="st12" d="M766.1,4155c-6.6-25.9-5.9-52-2.1-78.1C766.6,4102.9,769.5,4128.9,766.1,4155z"/>
		<path class="st12" d="M766.2,4244c-6.2-9.7-6-19.4-0.1-29.2C768.6,4224.6,768.4,4234.3,766.2,4244z"/>
		<path class="st12" d="M766.2,4442.1c-6.2-9.7-6-19.4-0.1-29.2C768.6,4422.6,768.4,4432.3,766.2,4442.1z"/>
		<path class="st15" d="M910.4,4462.8c-3.5-0.4-7-0.7-10.5-1.1c0-4.6,0-9.1,0.1-13.7c3.5-0.3,6.9-0.6,10.4-0.9
			C910.3,4452.3,910.4,4457.5,910.4,4462.8z"/>
		<path class="st12" d="M763.9,4065.2c-3.6-6-3.5-12,0-18C767.1,4053.2,766.9,4059.2,763.9,4065.2z"/>
		<path class="st14" d="M816.6,4120.1c0.4,1.4,0.9,2.8,1,4.2c0,0.5-1.2,1-1.8,1.5C816,4123.9,816.3,4122,816.6,4120.1z"/>
		<path class="st15" d="M824,4185.2c-0.3-1.3-0.9-2.6-0.9-4c0-0.5,1.1-1,1.7-1.5C824.6,4181.6,824.3,4183.4,824,4185.2z"/>
		<path class="st13" d="M1.8,2507.5c2.9-0.3,5.8-0.5,8.8-0.8c0.2,161.1,0.3,322.2,0.7,483.4c0.1,55.1,0.9,110.1,1.3,165.2
			c0,32.8,0.1,65.5,0.1,98.3c-0.5,115.9-1,231.7-1.6,347.6c-0.1,16.4-0.7,32.8-1.1,49.3c-2.6,0.1-5.2,0.2-7.8,0.3
			c-0.9-33.1-1.8-66.3-2.7-99.4c0-33,0-66.1,0-99.1c0-31.4-0.1-62.8-0.1-94.2c-0.1-34.6-0.2-69.3-0.3-103.9c-0.1-5-0.2-10-0.4-15
			c0.8-1.5,0.9-3,0.3-4.6c2.7-26.4,1.8-52.9,0.3-79.3c0-33,0.1-66.1,0.1-99.1c0-33,0-66,0-99c0-33,0-66.1,0-99.1c0-33,0-66,0-99
			c0.1-33,0.1-66,0.2-99.1c-0.1-33-0.1-66-0.2-99C0.2,2543.2,1,2525.4,1.8,2507.5z"/>
		<path class="st17" d="M12.7,3253.5c0-32.8-0.1-65.5-0.1-98.3c2.9-0.1,5.7-0.1,8.6-0.2c0,33,0,66,0,99.1
			C18.4,3254,15.6,3253.8,12.7,3253.5z"/>
		<path class="st15" d="M436.7,3571.5c-1.4-6.7-2.8-13.3-4.2-20c3.1-9.8-1.4-20.7,4.5-30.2C439.9,3538,439.6,3554.8,436.7,3571.5z"
			/>
		<path class="st15" d="M436.5,3481.7c2.4,10,2.9,20.1,0.1,30.1C431.8,3501.8,431.6,3491.8,436.5,3481.7z"/>
		<path class="st15" d="M432.3,3452c1.4-3.4,2.8-6.8,4.1-10.2c0,6.9,0.1,13.8,0.1,20.7C435.2,3458.9,433.8,3455.5,432.3,3452z"/>
		<path class="st14" d="M2.3,3839.4c-4.2-20.1-1.4-40.4-1.9-60.6c3.1,3.1,6.2,6.2,9.4,9.3c0,16.9,0,33.9,0,50.8
			C7.3,3839,4.8,3839.2,2.3,3839.4z"/>
		<path class="st13" d="M2.3,3734.4c0.2-3.2,0.4-6.5,0.6-9.7C5.8,3728,5.8,3731.3,2.3,3734.4z"/>
		<path class="st13" d="M2.3,3709.6c0-3.3-0.1-6.6-0.1-9.9C6.3,3703,6.4,3706.3,2.3,3709.6z"/>
		<path class="st14" d="M-2.1,3775.9c0,1.1,0,2.3-0.1,3.4c0.8-0.2,1.7-0.4,2.5-0.8C-0.7,3777-1.5,3776.1-2.1,3775.9z"/>
		<path class="st15" d="M0,4408.8c0.3-88,0.6-176,0.8-264c3,0.2,6.1,0.3,9.1,0.5c0,0,1.9-0.2,1.9-0.2c-0.1,33-0.2,66-0.3,99
			c-0.6,55.8-1.2,111.7-1.7,167.5c-2.3,0.3-4.6,0.6-7,0.9C1.4,4411.7,0.4,4410.5,0,4408.8z"/>
		<path class="st17" d="M910.4,4462.8c0-5.2,0-10.5-0.1-15.7c17.2-9.5,35.8-3.4,53.8-4.1c7.7-0.3,9.4,6.2,9.4,12.4
			c0.1,23.8-0.2,47.7,0.2,71.5c0.1,10.6-5.1,14.9-16,14.5c-6.1-0.2-12.4-0.7-18.4,0.1c-23,3.3-32-4.8-29.5-27
			C911.8,4497.4,910.3,4480,910.4,4462.8z"/>
		<path class="st15" d="M980,4411.5c10.4,3.9,13.3,14.1,19.9,21.1c-11.1,12.2-2.8,26.7-5.2,39.9c-1.6,8.9,2.6,18.9-8.5,33.2
			C983.9,4470.1,982,4440.8,980,4411.5z"/>
		<path class="st7" d="M973.5,4571.2c2.2-2.2,4.3-4.4,6.5-6.6c0.7,1,1.4,1.9,2,2.9C979.2,4568.7,976.3,4570,973.5,4571.2
			L973.5,4571.2z"/>
		<path class="st14" d="M10.2,3966.8c-2.2-0.2-4.4-0.4-6.7-0.6c0.1,0.5,0.1,1.1,0.2,1.6c0.6,5.8,1.3,11.6,2.1,17.3
			c0.3,2.6,0.7,5.2,1,7.8c0.1,0.4,0.1,0.8,0.1,1.1c0,0.1,0.1,0.4,0.1,0.7c0.2,1.4,0.4,2.9,0.6,4.3c1.1,7.4-1.1,14-7.5,17.8
			c-0.9,42.7,0,85.4,0.7,128.1c3,0.2,6.1,0.3,9.1,0.5C13.6,4085.8,11.2,4026.3,10.2,3966.8z"/>
		<path class="st12" d="M3.5,3966.2c2.2,0.2,4.4,0.4,6.7,0.6c-0.1-42.6-0.3-85.3-0.4-127.9c-2.5,0.2-5,0.3-7.5,0.5
			c0,38.1,0,76.1,0,114.2C2.7,3957.7,3.1,3962,3.5,3966.2z"/>
		<path class="st17" d="M11.6,4244.1c0.1-33,0.2-66,0.3-99c3.1,0,6.2,0.1,9.3,0.1c0,33,0,66,0,99.1
			C18,4244.3,14.8,4244.2,11.6,4244.1z"/>
		<path class="st15" d="M434.5,4487.5c0-15-0.1-30-0.1-45c0-33.1,0-66.2-0.1-99.2c2.9-26.5-5.3-53.5,4.2-79.7
			c2.6,8.3-3.1,18.3,5.9,25.2c0.7,18.1,1.3,36.3,2,54.4c0,33.1,0,66.2,0,99.3c-0.6,16.9-1.2,33.7-1.8,50.6
			C441.2,4491.3,437.9,4489.4,434.5,4487.5z"/>
		<path class="st14" d="M286.8,4338.5c-0.1,36.4-0.1,72.8-0.2,109.2c-2.4-0.2-4.8-0.4-7.2-0.6c0.5-61.1,1.1-122.1,1.6-183.2
			c1.6,0.1,3.1,0.1,4.7,0.2l2.4,0c-0.4,1.6-0.8,3.2-1.2,4.8C286.9,4292.2,286.8,4315.4,286.8,4338.5z"/>
		<path class="st13" d="M584.1,2962.5c-0.7-75.4-1.4-150.8-1.9-226.2c-0.3-48.4-0.3-96.7-0.4-145.1c3.7-0.5,7.4-1,11.1-1.4
			c1.1,1.2,1.1,2.5,0.1,3.8c0.1,112.3,0.2,224.6,0.1,336.9c0,10.6-1,21.2-1.5,31.9C589.1,2962.4,586.6,2962.5,584.1,2962.5z"/>
		<path class="st9" d="M582.2,2590.3c-45.8,2-91.6-6.3-137.4,0.4c0.1-1.7,0.2-3.4,0.4-5.1c5.1-4.1,8.5-10,17-10
			c35.8,0.3,71.6,0.2,107.5,0.1C580.5,2575.7,582.5,2582,582.2,2590.3z"/>
		<path class="st9" d="M428,2586.5c-29.4,0.1-58.9,0.2-88.3,0.3c-2.1-0.3-4.2-0.7-6.4-1c22-31.2,55.3-7.5,82.4-14.4
			c10.2-2.6,19.5,0.6,18,13.8C431.9,2585.6,429.9,2586.1,428,2586.5z"/>
		<path class="st15" d="M445.9,2971.6c3.2,15.9,11.7,22.1,30.4,21.1c35.1-2,70.5-0.8,105.7-1c0.4,1.6,0.2,3.1-0.4,4.7
			c-37.5,0.2-75.1-0.6-112.6,1C446.8,2998.3,440.5,2990.5,445.9,2971.6z"/>
		<path class="st15" d="M436.3,2897.9c-4.3-15.1-4.4-30.1,1.1-45C440.2,2868,439.7,2882.9,436.3,2897.9z"/>
		<path class="st15" d="M433.7,2948.9c1-12.2-2.2-24.6,2.6-36.5c4.9,12.5,2.4,25.4,2.3,38.2c0,0.6-0.7,1.7-1.3,1.9
			C433.6,2953.6,433.6,2951.2,433.7,2948.9z"/>
		<path class="st15" d="M445.8,2753.6c1.4,1.8,2.8,3.6,4.2,5.4c-2.5,13.2,3.7,27.2-4.3,39.9C443.3,2783.9,443.4,2768.7,445.8,2753.6
			z"/>
		<path class="st15" d="M445.8,2917.1c7.6,12.8,1.4,26.8,4.2,40c-1.4,0.2-2.8,0.4-4.2,0.6C443.2,2944.2,443.3,2930.7,445.8,2917.1z"
			/>
		<path class="st15" d="M437.1,2719.7c-5.8-13.7-3.8-27.6-0.8-41.4C441.6,2692,439.4,2705.9,437.1,2719.7z"/>
		<path class="st15" d="M436.3,2671.5c-3.5-10.5-2.6-21.2-1.6-31.9C443.2,2649.9,439.4,2660.7,436.3,2671.5z"/>
		<path class="st15" d="M445.8,2813.2c5.7,8.4,5.7,16.9,0.1,25.4C443.5,2830.2,443.5,2821.7,445.8,2813.2z"/>
		<path class="st13" d="M581.6,2996.4c0.6-1.5,0.8-3.1,0.4-4.7c0.7-1.6,1.4-3.3,2.1-4.9C588.5,2991.2,586.9,2994.2,581.6,2996.4z"/>
		<path class="st15" d="M450,2858.1c-1.4,1.8-2.8,3.6-4.2,5.4c0-3.6,0.1-7.2,0.1-10.8C447.3,2854.5,448.6,2856.3,450,2858.1z"/>
		<path class="st15" d="M444.9,2669.8c3.9,3.4,4.4,6.8-0.1,10.1C444.8,2676.6,444.8,2673.2,444.9,2669.8z"/>
		<path class="st15" d="M445.8,2719c2.9,2,2.9,3.9,0,5.9C445.8,2722.9,445.8,2721,445.8,2719z"/>
		<path class="st15" d="M437.4,2764.5c-0.6-1.3-1.4-2.6-1.7-4c-0.1-0.5,0.9-1.2,1.5-1.8C437.3,2760.6,437.3,2762.5,437.4,2764.5z"/>
		<path class="st15" d="M590.3,4542.6c0,0-1.1-0.7-1.1-0.7c-7.7-8.2-7-18.2-7-28.1c-0.2-23.9-0.3-47.7-0.5-71.6
			c0.6-89.2,1.1-178.5,1.7-267.7c2.7-1.6,5.4-3.2,8.1-4.8C593.2,4294.1,594.2,4418.4,590.3,4542.6z"/>
		<path class="st14" d="M591.4,4169.8c-2.7,1.6-5.4,3.2-8.1,4.8c-0.6-9.7-1.2-19.4-1.9-29.2c0.6-10,1.3-20.1,1.9-30.1
			c2.7,0,5.5,0,8.2,0C593.1,4133.4,594.4,4151.6,591.4,4169.8z"/>
		<path class="st12" d="M503.2,2393.7c-3.5-0.2-6.9-0.5-10.4-0.7c11-40.5,22.1-81,33.1-121.6c4.1-11.6,8.7-23.1,12.1-34.8
			c18.3-63.8,32-128.8,53.5-191.8c2.4,5.3-0.3,12.2,6.1,16.1c-2.1,12.9-4.2,25.8-6.3,38.7c-4.1,5.6-3.9,11.4-0.9,17.4
			c-0.3,2.2-0.5,4.4-0.7,6.5c-5.1,5.1-12.1,9.1-11.9,17.4c-23.4,84-46.8,168-70.3,252.1C506.1,2393.3,504.7,2393.5,503.2,2393.7z"/>
		<path class="st15" d="M577.7,2140.9c-0.2-8.3,6.8-12.3,11.9-17.4c7,41.8,1.8,83.8,2.5,125.7c0.9,46.9-0.4,93.9-0.7,140.8
			c-3.2,0.8-6.5,1.5-9.7,2.3c0.1-77.6,0.2-155.3,0.2-232.9C582,2153,583.7,2146.2,577.7,2140.9z"/>
		<path class="st9" d="M581.8,2392.3c3.2-0.8,6.5-1.5,9.7-2.3c20.4,8.3,25.5-11.2,37.7-18c-4.6,28.5-16.5,35-47,25.8
			c0,0-0.2-0.3-0.2-0.2c0.3-1.5,0.5-3,0.4-4.5C582.4,2393.1,581.8,2392.3,581.8,2392.3z"/>
		<path class="st6" d="M597.6,2060.9c-6.4-3.9-3.7-10.9-6.1-16.1c-0.5-1.3-0.3-2.5,0.7-3.6c6.8,3.5,4,10.2,5.9,15.3
			C598.7,2058,598.6,2059.5,597.6,2060.9z"/>
		<path class="st15" d="M590.4,2116.9c-3-5.9-3.2-11.8,0.9-17.4C593.2,2105.4,593.4,2111.3,590.4,2116.9z"/>
		<path class="st10" d="M593,2593.6c1-1.3,1-2.5-0.1-3.8c-0.1-6.6-0.5-13.4,9.6-13.7c9.7-0.2,17.3,4.6,19.9,12.5
			c3.8,11.1,8.5,22.8,1.4,34.6C615,2612.1,613.1,2594.6,593,2593.6z"/>
		<path class="st11" d="M907.4,4257.7c-0.1-2.4-0.2-4.7-0.3-7.1c1.1-2.1,2.2-4.2,3.4-6.3c10.4,0,21,1,31.3-0.3
			c24.5-3.1,35.1,4.7,32.2,29c-2,16.9-0.6,34.1-0.3,51.2c0.1,7.7-2.6,17.2,10.3,19c-1.2,11.6,6.1,24.4-5.1,34.7
			c-27-35.8-46.1-75.8-69.4-113.6C908.8,4262.2,908.1,4259.9,907.4,4257.7z"/>
		<path class="st14" d="M978.9,4378c11.2-10.3,3.9-23.1,5.1-34.7c-0.2-87.5-0.4-175-0.6-262.5c1.1-5.3,1.5-10.5-1.6-15.4
			c0-6.4,0-12.8,0-19.2c6.2-29.7-0.5-59.8,3.2-89.6c2.7-0.1,5.4-0.2,8.2-0.3c1,29.9,1.9,59.9,2.9,89.8c0,33.1-0.1,66.1-0.1,99.2
			c0,32.9,0,65.9,0,98.8c-0.5,33-1.1,66-1.6,99.1c-1.3,14.9,3,30.3-4.6,44.6C984.4,4386.1,979.7,4383.9,978.9,4378z"/>
		<path class="st15" d="M1068.3,4442.2c0-32.9-0.1-65.9-0.1-98.8c-0.1-33.1-0.3-66.1-0.4-99.2c0.5-19.9,1.1-39.8,1.6-59.6
			c2.6-0.2,5.3-0.4,7.9-0.6c5.9,20,0,40.5,3.3,60.6c-0.2,32.9-0.4,65.8-0.6,98.8c0,33.1,0,66.1,0,99.2c-0.6,20.1-1.2,40.1-1.7,60.2
			c-5-5.1-9.9-10.3-14.9-15.4C1074.1,4473.1,1066.9,4457.2,1068.3,4442.2z"/>
		<path class="st14" d="M910.6,4244.4c-1.1,2.1-2.2,4.2-3.4,6.3c-2.4-5.2-4.7-10.5-7.1-15.7c0.2-63,0.5-126,0.7-189
			c2.5,0.2,5,0.3,7.6,0.5c0,0,2.6-0.4,2.6-0.4c0,33.1-0.1,66.1-0.1,99.2C910.7,4178.3,910.6,4211.3,910.6,4244.4z"/>
		<path class="st14" d="M907.4,4257.7c0.7,2.2,1.4,4.5,2.1,6.7C906.8,4262.7,906,4260.5,907.4,4257.7z"/>
		<path class="st15" d="M449.8,3353.2c-1.3,1.8-2.7,3.6-4,5.3c0-3.6,0-7.2,0-10.7C447.2,3349.6,448.5,3351.4,449.8,3353.2z"/>
		<path class="st15" d="M445.8,3254.6c0.1-2,0.2-4,0.3-6C449.1,3250.8,448.8,3252.8,445.8,3254.6z"/>
		<path class="st15" d="M445.9,3284.3c0-1.9-0.1-3.9-0.1-5.8c0.6,1.4,1.3,2.7,1.6,4.1C447.5,3283,446.4,3283.7,445.9,3284.3z"/>
		<path class="st8" d="M431.6,3967.1c-2.7-1-5.3-1.9-8-2.9c4.5,0.1,9,0.2,13.6,0.2c0,0-1.7-0.1-1.7-0.1s-0.8,1.4-0.8,1.4
			C433.8,3966.3,432.7,3966.7,431.6,3967.1z"/>
		<path class="st12" d="M221.3,2046.1c-3.3,1.3-6.6,2.6-9.9,3.9C213.6,2046.1,217.1,2045.3,221.3,2046.1z"/>
		<path class="st13" d="M584,3526.4c-0.5-8.2-0.9-16.5-1.4-24.7C589.9,3509.6,588.3,3517.9,584,3526.4z"/>
		<path class="st8" d="M581,3967.1c-11.8-1.2-24,2.8-35.4-2.8c12-0.4,24.1-0.7,36.1-1.1C581.5,3964.5,581.2,3965.8,581,3967.1z"/>
		<path class="st8" d="M1560.8,4071.8c1.8-0.1,3.6-0.1,5.4-0.2C1564.5,4074.3,1562.7,4074.2,1560.8,4071.8z"/>
		<path class="st15" d="M278,3338.9c-2.7-2.1-2.6-4.1,0.1-6.2C278,3334.8,278,3336.9,278,3338.9z"/>
		<path class="st15" d="M445.7,3461.7c4.8,5.2,4.8,10.4,0,15.6C445.7,3472.1,445.7,3466.9,445.7,3461.7z"/>
		<path class="st15" d="M445.9,3545.8c1.4,1.8,2.7,3.6,4.1,5.4c-1.3,1.8-2.6,3.6-3.9,5.4C446,3553,445.9,3549.4,445.9,3545.8z"/>
		<path class="st15" d="M446,3387.4c0.5,1.3,1.2,2.7,1.5,4c0.1,0.5-1,1.1-1.6,1.7C446,3391.3,446,3389.3,446,3387.4z"/>
		<path class="st13" d="M285.7,4160.1c0.6,28.1,1.2,56.2,1.8,84.3c-0.6,6.6-1.2,13.1-1.8,19.7c-1.6,0-3.1-0.1-4.7-0.2
			c-0.2-34.6-0.4-69.2-0.6-103.8C282.1,4160.2,283.9,4160.2,285.7,4160.1z"/>
		<path class="st14" d="M446.4,4135.2c0.2,3.3,0.3,6.6,0.5,9.9c-0.4,33.1-0.7,66.1-1.1,99.2c-0.1,1.6-0.1,3.3-0.2,4.9
			c-0.4,13.2-0.8,26.4-1.2,39.7c-9-7-3.3-16.9-5.9-25.2c-0.2-6.7,1.8-13.7-3.5-19.6c0.1-8.1,0.2-16.2,0.3-24.4c6.1-26.5,6-53,0-79.4
			c0-4.8,0-9.6,0-14.4c0.5-0.6,1.5-1.3,1.4-1.7c-0.3-1.3-1-2.6-1.6-3.8c0-3,0-6.1-0.1-9.1c1.3-0.1,2.6-0.3,4-0.5c1.9,0,3.8,0,5.6,0
			c0.5,6.6,0.9,13.3,1.4,19.9C445.3,4132.2,445.4,4133.7,446.4,4135.2z"/>
		<path class="st15" d="M439,4110.6c-1.3,0.2-2.6,0.3-4,0.5c-0.6-21.7-1.3-43.4-1.9-65.1c1.1-0.5,2.2-0.9,3.4-1.3
			C442.3,4066.6,436.8,4088.7,439,4110.6z"/>
		<path class="st8" d="M446.5,4012.2c5.2,7.6,4.6,15.4,0.8,23.3C447,4027.7,446.7,4020,446.5,4012.2z"/>
		<path class="st15" d="M437,4012.4c-4.3-7.1-4.2-14.2-0.1-21.3C439.7,3998.2,440.4,4005.3,437,4012.4z"/>
		<path class="st15" d="M431.6,3967.1c1.1-0.3,2.1-0.8,3.1-1.4c4.8,5.2,4.1,11.1,2.1,17C435.1,3977.5,433.4,3972.3,431.6,3967.1z"/>
		<path class="st8" d="M446.7,4086.1c0.5,1,1.1,2,1.3,3.1c0.1,0.4-0.8,0.9-1.2,1.3C446,4089.1,446,4087.6,446.7,4086.1z"/>
		<path class="st8" d="M446.8,4101c0.4,1,0.9,2.1,1.1,3.1c0.1,0.4-0.8,0.9-1.3,1.3C445.9,4104,446,4102.5,446.8,4101z"/>
		<path class="st10" d="M550.2,2494.2c0,13.1-0.5,26.3,0.2,39.4c0.6,12.3-3.9,17.9-18,17.8c-12.8-0.1-19.5-3.3-19.1-16.7
			c0.7-27.1,0.6-54.1,0-81.2c-0.3-13.4,6.5-16.4,19.3-16.6c14.3-0.2,18.3,5.9,17.8,18C549.7,2468,550.2,2481.1,550.2,2494.2z"/>
		<path class="st10" d="M254.1,2491.1c0-10.6,0.3-21.3-0.1-31.9c-0.4-10.6,2.7-17.2,15.9-17c12.2,0.2,20.8,3.3,20.8,16.3
			c0.1,23.7,0.1,47.5,0,71.2c0,11.1-6.1,16.3-17.9,16.4c-11.5,0.1-18.5-4.3-18.6-15.7c-0.2-13.1,0-26.2,0-39.3
			C254.2,2491.1,254.1,2491.1,254.1,2491.1z"/>
		<path class="st10" d="M238.1,2494.4c0,11.4-0.1,22.9,0,34.3c0.1,12.6-6.9,17.5-19.8,17.1c-12.2-0.3-17-6.6-17-17.3
			c0-22.9,0.1-45.8-0.1-68.7c-0.1-14.3,8.6-17.8,22-17.8c14,0,15,8,14.8,17.9C238,2471.6,238.1,2483,238.1,2494.4z"/>
		<path class="st10" d="M444.6,2494.8c0,12.3-0.7,24.7,0.2,37c0.9,12.6-8.1,15.5-17.8,17c-12.8,1.9-14.2-7-14.3-15.6
			c-0.2-26.3-0.1-52.7,0-79c0-9.6,4.2-16,15.3-16.3c12.7-0.3,16.7,6.9,16.6,17.5C444.5,2468.5,444.6,2481.7,444.6,2494.8z"/>
		<path class="st10" d="M391.7,2493.9c0,12.3-0.4,24.6,0.1,36.8c0.5,11.8-5.2,15.9-17.4,15.7c-11.8-0.2-14.9-5.9-14.8-15.6
			c0.2-25.4,0.1-50.8,0.1-76.2c0-10.8,5-17.4,17.2-16.8c11.1,0.5,14.7,7.3,14.7,16.7C391.7,2467.7,391.7,2480.8,391.7,2493.9z"/>
		<path class="st10" d="M343.3,2494.5c0,13.2,0.3,26.3-0.1,39.5c-0.2,5.2-3.4,9.4-9,10.9c-4.8,1.3-9.3-0.1-10.2-5
			c-4.7-27.3-20.5-52.3-17.5-81.4c1.4-13.2,6.7-16.5,19.5-16.6c14.3-0.2,18.5,5.9,17.8,18.1c-0.6,11.5-0.1,23-0.1,34.6
			C343.6,2494.5,343.5,2494.5,343.3,2494.5z"/>
		<path class="st10" d="M496.9,2445.5c0,32.2,0.7,64.4-0.4,96.5c-0.4,12-12.6,9-20.8,8.7c-10.5-0.4-16.6-6.1-13.5-16.4
			c5.3-18.1,11.6-35.9,17.3-53.9c3.7-11.6,7.1-23.2,10.7-34.9C492.4,2445.5,494.6,2445.5,496.9,2445.5z"/>
		<path class="st9" d="M582.1,2437.3c9.2,0.5,20.8-2.4,20.9,11.8c0.2,33.1,0.1,66.1,0.1,99.5c-12.6-0.3-10.3-14.1-20.7-12
			C582.3,2503.5,582.2,2470.4,582.1,2437.3z"/>
		<path class="st10" d="M582.1,2437.3c0.1,33.1,0.2,66.2,0.2,99.3c-1.6,4.7,6.4,12.2-3.6,14c-8.7,1.6-12.5-3.7-12.5-11.6
			c0-30.1,0-60.2,0-90.3C566.3,2438.5,573.4,2436.9,582.1,2437.3z"/>
		<path class="st9" d="M291.1,2397.6c35.5,0,71,0.1,106.5,0.1c29.9,0.4,59.7,0.8,89.6,1.2c-61.5,15.8-124.3,6.2-186.5,8.3
			C294.2,2407.4,291.8,2402.9,291.1,2397.6z"/>
		<path class="st9" d="M462.8,2481.7c-0.4-14.1-8.3-28.8,4.3-41.3c1-0.9,6.2-0.2,6.5,0.7C478.8,2456.6,467.9,2468.4,462.8,2481.7z"
			/>
		<path class="st12" d="M487.1,2398.8c-29.9-0.4-59.7-0.8-89.6-1.2c31.3-7,63.3-1.7,94.8-4.3C490.6,2395.2,488.8,2397,487.1,2398.8z
			"/>
		<path class="st9" d="M503.2,2393.7c1.4-0.2,2.9-0.4,4.3-0.7c0,0,0.5-0.2,0.5-0.2c2.4,5.8,6.7,5.1,11.4,2.9c3,0,6,0.1,9.1,0.1
			c17.7,5.5,35.8-0.3,53.6,1.8c0,0,0.2,0.2,0.2,0.3C555.4,2403.4,528.6,2410.9,503.2,2393.7z"/>
		<path class="st7" d="M898.7,3739.2c-5.7-4.7-5.7-9.5-0.4-14.4C898.4,3729.6,898.6,3734.4,898.7,3739.2z"/>
		<path class="st7" d="M911,3709.8c4.7,3.1,4.8,6.3,0.2,9.5C911.2,3716.1,911.1,3713,911,3709.8z"/>
		<path class="st7" d="M911.5,3511.8c4.3,3,4.4,6.1,0.2,9.3C911.6,3518.1,911.5,3515,911.5,3511.8z"/>
		<path class="st7" d="M898.9,3679.8c-4.9-3.1-5-6.3-0.2-9.6C898.8,3673.4,898.8,3676.6,898.9,3679.8z"/>
		<path class="st14" d="M909.1,4026.4c-0.2,3.3-0.4,6.7-0.5,10C904.3,4032.9,904.5,4029.5,909.1,4026.4z"/>
		<path class="st7" d="M911.6,3858.4c4.4,3.4,4.1,6.6-0.6,9.5C911.1,3864.7,911.4,3861.6,911.6,3858.4z"/>
		<path class="st14" d="M985,3863.5c-0.2-21.6-0.3-43.3-0.5-64.9c3.1,0,6.2-0.1,9.3-0.1c0.7,16.6,1.4,33.1,2.2,49.7
			c-0.7,5.1-1.3,10.3-2,15.4C991.1,3863.6,988,3863.5,985,3863.5z"/>
		<path class="st8" d="M982.5,3690c-1.2,0-2.4-0.1-3.6-0.2c0-6.6,0-13.1,0-19.7c1.2-0.1,2.4-0.2,3.6-0.2
			C982.5,3676.6,982.5,3683.3,982.5,3690z"/>
		<path class="st8" d="M982.5,3655.1c-0.5-1.1-1.1-2.2-1.3-3.4c-0.1-0.4,1-0.9,1.5-1.4C983.3,3651.9,983.2,3653.5,982.5,3655.1z"/>
		<path class="st14" d="M994.4,3774c-0.1,1.7-0.2,3.4-0.3,5c-0.5-1.2-1.2-2.4-1.4-3.7C992.5,3775,993.8,3774.4,994.4,3774z"/>
		<path class="st7" d="M-1.3,3239.1c-0.5-1.1-1.1-2.2-1.3-3.4c-0.1-0.3,1.1-0.8,1.6-1.3C-0.4,3236.1-0.5,3237.6-1.3,3239.1z"/>
		<path class="st8" d="M288.1,4264.1c-0.4,1.6-0.8,3.2-1.2,4.8C287.3,4267.4,287.7,4265.8,288.1,4264.1z"/>
		<path class="st13" d="M528.4,2395.7c17.8-4.2,35.9-2.8,53.9-2.7c0.1,1.5,0,3-0.4,4.5C564.2,2395.5,546.1,2401.2,528.4,2395.7z"/>
		<path class="st12" d="M984.9,3956.7c-0.6-4.8-1.3-9.7-1.9-14.5c0-21.1,0-42.2,0-63.3c0.7-5.1,1.4-10.2,2.1-15.3c3,0,6,0,9,0
			c-0.3,3-0.5,6-0.7,9.1c-5.9,13.5-6,26.9,0,40.4c0.5,11.4,1.1,22.9,1.6,34.3c-0.6,3-1.2,6.1-1.9,9.1
			C990.4,3956.5,987.7,3956.6,984.9,3956.7z"/>
		<path class="st8" d="M446.4,4135.2c-1-1.5-1.1-3-0.4-4.6c0.6,1,1.3,2,1.6,3.1C447.7,4134.1,446.9,4134.7,446.4,4135.2z"/>
		<path class="st15" d="M435.3,4219.7c-0.7-24.8-1.4-49.5-2.1-74.3c0.7-1.7,1.3-3.4,2-5.1C441.3,4166.7,441.4,4193.2,435.3,4219.7z"
			/>
		<path class="st8" d="M445.8,4244.3c1.4,0,2.7,0.1,4.1,0.1c-1.4,1.6-2.9,3.2-4.3,4.8C445.7,4247.5,445.7,4245.9,445.8,4244.3z"/>
		<path class="st15" d="M435.2,4125.8c-0.1-1.8-0.1-3.7-0.2-5.5c0.6,1.3,1.3,2.5,1.6,3.8C436.8,4124.6,435.8,4125.2,435.2,4125.8z"
			/>
		<path class="st13" d="M508,2392.8c3.8,1,7.6,1.9,11.4,2.9C514.6,2397.9,510.4,2398.6,508,2392.8z"/>
		<path class="st14" d="M993.3,3913c-6.1-13.5-5.9-26.9,0-40.4C996,3886.1,996,3899.6,993.3,3913z"/>
	</g>
	<g class="st0">
		<path d="M1174.2,1743.8c-113,0-226.1,0.3-339.1-0.1c-106-0.3-198.1-64.5-232.2-163.9c-8.7-25.4-13.5-53.3-13.7-80.1
			c-1.1-206.3-1.1-412.5-0.5-618.8C589,747.2,697.8,639.5,833.9,639c226.6-0.8,453.3-0.8,679.9,0c136.6,0.5,244.3,110,244.3,246.4
			c0.1,204.1,0.1,408.3,0,612.4c0,135.8-109,245.5-244.8,245.9C1400.3,1744.1,1287.2,1743.8,1174.2,1743.8z M1174.8,697.4
			c-111.4,0-222.9-0.1-334.3,0.2c-14.9,0-30.2,0.6-44.6,3.8c-90.7,20.4-149.3,94.2-149.4,187.4c-0.1,200.9-0.1,401.8,0,602.7
			c0,5.9,0.1,11.8,0.5,17.7c7.2,101.3,88.1,176.3,189.7,176.3c222.9-0.1,445.7,0,668.6,0c113.2,0,194.9-81,195-194.1
			c0.2-200.4,0.2-400.7,0-601.1c-0.1-111.3-81.8-192.8-192.7-192.9C1396.6,697.3,1285.7,697.4,1174.8,697.4z"/>
		<path d="M352.6,515.4c0,21.7,0.4,41.4-0.1,61.1c-0.5,17.1-10.1,26.5-25.7,26.6c-15.5,0.1-25.8-9.2-25.9-26.4
			c-0.4-82-0.2-163.9-0.1-245.9c0-2,0.9-4,1.8-7.8c42.8,0,85.5-0.1,128.2,0.1c8.5,0,17.1,0.8,25.5,2.5c48.1,9.9,81,54.6,75.9,102.4
			c-5.3,49.9-45.1,86.7-94.8,87.2C410,515.7,382.7,515.4,352.6,515.4z M353.7,377.7c0,30,0,57.6,0,86.5c31.3,0,61.8,1.1,92-0.4
			c20.7-1,36.2-21,36.4-42.2c0.2-21.8-14.2-42.2-34.8-43.5C416.5,376.3,385.6,377.7,353.7,377.7z"/>
		<path class="st18" d="M1795.4,325.6c15.2-0.5,30.8,8.3,38,27.2c28.5,74.5,56.3,149.2,84,224c4.8,13-1.8,25.9-13.6,30.4
			c-11.9,4.5-24.2-0.8-29.9-14.4c-6-14.3-11.3-28.9-16-43.7c-3-9.5-7.9-13.8-18.4-13.7c-33.7,0.5-67.5,0.4-101.3,0.2
			c-8.7-0.1-13.7,2.4-16.5,11.3c-4.7,14.8-10.6,29.2-16.2,43.6c-6.5,16.7-18.5,23.9-31.7,19.4c-13.6-4.6-18.8-17.2-12.3-34.4
			c27.7-73.5,56.1-146.9,83.9-220.4C1753.4,334.2,1768.9,325.9,1795.4,325.6z M1745.1,485.5c31.6,0,58.9,0,89.4,0
			c-14.5-38.4-28.2-74.6-41.8-110.7c-1.7,0.2-3.4,0.4-5.1,0.5C1773.7,411.2,1759.9,447.1,1745.1,485.5z"/>
		<path d="M703.3,562.9c0,17.7,0.2,33.7-0.1,49.7c-0.3,16.3-9.5,27.1-23,27.4c-14.3,0.3-24.2-10.6-24.2-28
			c-0.2-69.5-0.3-139.1,0-208.6c0.1-23.3,18.2-33.2,38.4-22.2c3.5,1.9,9,3.2,12.3,1.8c43.9-18.8,105.9,0.3,113.9,68.1
			c2.9,24.9,0.6,49-9.8,72.1C789.5,570.7,752.2,585.2,703.3,562.9z M703.3,471.8c0,8,0,16.1,0,24.1c0.1,18.4,8.5,29.4,25.4,33.7
			c15.6,4,31.4-2.5,39.3-17.6c12.2-23.4,11.5-47.7,0.4-71.1c-7.5-15.8-24.9-20-46.3-15.7c-18.4,3.7-20.5,15.4-19,30.6
			C703.8,461.1,703.3,466.5,703.3,471.8z"/>
		<path d="M1513.7,516.2c14.7,5.1,29,11.8,44.1,14.9c12.2,2.5,20.6,5.6,19.9,19.5c-0.6,14-8.1,21.3-22,22.6
			c-46.1,4.4-90.8-29.9-95.9-75.9c-2-17.7-0.9-36.6,3-53.9c10.4-46.1,45.2-68.4,99.3-66.5c42.3,1.5,76.3,30.5,83.5,72.9
			c2.6,15.2,1.8,30.9,3.1,46.3c0.8,10.3-3.9,12.6-13.3,12.5c-36.9-0.4-73.9-0.1-110.8,0c-3,0-6,0.6-9,0.9
			C1515,511.7,1514.4,514,1513.7,516.2z M1505.5,459.5c32.1,0,63.1,0,94.4,0c-6.4-28.8-24.3-41.9-52.6-39.8
			C1521.1,421.6,1507.3,434.5,1505.5,459.5z"/>
		<path d="M904.9,507.7c15,17.2,30.5,22,47,23.7c12.7,1.3,20,5.7,19.3,19.8c-0.8,14.5-8.2,21-22.2,22.1
			c-59.4,4.6-103.3-44-96.9-108.3c7-70.3,57.6-99.2,123-85.1c36.9,7.9,62.2,39.4,65.8,78.1c1.5,15.9,0.2,32,0.2,49.8
			C996.9,507.7,953.3,507.7,904.9,507.7z M992.6,460.4c-2.6-28.8-24.2-44.1-55-40.5c-25.2,2.9-39.4,18.3-36.8,40.5
			C930.9,460.4,961.2,460.4,992.6,460.4z"/>
		<path d="M1298.7,422.8c0,28.2,0,57,0,85.7c0,13.4,0.2,26.8-0.2,40.2c-0.4,14.7-9,24-22.1,24.5c-13.1,0.6-23.8-9.6-23.9-24.5
			c-0.4-43.4-0.1-86.7-0.1-130.1c0-13.2,0-26.5,0-40.8c42.7,0,83.9-2.1,124.7,0.7c29.4,2,53.2,31.2,54.1,61.2
			c1.2,36.4,0.6,72.8,0.2,109.2c-0.2,14.5-9.7,23.9-22.5,24.3c-12.6,0.4-23.2-10.3-23.5-25.3c-0.5-30.5-0.1-61-0.2-91.6
			c0-26.4-9.1-35.8-35.4-36.3c-15-0.3-30,0.1-45,0.4C1303.5,420.5,1302,421.5,1298.7,422.8z"/>
		<path class="st18" d="M1994.4,465.8c0,35.8,0.1,71.7-0.1,107.5c-0.1,18-7.8,27.9-21.1,28.4c-14.1,0.5-23.2-10-23.3-28.3
			c-0.3-69-0.5-138-0.3-206.9c0.1-25,7.6-35.9,22.6-36c15.9-0.1,22.3,11.2,22.2,37.4C1994.3,400.6,1994.5,433.2,1994.4,465.8z"/>
		<path d="M1076.3,449.8c0-30.5-0.1-61,0-91.4c0.1-18.4,8.3-28.7,22.6-29c15-0.3,23.5,10,23.5,29.4c0.1,63.1-0.1,126.2,0.1,189.3
			c0,12.3-4.9,22.2-16.9,23.5c-7.8,0.8-17.6-2.9-23.8-8c-4.2-3.4-5.1-12.5-5.2-19.1C1076,512.9,1076.3,481.3,1076.3,449.8z"/>
		<path d="M578.1,474c0-23.6-0.2-47.1,0.1-70.7c0.2-17.4,8.3-26.2,23.3-26.4c14.1-0.1,23.3,8.3,23.5,24.7
			c0.5,48.7,0.5,97.5-0.1,146.2c-0.2,15.9-10.1,25.4-23.4,25.4c-13.8,0-23.2-10.4-23.4-26.9C577.9,522.2,578.1,498.1,578.1,474z"/>
		<path d="M1206.2,475.5c0,23.6,0.2,47.1-0.1,70.7c-0.2,16.7-9.1,26.8-23.2,27c-13.7,0.2-22.8-10.2-22.9-27
			c-0.2-47.7-0.2-95.3,0-143c0.1-17.8,7.8-26.2,23.1-26.3c15-0.1,22.7,8.6,22.9,26.4C1206.3,427.3,1206.1,451.4,1206.2,475.5
			C1206.2,475.5,1206.2,475.5,1206.2,475.5z"/>
		<path d="M1205.9,344.6c0.2,13.2-9.9,23.8-22.6,23.9c-12.6,0-23.2-10.6-23.2-23.4c-0.1-12.5,10.8-24.2,22.7-24.4
			C1194.6,320.4,1205.8,332,1205.9,344.6z"/>
		<path d="M624.1,344.5c0.1,13.5-9.9,24-22.8,23.8c-12.6-0.2-23.2-11.3-22.9-24.1c0.3-11.8,11.3-23.2,22.4-23.4
			C613.6,320.6,624,331.2,624.1,344.5z"/>
		<path d="M1172.1,1651.2c-104.5,0-209,0.1-313.5,0c-97.5-0.1-172.8-70.9-174.2-168.4c-2-144.1-0.9-288.3-1-432.5
			c0-52-0.6-104,0.8-155.9c2.3-87,76.7-162.3,163.7-162.7c217.6-1.1,435.2-1.1,652.7,0c81.8,0.4,155.5,73.3,161.4,155.3
			c0.6,8,0.6,16.1,0.6,24.1c0,188.6,0,377.3,0,565.9c0,98.7-75.2,174.1-173.8,174.2C1383.2,1651.3,1277.6,1651.2,1172.1,1651.2z
			 M1174.9,749.7c-105,0-210-0.1-315,0C768.8,749.8,701.6,817,701.5,908c-0.1,189.1-0.1,378.2,0,567.3
			c0,88.7,65.8,157.3,154.2,157.6c211.6,0.8,423.2,0.8,634.8,0.1c87.8-0.3,153.8-68.1,154-156c0.3-189.6,0.3-379.3,0.3-568.9
			c0-91.2-67-158.3-158.1-158.3C1382.7,749.7,1278.8,749.7,1174.9,749.7z"/>
		<path d="M1364.7,985.8c-31.4,33-64.1,67.6-97.1,101.9c-14.5,15.1-29.5,29.6-44.3,44.3c-10.1,10-22.1,18.6-22.3,35.3
			c0,4-4,10.1-7.7,11.6c-14.9,6.1-13.6,18.1-13.5,30.6c0.3,40.7,0.1,81.4,0.1,122.1c0,5.2,0,10.5,0,11.6c23.5,10.1,46.1,15.7,64,28
			c67.9,46.9,59.1,146-15.3,181.8c-43.6,21-86.6,18.3-126.4-9.3c-33.9-23.5-49.4-57-45.2-98.5c4.6-45.3,41.5-83.9,89.1-93.7
			c6.2-1.3,12.5-2.4,20.2-3.9c0-29.5,0-58.3,0-87.2c0-16.1-0.2-32.1,0.1-48.2c0.3-13.3,2.2-26.6-13.9-33.6
			c-3.6-1.6-7.5-7.8-7.3-11.7c0.6-15.7-10.3-24-19.5-33.4c-47.2-48.2-94.5-96.3-141.9-144.5c-1.4-1.5-3.3-2.5-4.8-3.7
			c-69.9,49.4-144.2,22.6-175.6-20.7c-30.9-42.5-25.6-101.1,13-137.4c44.9-42.2,115.9-43.9,163.1-4.3c36.4,30.5,56.9,93.1,9.9,152.5
			c54.3,52,108.7,104.2,164.8,157.9c10.4-7.1,26.3-9.5,42.5,4.3c52.8-54.7,105.1-108.9,158.9-164.6c-20.9-24.1-32.2-56.3-23.6-93.5
			c6-26.2,20.9-46.8,42.4-62.4c46.8-34.2,115.9-29.1,156.6,11.1c37.3,36.8,42.6,92.8,12.7,135C1506.5,1016,1446,1024.8,1364.7,985.8
			z M1166.4,1371.8c-52.2-2.5-97.8,50.1-88.2,99.2c8,40.6,44.1,71.5,86.2,73.9c47.7,2.7,87.9-22.4,101-63.1
			c17.1-52.9-28.7-113.3-85.4-109.9c0,15.2-0.7,30.7,0.4,46c0.4,5.2,4.1,11.6,8.3,14.8c11.5,8.6,17.9,18.5,13.4,32.9
			c-4.3,13.5-15.1,19.7-28.2,19.9c-13.8,0.2-25.4-5.9-29.7-20.1c-4.3-14.2,1.5-24.7,13.7-32.8c3.8-2.5,7.8-7.6,8.1-11.7
			C1167,1405,1166.4,1389,1166.4,1371.8z M1383.9,968.1c41.5,35.1,105.7,27.9,138.4-11.3c31.4-37.6,25.2-89.3-14.4-120.6
			c-41.4-32.8-106.8-25.9-138.6,14.5c-27.9,35.5-25,85.2,7.7,109.9c12.9-21.3,43.7-29.2,40.5-63.2c-1.5-15.3,17.6-24.7,34.9-21.7
			c15.7,2.7,25.6,15.6,23.7,31c-1.8,15.3-15.1,24.9-32.4,24.3c-6.8-0.2-15.4-1.2-20.1,2.3C1409.9,943.6,1397.7,955.8,1383.9,968.1z
			 M972.1,960.4c34.5-39.4,30.4-89-6-121.1c-40.4-35.5-104.1-31.5-140.3,8.8c-30.8,34.2-28.2,85.3,6,116.6
			c37.2,34.1,99.7,35.9,131.7,1.4c-5.8-5.1-11.8-10.3-17.8-15.5c-13.3-11.5-22-28.9-46.5-20.6c-15.1,5.1-28.7-10.7-28.8-26.6
			c-0.2-16.6,12.4-28.3,30.2-28.1c17.6,0.1,30,11.9,30.4,28.4c0.1,4.5-0.7,10.4,1.7,13.2C945,931.6,958.3,945.4,972.1,960.4z"/>
		<circle cx="900.1" cy="903.1" r="30.8"/>
		<circle cx="1446.2" cy="903.1" r="30.8"/>
		<circle cx="1173.3" cy="1158.6" r="33"/>
	</g>
	<g class="st0">
	</g>
	<g class="st0">
		<rect x="6" y="-2003.6" class="st19" width="0" height="14.3"/>
	</g>
	<g class="st0">
		<rect x="155.2" y="148.9" class="st19" width="1965.9" height="147.5"/>
		<text transform="matrix(1 0 0 1 231.1739 264.2114)" class="st20 st21">Trust your AI in production</text>
	</g>
	<rect id="_x3C_Slice_x3E_" x="-1031" y="5667.8" class="st22" width="1030.5" height="79.2"/>
	<rect id="_x3C_Slice_x3E__1_" x="-0.5" y="5667.8" class="st22" width="2270.7" height="79.2"/>
	<rect id="_x3C_Slice_x3E__2_" x="2270.2" y="5667.8" class="st22" width="47.8" height="79.2"/>
	<rect id="_x3C_Slice_x3E__3_" x="-1031" y="-2004" class="st22" width="1030.5" height="7671.8"/>
	<polygon id="_x3C_Slice_x3E__4_" class="st22" points="-0.5,5667.8 -0.5,-2004 2675.1,-1994.4 2675.1,5677.4 	"/>
</g>
</svg>
