<?xml version="1.0" encoding="UTF-8"?>
<svg width="2278px" height="5695px" viewBox="0 0 2278 5695" version="1.1" xmlns="http://www.w3.org/2000/svg" xmlns:xlink="http://www.w3.org/1999/xlink">
    <!-- Generator: Sketch 51.3 (57544) - http://www.bohemiancoding.com/sketch -->
    <title>banner</title>
    <desc>Created with Sketch.</desc>
    <defs></defs>
    <g id="banner" stroke="none" stroke-width="1" fill="none" fill-rule="evenodd">
        <rect fill="#000000" x="0" y="0" width="2278" height="5695"></rect>
        <text id="Fast,-Safe,-Flexible" font-family="LucidaGrande-Bold, Lucida Grande" font-size="200" font-weight="bold" letter-spacing="-6.12" fill="#FFFFFF">
            <tspan x="258.610156" y="2294">Fast, Safe, Flexible</tspan>
            <tspan x="414.664219" y="2529">ML Application</tspan>
            <tspan x="723.062031" y="2764">Platform</tspan>
        </text>
        <g id="Group" transform="translate(432.000000, 3033.000000)">
            <text id="Continuous-Validatio" font-family="LucidaGrande, Lucida Grande" font-size="144" font-weight="normal" letter-spacing="-6.48" fill="#FFFFFF">
                <tspan x="535" y="139">Continuous </tspan>
                <tspan x="535" y="308">Validation</tspan>
            </text>
            <text id="Continuous-Optimizat" font-family="LucidaGrande, Lucida Grande" font-size="144" font-weight="normal" letter-spacing="-6.48">
                <tspan x="535" y="696" fill="#FFFFFF">Continuous </tspan>
                <tspan x="535" y="865" fill="#FFFFFF">Optimization</tspan>
                <tspan x="1366.66188" y="865" font-size="12" fill="#000000"></tspan>
                <tspan x="535" y="1034" font-size="12" fill="#000000"></tspan>
                <tspan x="535" y="696" font-size="12" fill="#000000">Optimize Models with 360ยบ Feedback</tspan>
            </text>
            <text id="Continuous-TrainingC" font-family="LucidaGrande, Lucida Grande" font-size="144" font-weight="normal" letter-spacing="-6.48">
                <tspan x="535" y="1253" fill="#FFFFFF">Continuous </tspan>
                <tspan x="535" y="1422" fill="#FFFFFF">Training</tspan>
                <tspan x="1055.19719" y="1422" font-size="12" fill="#000000">Continuous Training (CT)</tspan>
                <tspan x="535" y="1591" font-size="12" fill="#000000"></tspan>
                <tspan x="535" y="1253" font-size="12" fill="#000000">Train Models on Real-Time Data</tspan>
            </text>
            <text id="Continuous-Experimen" font-family="LucidaGrande, Lucida Grande" font-size="144" font-weight="normal" letter-spacing="-6.48">
                <tspan x="535" y="1810" fill="#FFFFFF">Continuous </tspan>
                <tspan x="535" y="1979" fill="#FFFFFF">Experimentation</tspan>
                <tspan x="1586.28437" y="1979" font-size="12" fill="#000000"></tspan>
            </text>
            <path d="M341.69079,1958.81066 L221.045334,1803.93344 L221.045334,1726.001 L236.397213,1726.001 C240.553848,1726.001 244.154106,1724.76162 247.189157,1722.28765 C250.230095,1719.81607 251.749092,1716.88423 251.749092,1713.4993 C251.749092,1710.11437 250.230095,1707.18492 247.189157,1704.71095 C244.154106,1702.23698 240.553848,1701 236.397213,1701 L113.599844,1701 C109.440264,1701 105.84295,1702.23698 102.804956,1704.71095 C99.7669616,1707.18492 98.2479645,1710.11437 98.2479645,1713.4993 C98.2479645,1716.88423 99.7669616,1719.81607 102.804956,1722.28765 C105.845894,1724.76162 109.443208,1726.001 113.599844,1726.001 L128.948779,1726.001 L128.948779,1803.93105 L8.30920964,1958.80827 C-0.642863994,1970.4014 -2.36203894,1980.33085 3.1546286,1988.59659 C8.67129614,1996.86473 19.9048091,2001 36.8522238,2001 L313.153664,2001 C330.098135,2001 341.328704,1996.86473 346.845371,1988.59659 C352.362039,1980.33085 350.642864,1970.4038 341.69079,1958.81066 L341.69079,1958.81066 Z M89.7435897,1901 L154.885202,1817.28263 L159.673599,1811.23234 L159.673599,1804.01317 L159.673599,1726.1497 L190.326401,1726.1497 L190.326401,1804.01317 L190.326401,1811.23234 L195.114798,1817.28263 L260.25641,1901 L89.7435897,1901 L89.7435897,1901 Z" id="Shape" fill="#FFFFFF"></path>
            <g transform="translate(0.000000, 7.000000)" fill="#FFFFFF" id="Shape">
                <path d="M345.044743,18.9065996 C342.161633,16.0234899 338.741611,14.5777405 334.793065,14.5777405 C330.844519,14.5777405 327.430089,16.0234899 324.541387,18.9065996 L294.924497,48.2997763 C278.6717,32.958613 260.064318,21.0710291 239.105145,12.6426174 C218.14877,4.21420582 196.574385,0 174.39877,0 C132.628635,0 96.1772931,12.6426174 65.0391499,37.9334452 C33.9010067,63.2214765 13.397651,96.216443 3.52348993,136.923937 L3.52348993,138.517897 C3.52348993,140.49217 4.24496644,142.200783 5.68791946,143.643736 C7.13087248,145.086689 8.83948546,145.808166 10.8137584,145.808166 L56.1521253,145.808166 C59.4938479,145.808166 61.7701342,144.060403 62.9865772,140.567673 C69.3652125,125.380313 73.3892617,116.496085 75.0615213,113.912192 C85.6935123,96.5967562 99.8182327,83.0033557 117.438479,73.1291946 C135.058725,63.25783 154.043624,58.3193512 174.395973,58.3193512 C204.927293,58.3193512 231.431767,68.7248322 253.912192,89.5329978 L222.466443,120.973154 C219.58613,123.85906 218.14038,127.279083 218.14038,131.227629 C218.14038,135.176174 219.58613,138.5934 222.466443,141.479306 C225.355145,144.365213 228.775168,145.808166 232.723714,145.808166 L334.793065,145.808166 C338.741611,145.808166 342.158837,144.365213 345.044743,141.479306 C347.927852,138.5934 349.370805,135.176174 349.370805,131.227629 L349.370805,29.1582774 C349.370805,25.2097315 347.936242,21.7925056 345.044743,18.9065996 L345.044743,18.9065996 Z"></path>
                <path d="M336.960291,203.193512 L293.213087,203.193512 C289.874161,203.193512 287.595078,204.938479 286.381432,208.434004 C280.005593,223.624161 275.978747,232.505593 274.309284,235.089485 C263.674497,252.399329 249.549776,265.998322 231.932327,275.869687 C214.312081,285.743848 195.327181,290.67953 174.974832,290.67953 C160.243289,290.67953 146.040268,287.947427 132.371365,282.477629 C118.702461,277.00783 106.473714,269.258949 95.6907159,259.233781 L126.904362,228.022931 C129.790268,225.139821 131.233221,221.717002 131.233221,217.771253 C131.233221,213.822707 129.790268,210.402685 126.904362,207.519575 C124.018456,204.630872 120.60123,203.187919 116.652685,203.187919 L14.5833333,203.187919 C10.6319911,203.187919 7.2147651,204.630872 4.32885906,207.519575 C1.44295302,210.402685 0,213.822707 0,217.771253 L0,319.840604 C0,323.786353 1.44295302,327.209172 4.32885906,330.092282 C7.21756152,332.975391 10.6347875,334.423937 14.5833333,334.423937 C18.5318792,334.423937 21.9491051,332.975391 24.8350112,330.092282 L54.2253915,300.699105 C70.4781879,316.191275 88.9709172,328.115213 109.703579,336.468121 C130.436242,344.823826 151.89038,348.998881 174.065996,348.998881 C215.685123,348.998881 251.985459,336.356264 282.969799,311.065436 C313.954139,285.777405 334.306488,252.779642 344.029642,212.074944 C344.183445,211.772931 344.256152,211.238814 344.256152,210.480984 C344.256152,208.506711 343.531879,206.800895 342.088926,205.355145 C340.643177,203.917785 338.934564,203.193512 336.960291,203.193512 L336.960291,203.193512 Z"></path>
            </g>
            <g id="tachometer-alt-solid" transform="translate(0.000000, 585.000000)" fill="#FFFFFF" fill-rule="nonzero">
                <path d="M175,0 C78.3489583,0 0,86.34375 0,192.857143 C0,228.214286 8.65885417,261.334821 23.734375,289.821429 C27.1432292,296.263393 33.6388889,300 40.4079861,300 L309.592014,300 C316.361111,300 322.856771,296.263393 326.265625,289.821429 C341.341146,261.334821 350,228.214286 350,192.857143 C350,86.34375 271.651042,0 175,0 Z M174.421056,43 C183.430251,43 190.700077,49.8060937 192.990654,58.8898438 C192.310831,60.4082813 191.373776,61.731875 190.877689,63.37125 L185.230865,81.9620313 C182.088977,84.306875 178.512247,86 174.427181,86 C163.605123,86 154.82866,76.3720312 154.82866,64.5 C154.82866,52.6279688 163.598998,43 174.421056,43 Z M57.2429907,236 C46.7067027,236 38.1619938,226.372031 38.1619938,214.5 C38.1619938,202.627969 46.7067027,193 57.2429907,193 C67.7792786,193 76.3239875,202.627969 76.3239875,214.5 C76.3239875,226.372031 67.7792786,236 57.2429907,236 Z M87.7725857,129 C77.2362977,129 68.6915888,119.372031 68.6915888,107.5 C68.6915888,95.6279688 77.2362977,86 87.7725857,86 C98.3088736,86 106.853583,95.6279688 106.853583,107.5 C106.853583,119.372031 98.3088736,129 87.7725857,129 Z M238.032138,80.156048 L200.617306,203.219802 C208.968995,211.071804 214.380205,222.582278 214.380205,235.597608 C214.380205,243.436234 212.318211,250.679606 208.962894,257 L141.710146,257 C138.35483,250.679606 136.292835,243.436234 136.292835,235.597608 C136.292835,212.897696 152.459361,194.511704 172.835284,193.067042 L210.256216,69.9966 C212.800156,61.5961612 221.072537,56.9879586 228.777564,59.8505286 C236.445988,62.6529043 240.582178,71.7489209 238.032138,80.156048 Z M246.417445,118.774062 L255.951847,87.4982812 C258.083572,86.6315625 260.33202,86 262.740194,86 C273.595405,86 282.398754,95.6279688 282.398754,107.5 C282.398754,119.372031 273.595405,129 262.740194,129 C255.749118,128.993281 249.90684,124.780625 246.417445,118.774062 Z M290.576324,236 C280.040036,236 271.495327,226.372031 271.495327,214.5 C271.495327,202.627969 280.040036,193 290.576324,193 C301.112612,193 309.657321,202.627969 309.657321,214.5 C309.657321,226.372031 301.112612,236 290.576324,236 Z" id="Shape"></path>
            </g>
        </g>
        <text id="community.pipeline.a" font-family="20thCenturyFont, 20th Century Font" font-size="210" font-weight="normal" letter-spacing="-9.449999" fill="#FF1E00">
            <tspan x="174.549989" y="5457">community.pipeline.ai</tspan>
        </text>
        <g id="Pipeline-AI" transform="translate(195.000000, 241.000000)">
            <g id="Group-3" fill="#FFFFFF" stroke="#000000" stroke-width="5">
                <path d="M968.339079,1683.59159 C1084.50325,1683.59159 1200.66497,1683.63287 1316.82668,1683.58385 C1498.00692,1683.50647 1642.72002,1533.13857 1643.04523,1343.83732 C1643.42709,1124.21846 1643.2571,904.597023 1643.14131,684.973008 C1643.0945,600.430402 1616.95011,525.78558 1564.6835,461.149463 C1560.80569,456.354055 1555.58519,445.927461 1556.98948,444.477746 C1562.38736,438.895571 1569.95327,433.328874 1577.21369,432.472459 C1592.43912,430.679662 1608.0686,430.847334 1623.36795,432.232559 C1632.19033,433.029644 1642.18787,435.684015 1649.07381,441.101098 C1681.02998,466.244101 1715.01375,470.183094 1751.9613,456.052246 C1757.27542,454.019551 1763.77949,453.310171 1769.3252,454.357473 C1832.13136,466.205407 1886.77294,422.319298 1887.93333,355.983249 C1889.36225,274.156923 1888.92619,192.276426 1888.08608,110.432043 C1887.64262,67.2037222 1861.91705,29.5008256 1824.62951,16.0277668 C1784.42006,1.50224606 1748.34218,10.3811028 1719.30545,43.2241022 C1708.68953,55.2293895 1702.60428,52.92326 1692.88266,42.5972683 C1662.10166,9.90646315 1624.48892,-1.9259935 1581.29351,6.06033433 C1535.39054,14.549677 1505.77239,43.5775023 1488.35182,87.6003288 C1483.30378,100.366587 1477.71126,104.591912 1464.9692,95.336439 C1401.80581,49.4485883 1336.01122,48.4451382 1269.01191,85.5985877 C1259.7239,90.7499756 1253.0178,92.111985 1243.68545,85.2941993 C1219.06853,67.3146434 1191.04683,59.8390691 1161.11332,59.9628881 C1135.79179,60.0712298 1110.46041,59.71525 1085.14873,60.3730387 C1073.54981,60.6748476 1066.29186,56.5939785 1059.6375,46.1028947 C1032.33273,3.05256358 984.143478,-10.5339961 939.100327,10.04318 C932.716976,12.9580865 924.259221,13.8841497 917.466902,12.3389913 C875.720132,2.85651677 836.294132,18.5712161 813.079036,56.7229567 C806.175852,68.0678759 799.693955,70.5313588 787.469259,67.0773236 C745.25932,55.1597413 701.985079,55.0281836 663.687438,76.9338348 C637.225233,92.0681324 618.437339,94.8385833 592.184546,76.5056273 C565.165553,57.6361221 531.659736,58.144296 499.267495,61.7840598 C486.461374,63.2260356 473.825247,64.8872744 464.55941,49.6704307 C430.937801,-5.55027988 370.068079,-15.6750657 320.701199,25.2806601 C312.908633,31.7424661 307.37771,31.5025667 298.61446,27.579051 C280.07786,19.2728573 260.984471,8.21426965 241.588052,6.90643108 C187.320947,3.24345126 132.782839,3.29504253 78.3506678,3.16090524 C30.9621096,3.04482489 0.760064672,34.9333858 0.585144597,84.3320222 C0.274723057,172.519551 0.449643131,260.712239 0.607317565,348.899768 C0.661518151,379.003272 10.2131397,405.554716 30.6738611,426.916079 C84.761119,483.382719 176.85777,457.45037 196.325635,379.937073 C199.612162,366.850949 204.647889,362.811353 217.352999,361.795005 C235.249047,360.363347 253.236251,356.444991 270.484356,351.110454 C282.497177,347.395883 288.530687,349.093236 293.393958,361.578322 C305.118531,391.671507 326.700219,410.946003 356.323303,420.541979 C379.63941,428.09494 385.089032,447.601597 369.728093,467.345574 C321.770429,528.986818 296.323254,599.602362 296.158188,679.094183 C295.695019,902.174814 295.761538,1125.25544 296.498174,1348.33349 C296.584402,1373.99757 299.814264,1400.25752 305.672855,1425.19416 C341.662044,1578.35573 470.90827,1683.53484 621.502136,1683.58385 C737.11445,1683.62513 852.726765,1683.59159 968.339079,1683.59159 Z" id="Fill-1"></path>
            </g>
            <path d="M976.098269,481.328458 C861.709557,481.328458 747.320845,481.181314 632.934601,481.503998 C617.633083,481.547883 601.934221,482.120971 587.101621,485.613704 C493.944998,507.556227 433.814972,586.719687 433.750804,686.873106 C433.612597,902.586178 433.698976,1118.29667 433.723656,1334.00974 C433.723656,1340.33177 433.856927,1346.67187 434.286357,1352.97582 C441.673041,1461.71264 524.710919,1542.30366 628.968546,1542.27268 C857.743502,1542.19782 1086.52093,1542.25203 1315.29588,1542.24686 C1431.4961,1542.2417 1515.3336,1455.25896 1515.44713,1333.84711 C1515.65197,1118.71228 1515.61989,903.574882 1515.41258,688.440061 C1515.29658,568.966895 1431.44921,481.405902 1317.61332,481.341366 C1203.77497,481.276829 1089.93662,481.325877 976.098269,481.328458 Z M975.476336,1604.88631 C859.431605,1604.89148 743.386874,1605.16511 627.342143,1604.80887 C518.553292,1604.47328 423.960301,1535.58666 388.954379,1428.79369 C380.032607,1401.56948 375.054678,1371.54952 374.906599,1342.77642 C373.768857,1121.30667 373.815749,899.826583 374.422874,678.349081 C374.815283,534.795933 486.474402,419.210466 626.204401,418.668357 C858.839288,417.76226 1091.48405,417.788075 1324.11893,418.681264 C1464.34006,419.218211 1574.85897,536.819808 1574.93054,683.207414 C1575.0416,902.384823 1574.99718,1121.55965 1574.95029,1340.73706 C1574.9182,1486.54125 1463.02709,1604.33646 1323.61053,1604.80112 C1207.56827,1605.19351 1091.52107,1604.88373 975.476336,1604.88631 Z" id="Fill-4" fill="#1A1919"></path>
            <path d="M132.444106,139.696873 C132.444106,171.925812 132.444106,201.609613 132.444106,232.693886 C164.591785,232.693886 195.804609,233.897982 226.881768,232.275295 C248.099779,231.166803 264.061386,209.733383 264.219251,186.951169 C264.382049,163.48939 249.671026,141.583117 228.522081,140.223988 C196.958995,138.195629 165.186244,139.696873 132.444106,139.696873 Z M131.339052,287.741213 C131.339052,311.091885 131.78798,332.266915 131.203387,353.408355 C130.692793,371.826368 120.836112,381.893228 104.854771,381.999168 C88.9548295,382.105108 78.345824,372.092509 78.2545585,353.674496 C77.8253636,265.594638 78.0522942,177.509612 78.1262933,89.4271698 C78.12876,87.2722002 79.0636154,85.1198146 80.0132706,81.0372584 C123.889809,81.0372584 167.699747,80.897728 211.504753,81.1587015 C220.221848,81.2103794 229.096808,81.9726288 237.619038,83.8175308 C286.944377,94.5045261 320.675638,142.464226 315.471034,193.91477 C310.044432,247.559042 269.196925,287.113327 218.228805,287.684368 C190.252209,287.999603 162.268213,287.741213 131.339052,287.741213 Z" id="Fill-5" fill="#1A1919"></path>
            <path d="M1559.92179,254.854665 C1592.42558,254.854665 1620.57604,254.854665 1652.0175,254.854665 C1637.06814,213.592741 1622.99043,174.74082 1608.91519,135.888899 C1607.1496,136.082629 1605.38153,136.276359 1603.61346,136.470089 C1589.38222,175.030124 1575.1485,213.595324 1559.92179,254.854665 Z M1611.72578,83.0186691 C1627.40565,82.5227201 1643.42973,91.8992558 1650.87593,112.197002 C1680.22987,192.223022 1708.89541,272.528014 1737.36532,352.900165 C1742.33028,366.910724 1735.50562,380.75855 1723.37675,385.555307 C1711.10178,390.406308 1698.49747,384.723559 1692.56675,370.118894 C1686.34136,354.790971 1680.9579,339.039424 1676.13409,323.169056 C1673.01644,312.911694 1667.96233,308.313834 1657.17561,308.497231 C1622.42088,309.081005 1587.64881,308.962184 1552.88665,308.670297 C1543.97449,308.597971 1538.75199,311.29986 1535.86216,320.833963 C1531.05073,336.71208 1524.99125,352.187239 1519.20911,367.73214 C1512.54046,385.666379 1500.16148,393.428497 1486.52455,388.587829 C1472.50628,383.61284 1467.18473,370.06465 1473.86328,351.600882 C1502.43472,272.587424 1531.61532,193.814192 1560.26352,114.831731 C1568.44271,92.2815499 1584.43954,83.3338033 1611.72578,83.0186691 Z" id="Fill-6" fill="#FF1E00"></path>
            <path d="M490.339322,240.236698 C490.339322,248.825601 490.297695,257.414504 490.346668,266.003407 C490.459308,285.617563 498.997872,297.467782 516.263549,302.052642 C532.177552,306.280274 548.280104,299.392703 556.301996,283.188923 C568.697239,258.162371 568.031196,232.208052 556.708478,207.15066 C549.093068,190.301812 531.347448,185.770922 509.581088,190.342932 C490.887828,194.269875 488.657076,206.806281 490.25117,223.069171 C490.807021,228.733427 490.339322,234.510762 490.339322,240.236698 Z M490.331976,337.611009 C490.331976,356.544118 490.53032,373.642255 490.278105,390.730111 C490.020993,408.167486 480.593557,419.652767 466.812358,419.992005 C452.237786,420.349234 442.210421,408.709754 442.166345,390.092754 C441.990039,315.773813 441.894541,241.452302 442.188383,167.130792 C442.288779,142.268718 460.746966,131.641814 481.266945,143.404654 C484.819987,145.440085 490.474,146.840729 493.84339,145.321865 C538.504954,125.188572 601.658986,145.661104 609.800863,218.127083 C612.798054,244.785578 610.425278,270.536867 599.856754,295.226751 C578.136919,345.976323 540.157816,361.442517 490.331976,337.611009 Z" id="Fill-7" fill="#1A1919"></path>
            <path d="M1313.5678,227.635472 C1346.33765,227.635472 1378.02459,227.635472 1410.01357,227.635472 C1403.44487,196.742092 1385.17527,182.731734 1356.29753,184.965456 C1329.50703,187.036866 1315.39967,200.87203 1313.5678,227.635472 Z M1322.01012,288.487007 C1337.0015,293.974698 1351.66628,301.152495 1367.08248,304.419345 C1379.53724,307.057559 1388.07778,310.414583 1387.41968,325.334404 C1386.75667,340.303175 1379.15416,348.174018 1364.91419,349.593604 C1317.79141,354.298075 1272.17882,317.605262 1266.98033,268.213468 C1264.98148,249.246153 1266.05458,229.042176 1270.05964,210.427826 C1280.68253,161.048914 1316.19037,137.111761 1371.44852,139.116186 C1414.6178,140.682625 1449.34476,171.792421 1456.76801,217.239776 C1459.42005,233.486433 1458.61953,250.328233 1459.9038,266.855715 C1460.75835,277.856861 1455.89382,280.363679 1446.33667,280.2632 C1408.62371,279.869014 1370.90584,280.126652 1333.19042,280.224555 C1330.13321,280.232284 1327.076,280.858344 1324.01879,281.19585 C1323.35087,283.625377 1322.68049,286.05748 1322.01012,288.487007 Z" id="Fill-8" fill="#1A1919"></path>
            <path d="M786.985981,227.942716 C784.343974,197.152138 762.295362,180.716088 730.878296,184.549794 C705.145102,187.691374 690.642277,204.122279 693.294096,227.942716 C724.092976,227.942716 754.972808,227.942716 786.985981,227.942716 Z M697.523269,278.539919 C712.815998,296.936562 728.668038,302.056747 745.447356,303.893839 C758.377734,305.308965 765.869553,309.971163 765.096821,325.069276 C764.304464,340.537894 756.716974,347.531192 742.479085,348.681304 C681.906728,353.569922 637.063755,301.637355 643.640561,232.795313 C650.828193,157.544035 702.387799,126.663404 769.173901,141.699765 C806.841507,150.180232 832.636029,183.819074 836.269095,225.24883 C837.755684,242.225201 836.514407,259.464014 836.514407,278.539919 C791.394232,278.539919 746.902055,278.539919 697.523269,278.539919 Z" id="Fill-9" fill="#1A1919"></path>
            <path d="M1102.81027,187.961658 C1102.81027,218.179148 1102.82017,248.934216 1102.8078,279.689284 C1102.80037,294.010954 1103.02808,308.337769 1102.64939,322.649151 C1102.23111,338.398359 1093.33826,348.311383 1079.85667,348.905547 C1066.38993,349.499712 1055.35617,338.663289 1055.21756,322.674873 C1054.81166,276.281199 1055.09629,229.879809 1055.10619,183.480992 C1055.11114,169.311077 1055.10866,155.141163 1055.10866,139.81893 C1099.09027,139.81893 1141.48785,137.540015 1183.52408,140.585427 C1213.75184,142.77689 1238.26967,173.928067 1239.26712,206.1081 C1240.46999,245.01942 1239.92053,284.002761 1239.52205,322.950092 C1239.36612,338.41122 1229.53028,348.545448 1216.31847,348.987856 C1203.35664,349.42512 1192.3897,338.009966 1192.14715,321.905803 C1191.65214,289.262785 1192.02587,256.606907 1191.99122,223.956173 C1191.96399,195.75524 1182.63801,185.633872 1155.50158,185.106584 C1140.08203,184.808215 1124.64267,185.253195 1109.2157,185.515554 C1107.69602,185.541275 1106.19366,186.62929 1102.81027,187.961658" id="Fill-10" fill="#1A1919"></path>
            <path d="M1814.92259,234.154278 C1814.90782,272.600038 1815.02846,311.045798 1814.85365,349.491558 C1814.76748,368.759584 1806.90603,379.465475 1793.21682,379.981422 C1778.8013,380.520586 1769.47491,369.298748 1769.3912,349.648922 C1769.07359,275.633804 1768.84954,201.616106 1769.12284,127.600989 C1769.22132,100.73823 1776.94489,89.0778366 1792.28862,89.0004446 C1808.54086,88.9153135 1815.17618,101.050377 1814.99645,129.146249 C1814.76994,164.145486 1814.93982,199.149882 1814.92259,234.154278" id="Fill-11" fill="#FF1E00"></path>
            <path d="M873.072519,217.264374 C873.065026,184.559512 872.977609,151.857229 873.099993,119.152367 C873.172425,99.4412256 881.686895,88.3461307 896.557871,88.008196 C912.175643,87.6547833 920.92739,98.7395595 920.944873,119.567691 C921.007314,187.270729 920.824986,254.973766 920.999821,322.674224 C921.034788,335.923331 915.937096,346.487017 903.48384,347.874871 C895.431434,348.772591 885.211072,344.727692 878.729684,339.341373 C874.351313,335.70148 873.422189,325.898792 873.312293,318.815061 C872.792783,284.972571 873.080012,251.114603 873.072519,217.264374" id="Fill-12" fill="#1A1919"></path>
            <path d="M364.077066,242.834399 C364.079555,217.618721 363.870464,192.403042 364.146763,167.192507 C364.353365,148.580996 372.759328,139.137653 388.321684,139.001352 C402.968022,138.872767 412.42193,147.914921 412.601151,165.407736 C413.141303,217.546713 413.143792,269.698548 412.541411,321.834953 C412.344765,338.890576 402.114233,348.992278 388.351554,348.999993 C374.031299,349.01028 364.33843,337.872176 364.146763,320.199342 C363.865486,294.412742 364.074577,268.623571 364.077066,242.834399" id="Fill-13" fill="#1A1919"></path>
            <path d="M1006.93757,244.563701 C1006.93757,269.7672 1007.11197,294.975842 1006.87778,320.17677 C1006.71583,338.019501 997.450102,348.807411 982.847669,348.997665 C968.651343,349.185348 959.178821,338.047782 959.121518,320.081643 C958.959573,269.101311 958.952099,218.118409 959.143941,167.138077 C959.213702,148.107545 967.208789,139.119334 983.076883,139.001068 C998.583715,138.885373 1006.64358,148.169249 1006.81051,167.233204 C1007.03972,193.007465 1006.86781,218.786868 1006.86781,244.563701 C1006.89023,244.563701 1006.91515,244.563701 1006.93757,244.563701" id="Fill-14" fill="#1A1919"></path>
            <path d="M1006.99789,104.576221 C1007.17178,119.159345 996.586846,130.984002 983.343075,130.999978 C970.099303,131.018616 959.060726,119.247211 959.000241,105.042178 C958.939755,91.1513341 970.29084,78.2483187 982.791146,78.0033585 C995.077233,77.7610608 1006.83155,90.6667388 1006.99789,104.576221" id="Fill-15" fill="#1A1919"></path>
            <path d="M411.99855,103.954654 C412.142394,118.683201 401.566067,130.179358 388.042198,129.997881 C374.803494,129.819034 363.666932,117.58382 364.007615,103.589071 C364.320539,90.7357834 375.82302,78.2086284 387.499628,78.0034808 C400.904889,77.7694021 411.859753,89.3707627 411.99855,103.954654" id="Fill-16" fill="#1A1919"></path>
            <path d="M975.533968,538.333578 C868.027025,538.333578 760.51762,538.27164 653.008214,538.351644 C559.740341,538.421324 490.878783,610.509666 490.844318,708.183652 C490.770464,911.165509 490.745846,1114.14737 490.829547,1317.12664 C490.866474,1412.38504 558.243564,1485.95216 648.734524,1486.32378 C865.395357,1487.20898 1082.06111,1487.21157 1298.72195,1486.3883 C1388.62207,1486.04506 1456.21826,1413.25992 1456.38321,1318.97705 C1456.73524,1115.42226 1456.65154,911.867476 1456.6737,708.31269 C1456.68355,610.427081 1388.1174,538.43939 1294.76829,538.351644 C1188.35685,538.250994 1081.94541,538.328417 975.533968,538.333578 Z M972.638887,1505.96078 C865.63169,1505.96078 758.624493,1506.0382 651.617296,1505.93497 C551.833029,1505.83948 474.653038,1429.8542 473.249811,1325.13216 C471.176972,1170.41566 472.324173,1015.6527 472.255242,860.907808 C472.233086,805.11696 471.664409,749.295143 473.097179,693.537844 C475.499899,600.109207 551.633623,519.33145 640.75582,518.859171 C863.544081,517.679764 1086.34711,517.731379 1309.13537,518.910786 C1392.91546,519.354677 1468.39434,597.642001 1474.4036,685.586526 C1474.99198,694.180453 1474.97474,702.831158 1474.9772,711.456054 C1474.9969,913.950148 1475.02644,1116.44682 1474.95259,1318.94092 C1474.9132,1424.93011 1397.94,1505.80851 1296.95437,1505.93239 C1188.84921,1506.06401 1080.74405,1505.96336 972.638887,1505.96078 Z" id="Fill-17" fill="#1A1919"></path>
            <path d="M766.331318,765.119727 C801.663269,722.806309 797.518744,669.576543 760.153956,635.18657 C718.79495,597.119974 653.482956,601.387437 616.337468,644.583245 C584.765651,681.297877 587.461317,736.145356 622.49019,769.722602 C660.618832,806.272107 724.684019,808.230393 757.441041,771.239693 C751.453411,765.79829 745.315473,760.230464 739.184927,754.654897 C725.590787,742.285962 716.66355,723.670638 691.52782,732.597737 C676.011725,738.106222 662.149004,721.144733 661.971593,704.0594 C661.786789,686.287764 674.678676,673.707262 692.91015,673.862067 C710.969141,674.019452 723.681152,686.589634 724.085256,704.392231 C724.193674,709.222153 723.385467,715.533045 725.874153,718.603348 C738.549204,734.238672 752.167984,749.035468 766.331318,765.119727 Z M1188.36074,773.350203 C1230.85567,811.009146 1296.64569,803.328229 1330.19613,761.203156 C1362.33714,720.845443 1356.01687,665.365842 1315.45128,631.773116 C1272.96867,596.596216 1205.94909,603.959783 1173.41384,647.380059 C1144.83583,685.513738 1147.77051,738.782204 1181.25689,765.372576 C1194.43461,742.469148 1226.05324,734.032265 1222.73664,697.588543 C1221.24343,681.161132 1240.76113,671.098795 1258.53183,674.318743 C1274.59001,677.22908 1284.72956,691.109946 1282.83471,707.591538 C1280.94725,724.011209 1267.37775,734.326395 1249.66866,733.712334 C1242.71266,733.469806 1233.90862,732.460992 1229.04952,736.212438 C1215.01432,747.043641 1202.5561,760.11694 1188.36074,773.350203 Z M965.473023,1206.62929 C911.951488,1203.91762 865.196222,1260.40862 875.101685,1313.05012 C883.297101,1356.60198 920.275034,1389.77674 963.440186,1392.30522 C1012.29728,1395.16912 1053.52816,1368.21753 1066.99663,1324.61665 C1084.52832,1267.86507 1037.5365,1202.99653 979.456482,1206.70154 C979.456482,1223.04638 978.739445,1239.6157 979.855658,1256.04827 C980.235121,1261.60836 984.07164,1268.48945 988.391112,1271.87968 C1000.14215,1281.10091 1006.77289,1291.77731 1002.13309,1307.23203 C997.774198,1321.74759 986.619463,1328.35004 973.190414,1328.58998 C959.066505,1328.84025 947.207053,1322.25329 942.764379,1307.05916 C938.311848,1291.83149 944.255126,1280.53329 956.806975,1271.89516 C960.65335,1269.24799 964.834835,1263.76273 965.083704,1259.34562 C966.042218,1242.22417 965.473023,1225.00983 965.473023,1206.62929 Z M1168.7149,792.347381 C1136.52954,827.771968 1103.01605,864.896833 1069.22413,901.737889 C1054.39797,917.902131 1039.02971,933.521975 1023.84873,949.327585 C1013.48742,960.109766 1001.1869,969.243273 1001.01688,987.221316 C1000.97499,991.51974 996.872357,998.021558 993.119615,999.634112 C977.82282,1006.20817 979.219934,1019.08022 979.311104,1032.43217 C979.616645,1076.12594 979.43677,1119.82228 979.441698,1163.51863 C979.441698,1169.12516 979.441698,1174.73426 979.441698,1175.9211 C1003.5647,1186.70845 1026.68485,1192.74843 1045.03952,1206.01523 C1114.67345,1256.36046 1105.63533,1362.67809 1029.32384,1401.1446 C984.635906,1423.67133 940.56645,1420.77389 899.78403,1391.1158 C865.058235,1365.86191 849.207029,1329.93421 853.477221,1285.39933 C858.144123,1236.7518 896.023897,1195.34141 944.745471,1184.8611 C951.119957,1183.4885 957.526476,1182.28876 965.458239,1180.702 C965.458239,1149.03402 965.455775,1118.10394 965.458239,1087.17387 C965.460703,1069.92599 965.229083,1052.67295 965.549409,1035.43023 C965.813062,1021.15977 967.757194,1006.86609 951.336793,999.363203 C947.650581,997.678406 943.695788,990.993402 943.836238,986.75948 C944.402969,969.929576 933.24577,961.046338 923.806011,950.950459 C875.417083,899.199084 826.919737,847.558652 778.419926,795.9208 C776.939035,794.344368 775.039255,793.198809 773.472122,791.960368 C701.827531,844.994046 625.705769,816.19512 593.498228,769.707121 C561.877131,724.067971 567.233966,661.217063 606.845964,622.239696 C652.829984,576.987559 725.588323,575.160857 774.00682,617.665203 C811.349432,650.442622 832.365277,717.524871 784.168545,781.30719 C839.791911,837.132522 895.577904,893.11782 953.036985,950.782754 C963.745727,943.163758 980.020749,940.583672 996.559423,955.416589 C1050.66494,896.729941 1104.30475,838.54899 1159.41313,778.776125 C1137.99072,752.884957 1126.43927,718.329858 1135.20634,678.4185 C1141.38617,650.290397 1156.67557,628.233237 1178.67211,611.405913 C1226.61504,574.727403 1297.43664,580.135264 1339.20468,623.289791 C1377.43681,662.788336 1382.84539,722.886291 1352.24688,768.17197 C1313.98764,824.791969 1251.97993,834.206704 1168.7149,792.347381 Z" id="Fill-18" fill="#1A1919"></path>
            <path d="M723,701.501267 C723,719.448555 709.120161,734 692.001209,734 C674.879839,734 661,719.448555 661,701.501267 C661,683.551445 674.879839,669 692.001209,669 C709.120161,669 723,683.551445 723,701.501267" id="Fill-19" fill="#1A1919"></path>
            <path d="M1003,1298.5 C1003,1316.44912 989.122037,1331 972,1331 C954.877963,1331 941,1316.44912 941,1298.5 C941,1280.55088 954.877963,1266 972,1266 C989.122037,1266 1003,1280.55088 1003,1298.5" id="Fill-20" fill="#1A1919"></path>
            <path d="M1284,701.501267 C1284,719.448555 1270.12258,734 1253.00121,734 C1235.87984,734 1222,719.448555 1222,701.501267 C1222,683.551445 1235.87984,669 1253.00121,669 C1270.12258,669 1284,683.551445 1284,701.501267" id="Fill-21" fill="#1A1919"></path>
            <path d="M1008,977.99869 C1008,997.880089 992.77948,1014 974.001237,1014 C955.222994,1014 940,997.880089 940,977.99869 C940,958.119911 955.222994,942 974.001237,942 C992.77948,942 1008,958.119911 1008,977.99869" id="Fill-22" fill="#1A1919"></path>
        </g>
        <g id="chart-line-solid" transform="translate(432.000000, 4178.000000)" fill="#FFFFFF" fill-rule="nonzero">
            <path d="M339.0625,250 L43.75,250 L43.75,12.5 C43.75,5.59375 38.8554688,0 32.8125,0 L10.9375,0 C4.89453125,0 0,5.59375 0,12.5 L0,275 C0,288.804688 9.79589844,300 21.875,300 L339.0625,300 C345.105469,300 350,294.40625 350,287.5 L350,262.5 C350,255.59375 345.105469,250 339.0625,250 Z M317.1875,25 L236.482422,25 C221.867188,25 214.545898,45.1953125 224.881836,57.0078125 L247.030273,82.3203125 L196.875,139.648438 L146.719727,82.328125 C138.174805,72.5625 124.325195,72.5625 115.787109,82.328125 L68.8310547,135.992188 C64.5585938,140.875 64.5585938,148.789062 68.8310547,153.671875 L84.2939453,171.34375 C88.5664063,176.226562 95.4912109,176.226562 99.7636719,171.34375 L131.25,135.351562 L181.405273,192.671875 C189.950195,202.4375 203.799805,202.4375 212.337891,192.671875 L277.962891,117.671875 L300.111328,142.984375 C310.447266,154.796875 328.118164,146.429688 328.118164,129.726562 L328.118164,37.5 C328.125,30.59375 323.230469,25 317.1875,25 Z" id="Shape"></path>
        </g>
    </g>
</svg>