<?xml version="1.0" encoding="UTF-8"?>
<svg width="1795px" height="1601px" viewBox="0 0 1795 1601" version="1.1" xmlns="http://www.w3.org/2000/svg" xmlns:xlink="http://www.w3.org/1999/xlink">
    <!-- Generator: Sketch 51.3 (57544) - http://www.bohemiancoding.com/sketch -->
    <title>pipelineai-logo-new-black-background</title>
    <desc>Created with Sketch.</desc>
    <defs></defs>
    <g id="Page-1" stroke="none" stroke-width="1" fill="none" fill-rule="evenodd">
        <g id="Pipeline-AI" transform="translate(3.000000, 3.000000)">
            <g id="Group-3" stroke="#000000" stroke-width="5">
                <path d="M917.077085,1594.61318 C1027.09175,1594.61318 1137.10409,1594.65227 1247.11642,1594.60585 C1418.70534,1594.53255 1555.75761,1452.11165 1556.06559,1272.81503 C1556.42725,1064.80311 1556.26625,856.788748 1556.15659,648.77194 C1556.11226,568.697441 1531.3519,497.997625 1481.85218,436.77755 C1478.17966,432.235581 1473.23552,422.360035 1474.56547,420.986939 C1479.6776,415.699784 1486.84299,410.427288 1493.71905,409.616135 C1508.13848,407.918089 1522.94057,408.076899 1537.42999,409.388915 C1545.78533,410.143873 1555.25363,412.657959 1561.77504,417.788748 C1592.03951,441.602934 1624.22424,445.33375 1659.21587,431.949723 C1664.24867,430.024456 1670.40843,429.352567 1675.66055,430.344519 C1735.14188,441.566285 1786.89084,399.999572 1787.9898,337.169407 C1789.34308,259.667632 1788.93009,182.114549 1788.13446,104.59567 C1787.71447,63.6519815 1763.35077,27.9416965 1728.03716,15.1806936 C1689.95632,1.42285182 1655.78833,9.83245781 1628.28875,40.939693 C1618.23481,52.3104966 1612.47171,50.1262468 1603.26474,40.3459875 C1574.11322,9.38290304 1538.49162,-1.82420406 1497.5829,5.74004351 C1454.10994,13.7807214 1426.05971,41.2744158 1409.56136,82.9706202 C1404.78055,95.0621775 1399.48409,99.0641922 1387.41657,90.2978743 C1327.59692,46.8352128 1265.28538,45.8847954 1201.83287,81.0746719 C1193.03655,85.953807 1186.68547,87.2438337 1177.84715,80.7863705 C1154.5334,63.7570405 1127.99511,56.676553 1099.64623,56.7938281 C1075.66517,56.8964439 1051.67479,56.5592778 1027.70306,57.1823021 C1016.71816,57.4681603 1009.84443,53.6029666 1003.54235,43.6663403 C977.683032,2.89123451 932.044829,-9.97727064 889.386175,9.51239436 C883.340746,12.273247 875.330728,13.1503674 868.897981,11.6868712 C829.361205,2.70554884 792.022341,17.5897207 770.036207,53.7251282 C763.498464,64.4704644 757.359706,66.8037513 745.782162,63.5322631 C705.806736,52.2445293 664.823349,52.1199245 628.55311,72.8678542 C603.491764,87.2022988 585.698464,89.8263304 560.835443,72.4622776 C535.246784,54.5900325 503.5147,55.0713493 472.837241,58.5187502 C460.709052,59.8845171 448.741856,61.4579588 439.966535,47.0453308 C408.124789,-5.25694561 350.477392,-14.8466328 303.723899,23.9445683 C296.343856,30.0648655 291.105729,29.8376448 282.806389,26.1214883 C265.25108,18.25428 247.168459,7.78014257 228.798849,6.54142374 C177.404539,3.07203371 125.753572,3.12089835 74.2029353,2.99385027 C29.3230355,2.88390481 0.719828321,33.087144 0.554168176,79.8750448 C0.26017975,163.401831 0.425839895,246.933505 0.575167349,330.460291 C0.626498662,358.972814 9.67247585,384.121005 29.0500463,404.353412 C80.2740296,457.83577 167.495262,433.273955 185.932536,359.857264 C189.045081,347.462746 193.814226,343.636644 205.846752,342.67401 C222.795419,341.318016 239.830415,337.606746 256.165438,332.554141 C267.542324,329.035887 273.256432,330.643534 277.862251,342.468779 C288.966147,370.971528 309.405342,389.227361 337.460237,398.316185 C359.542035,405.46997 364.703165,423.945693 350.155404,442.646194 C304.736526,501.029676 280.636475,567.913163 280.480147,643.203814 C280.041498,854.494553 280.104496,1065.78529 280.802135,1277.07359 C280.883798,1301.38131 283.942678,1326.25341 289.491126,1349.87214 C323.575117,1494.93907 445.979298,1594.55943 588.601017,1594.60585 C698.093039,1594.64494 807.585062,1594.61318 917.077085,1594.61318 Z" id="Fill-1"></path>
            </g>
            <path d="M924.013099,455.967302 C815.720038,455.967302 707.426978,455.827967 599.136254,456.133525 C584.650138,456.175081 569.787851,456.717751 555.745664,460.025108 C467.553258,480.803032 410.627496,555.764893 410.566748,650.602672 C410.435905,854.866776 410.517682,1059.12844 410.541047,1263.39254 C410.541047,1269.37903 410.667216,1275.38263 411.073762,1281.352 C418.066817,1384.31761 496.679696,1460.63126 595.381546,1460.60193 C811.965331,1460.53104 1028.55145,1460.58237 1245.13524,1460.57748 C1355.14327,1460.5726 1434.51316,1378.20646 1434.62064,1263.23854 C1434.81457,1059.52199 1434.78419,855.803005 1434.58793,652.08646 C1434.47811,538.95433 1355.09887,456.040636 1247.32918,455.979524 C1139.55715,455.918412 1031.78513,455.964857 924.013099,455.967302 Z M923.424308,1519.89235 C813.563476,1519.89724 703.702644,1520.15635 593.841812,1519.81901 C490.850203,1519.50123 401.29797,1454.27077 368.157476,1353.14584 C359.711136,1327.36655 354.998475,1298.9399 354.858287,1271.69393 C353.781174,1061.97868 353.825567,852.253647 354.400339,642.531059 C354.771838,506.596991 460.480762,397.146221 592.764699,396.632884 C813.002723,395.774878 1033.25009,395.799323 1253.48812,396.645106 C1386.23701,397.153554 1490.86649,508.513449 1490.93424,647.131536 C1491.03939,854.676108 1490.99733,1062.21824 1490.95294,1269.76281 C1490.92256,1407.82845 1384.99401,1519.37168 1253.0068,1519.81168 C1143.14831,1520.18324 1033.28514,1519.8899 923.424308,1519.89235 Z" id="Fill-4" fill="#1A1919"></path>
            <path d="M125.470268,132.576773 C125.470268,163.092546 125.470268,191.198471 125.470268,220.630424 C155.861982,220.630424 185.369903,221.770514 214.74957,220.234083 C234.808614,219.184515 249.89837,198.890413 250.047611,177.319213 C250.201517,155.104572 236.294038,134.362752 216.300287,133.075869 C186.461235,131.15533 156.423971,132.576773 125.470268,132.576773 Z M124.425575,272.751647 C124.425575,294.861087 124.849981,314.910534 124.29732,334.928177 C123.814616,352.367159 114.496324,361.898904 99.387914,361.999212 C84.3564565,362.099521 74.3269345,352.619153 74.240654,335.180171 C73.8349026,251.782298 74.0494378,168.379533 74.119395,84.9792139 C74.1217269,82.9387942 75.0055187,80.9008211 75.903302,77.0352779 C117.383222,77.0352779 158.800181,76.9031643 200.212477,77.1502655 C208.453428,77.1991965 216.843621,77.9209276 224.900351,79.6677617 C271.531449,89.7866775 303.420246,135.197025 298.499927,183.912656 C293.369737,234.705405 254.753395,272.157137 206.569249,272.697823 C180.120786,272.996302 153.665327,272.751647 124.425575,272.751647 Z" id="Fill-5" fill="#1A1919"></path>
            <path d="M1477.27663,241.89807 C1508.08245,241.89807 1534.76237,241.89807 1564.56136,241.89807 C1550.39294,202.786605 1537.05063,165.959539 1523.71067,129.132474 C1522.03731,129.316107 1520.3616,129.499741 1518.68589,129.683374 C1505.19807,166.233765 1491.70791,202.789053 1477.27663,241.89807 Z M1526.37444,79.0176961 C1541.23521,78.5475946 1556.4222,87.435451 1563.47943,106.675334 C1591.29995,182.530617 1618.46804,258.650332 1645.45071,334.833707 C1650.15631,348.114074 1643.68816,361.240189 1632.19289,365.786952 C1620.55915,370.385133 1608.61327,364.998553 1602.99237,351.155043 C1597.09218,336.625969 1591.98995,321.69535 1587.41813,306.652102 C1584.46334,296.929326 1579.67326,292.571093 1569.45002,292.744933 C1536.51083,293.298281 1503.55522,293.185653 1470.60899,292.908979 C1462.16239,292.840422 1457.21271,295.401496 1454.47384,304.438707 C1449.91375,319.489301 1444.17081,334.157936 1438.69072,348.89268 C1432.37043,365.892235 1420.63812,373.249813 1407.71357,368.661427 C1394.42759,363.945721 1389.38403,351.103626 1395.71371,333.602139 C1422.79261,258.706647 1450.44885,184.038859 1477.6005,109.172748 C1485.35242,87.7978209 1500.5136,79.3164064 1526.37444,79.0176961 Z" id="Fill-6" fill="#FF1E00"></path>
            <path d="M464.765039,227.798575 C464.765039,235.930622 464.725628,244.062668 464.771994,252.194715 C464.878635,270.765565 472.962482,281.985453 489.308686,286.326438 C504.375197,290.329195 519.620217,283.807985 527.214907,268.466108 C538.950049,244.770755 538.319476,220.196985 527.599742,196.472433 C520.389886,180.519801 503.5893,176.229915 482.982095,180.558733 C465.284334,184.276797 463.17238,196.146373 464.681581,211.544215 C465.207831,216.907181 464.765039,222.377211 464.765039,227.798575 Z M464.758084,319.993402 C464.758084,337.919431 464.945865,354.108092 464.707082,370.28702 C464.463662,386.796875 455.538278,397.671237 442.49099,397.992431 C428.692578,398.330658 419.199215,387.310299 419.157486,369.683565 C418.99057,299.317759 418.900157,228.94952 419.178351,158.581281 C419.2734,135.041659 436.748606,124.980015 456.175806,136.117172 C459.539632,138.044336 464.892544,139.370477 468.0825,137.932404 C510.365637,118.870031 570.156436,138.253598 577.864723,206.865004 C580.702299,232.105494 578.455884,256.487034 568.450181,279.863626 C547.887024,327.913753 511.930477,342.557277 464.758084,319.993402 Z" id="Fill-7" fill="#1A1919"></path>
            <path d="M1244.11585,216.014666 C1275.19654,216.014666 1305.25013,216.014666 1335.59019,216.014666 C1329.36008,186.731841 1312.03222,173.45188 1284.64302,175.569152 C1259.23348,177.532574 1245.85329,190.646474 1244.11585,216.014666 Z M1252.123,273.693846 C1266.34163,278.895449 1280.2505,285.699047 1294.87204,288.795588 C1306.6848,291.296265 1314.78511,294.478278 1314.16093,308.620288 C1313.5321,322.808697 1306.32147,330.269212 1292.81552,331.614791 C1248.12175,336.074005 1204.86032,301.294087 1199.9298,254.477221 C1198.03398,236.498724 1199.05176,217.348034 1202.85038,199.7041 C1212.9257,152.899445 1246.60323,130.2102 1299.01303,132.110128 C1339.95709,133.594905 1372.894,163.082864 1379.93461,206.160926 C1382.44995,221.5606 1381.69069,237.524392 1382.90876,253.190251 C1383.71926,263.617877 1379.10548,265.994009 1370.04096,265.898768 C1334.27197,265.525132 1298.49832,265.769339 1262.727,265.862137 C1259.82737,265.869463 1256.92775,266.462886 1254.02813,266.782796 C1253.39464,269.085665 1252.75882,271.390977 1252.123,273.693846 Z" id="Fill-8" fill="#1A1919"></path>
            <path d="M745.564023,216.253759 C743.058202,187.068377 722.146116,171.489183 692.348487,175.123027 C667.941747,178.100829 654.186489,193.675146 656.701617,216.253759 C685.912925,216.253759 715.201014,216.253759 745.564023,216.253759 Z M660.712791,264.213193 C675.217236,281.65077 690.25216,286.504026 706.166565,288.245345 C718.430428,289.586697 725.536071,294.005842 724.80317,308.316849 C724.051657,322.979047 716.855275,329.607765 703.351297,330.697918 C645.901227,335.33168 603.369747,286.106498 609.607543,220.853378 C616.424678,149.525152 665.326573,120.254411 728.670091,134.506886 C764.396069,142.545244 788.860976,174.430402 792.306771,213.700313 C793.716731,229.79166 792.539437,246.131767 792.539437,264.213193 C749.745044,264.213193 707.546279,264.213193 660.712791,264.213193 Z" id="Fill-9" fill="#1A1919"></path>
            <path d="M1044.22593,178.397 C1044.22593,207.031669 1044.2353,236.175757 1044.22359,265.319845 C1044.21657,278.891333 1044.43196,292.467696 1044.07375,306.029434 C1043.67808,320.953683 1035.26592,330.347454 1022.51307,330.910495 C1009.77426,331.473536 999.336915,321.204736 999.205805,306.053808 C998.821838,262.090279 999.091083,218.119438 999.100448,174.151035 C999.10513,160.723354 999.102789,147.295673 999.102789,132.776034 C1040.70702,132.776034 1080.81284,130.61649 1120.57683,133.502381 C1149.17066,135.579053 1172.36321,165.098502 1173.30673,195.592913 C1174.44459,232.466022 1173.92483,269.407378 1173.54788,306.314611 C1173.40038,320.96587 1164.09621,330.569258 1151.59855,330.988492 C1139.33736,331.402851 1128.96323,320.585635 1128.73379,305.325023 C1128.26553,274.391878 1128.61907,243.446545 1128.58629,212.506088 C1128.56053,185.782346 1119.73866,176.191145 1094.06906,175.691477 C1079.483,175.408737 1064.87821,175.830409 1050.28512,176.079025 C1048.84758,176.103399 1047.42644,177.134422 1044.22593,178.397" id="Fill-10" fill="#1A1919"></path>
            <path d="M1718.92595,221.672099 C1718.91182,258.136119 1719.02722,294.600138 1718.86001,331.064158 C1718.77759,349.338986 1711.25794,359.493028 1698.16392,359.982379 C1684.37516,360.493752 1675.45427,349.850359 1675.37419,331.21341 C1675.07039,261.013505 1674.85608,190.811153 1675.11749,120.611247 C1675.2117,95.1331661 1682.59946,84.0738244 1697.27607,84.0004217 C1712.82169,83.9196787 1719.16852,95.4292237 1718.99661,122.076854 C1718.77994,155.272007 1718.94244,188.472053 1718.92595,221.672099" id="Fill-11" fill="#FF1E00"></path>
            <path d="M827.067987,205.303985 C827.060962,174.360154 826.979008,143.418763 827.093744,112.474932 C827.161648,93.8251596 835.143964,83.3274929 849.085504,83.0077546 C863.727165,82.6733719 871.931928,93.1612755 871.948319,112.867893 C872.006857,176.925382 871.835925,240.982871 871.999833,305.03792 C872.032614,317.573613 867.253527,327.568485 855.5786,328.881609 C848.029469,329.73099 838.44788,325.903893 832.371579,320.807607 C828.266856,317.363708 827.395802,308.088858 827.292775,301.386557 C826.805734,269.366355 827.075011,237.331509 827.067987,205.303985" id="Fill-12" fill="#1A1919"></path>
            <path d="M345.072348,230.395455 C345.074684,206.500597 344.878395,182.60574 345.137777,158.715757 C345.33173,141.079134 353.223042,132.130443 367.832601,132.001282 C381.582225,131.879431 390.457322,140.447949 390.62557,157.024473 C391.132652,206.432361 391.134989,255.852434 390.569487,305.257884 C390.384882,321.420117 380.780709,330.992682 367.860643,330.999993 C354.417138,331.009741 345.31771,320.455062 345.137777,303.707948 C344.873721,279.272075 345.070011,254.833765 345.072348,230.395455" id="Fill-13" fill="#1A1919"></path>
            <path d="M952.941474,232.034173 C952.941474,255.91749 953.104976,279.805678 952.885416,303.686558 C952.733593,320.59467 944.046971,330.817499 930.357189,330.997787 C917.048134,331.175639 908.167645,320.621469 908.113923,303.596414 C907.9621,255.286481 907.955093,206.974111 908.134945,158.664178 C908.200345,140.630483 915.69574,132.113083 930.572078,132.001012 C945.109733,131.891377 952.665857,140.688955 952.822351,158.754322 C953.03724,183.178503 952.876073,207.607556 952.876073,232.034173 C952.897095,232.034173 952.920453,232.034173 952.941474,232.034173" id="Fill-14" fill="#1A1919"></path>
            <path d="M952.99802,99.0719069 C953.161047,112.82957 943.237669,123.984908 930.821632,123.999979 C918.405596,124.017562 908.056931,112.912463 908.000226,99.511489 C907.943521,86.4069189 918.585162,74.2342629 930.304199,74.0031683 C941.822406,73.7745857 952.842081,85.9497536 952.99802,99.0719069" id="Fill-15" fill="#1A1919"></path>
            <path d="M389.998641,98.4572702 C390.133495,112.336093 380.218188,123.16901 367.539561,122.998003 C355.128275,122.829475 344.687749,111.300138 345.007139,98.112778 C345.300506,86.0010267 356.084082,74.1965921 367.030902,74.00328 C379.598334,73.7827058 389.868519,84.7147572 389.998641,98.4572702" id="Fill-16" fill="#1A1919"></path>
            <path d="M923.92649,510.26339 C822.100372,510.26339 720.271923,510.204712 618.443473,510.280505 C530.104011,510.346518 464.8812,578.640736 464.848556,671.173986 C464.778605,863.472588 464.755287,1055.77119 464.834566,1248.06735 C464.869542,1338.31214 528.686327,1408.0073 614.395611,1408.35937 C819.607766,1409.19799 1024.82458,1409.20043 1230.03674,1408.4205 C1315.18641,1408.09532 1379.21072,1339.14097 1379.36694,1249.82036 C1379.70038,1056.97898 1379.6211,864.137608 1379.64209,671.296232 C1379.65141,578.562498 1314.70841,510.363632 1226.292,510.280505 C1125.5035,510.185152 1024.71499,510.2585 923.92649,510.26339 Z M921.18439,1426.96284 C819.831611,1426.96284 718.478832,1427.03619 617.126053,1426.93839 C522.614534,1426.84793 449.512848,1354.86187 448.183769,1255.65152 C446.220462,1109.07799 447.307043,962.460452 447.241755,815.860029 C447.220769,763.005541 446.682143,710.121714 448.039202,657.29901 C450.314959,568.78767 522.425665,492.261374 606.838514,491.813951 C817.854314,490.696619 1028.8841,490.745517 1239.89991,491.86285 C1319.25293,492.283378 1390.7434,566.450317 1396.43512,649.766182 C1396.9924,657.907798 1396.97608,666.103202 1396.97841,674.274157 C1396.99706,866.110667 1397.02504,1057.94962 1396.95509,1249.78613 C1396.91778,1350.19694 1324.01196,1426.81859 1228.36257,1426.93595 C1125.96984,1427.06064 1023.57712,1426.96529 921.18439,1426.96284 Z" id="Fill-17" fill="#1A1919"></path>
            <path d="M726.168721,724.665846 C759.643422,684.598254 755.716757,634.193711 720.316076,601.62902 C681.131135,565.582846 619.252312,569.623809 584.059403,610.526957 C554.147181,645.292923 556.701147,697.229318 589.888703,729.024418 C626.013086,763.634022 686.710641,765.48837 717.745768,730.460988 C712.072881,725.308393 706.257588,720.036084 700.449299,714.756446 C687.569745,703.044005 679.111774,685.416707 655.297322,693.869992 C640.596841,699.086109 627.462824,683.024868 627.294738,666.846356 C627.119649,650.017967 639.333865,638.105188 656.606988,638.251777 C673.716695,638.400808 685.760491,650.303815 686.143352,667.161522 C686.246071,671.735091 685.480348,677.711025 687.838215,680.618369 C699.846993,695.423833 712.749892,709.435274 726.168721,724.665846 Z M1126.01386,732.459481 C1166.27502,768.119638 1228.60674,760.846393 1260.39358,720.95715 C1290.84508,682.741463 1284.85703,630.206497 1246.42381,598.396738 C1206.17432,565.086887 1142.67768,572.059626 1111.85266,613.175327 C1084.77688,649.285023 1087.55729,699.726213 1119.28344,724.905274 C1131.76846,703.217468 1161.72504,695.228381 1158.58277,660.718946 C1157.16805,645.163436 1175.65979,635.635167 1192.49636,638.684213 C1207.71044,641.440082 1217.31699,654.584207 1215.52175,670.191022 C1213.7335,685.739203 1200.87729,695.5069 1184.09909,694.925431 C1177.50874,694.695775 1169.16749,693.740505 1164.56381,697.292839 C1151.26638,707.549166 1139.46304,719.928586 1126.01386,732.459481 Z M914.842401,1142.74185 C864.134263,1140.17411 819.836721,1193.66678 829.221496,1243.51429 C836.986114,1284.75459 872.020276,1316.16856 912.916421,1318.56284 C959.20531,1321.27474 998.268856,1295.75363 1011.02935,1254.46691 C1027.63947,1200.72748 983.117812,1139.3019 928.09081,1142.81026 C928.09081,1158.28759 927.411464,1173.97747 928.469002,1189.53787 C928.828519,1194.80285 932.463368,1201.31872 936.555784,1204.52901 C947.689117,1213.26081 953.971313,1223.37055 949.57541,1238.005 C945.445642,1251.75013 934.877263,1258.00214 922.154122,1258.22936 C908.772646,1258.46634 897.536595,1252.22899 893.327453,1237.8413 C889.108972,1223.42186 894.739838,1212.72332 906.63189,1204.54367 C910.276077,1202.037 914.23776,1196.84287 914.473547,1192.66021 C915.381676,1176.44749 914.842401,1160.14682 914.842401,1142.74185 Z M1107.40073,750.448364 C1076.90721,783.992757 1045.15538,819.147182 1013.13976,854.032862 C999.092942,869.339171 984.532532,884.129976 970.149546,899.096688 C960.332884,909.306594 948.678954,917.955331 948.517872,934.979171 C948.478185,939.049452 944.591207,945.206179 941.035731,946.733146 C926.543022,952.958281 927.866696,965.147136 927.953073,977.790416 C928.242554,1019.16509 928.072134,1060.54221 928.076803,1101.91933 C928.076803,1107.22828 928.076803,1112.53968 928.076803,1113.66353 C950.931767,1123.87832 972.83658,1129.59773 990.22643,1142.16038 C1056.2,1189.83349 1047.63698,1290.5082 975.336853,1326.93306 C932.997974,1348.26417 891.245059,1345.52052 852.606397,1317.43655 C819.705987,1293.52304 804.688012,1259.50224 808.733737,1217.3311 C813.155321,1171.26558 849.043917,1132.05309 895.204408,1122.12903 C901.243814,1120.82928 907.31357,1119.69321 914.828394,1118.19068 C914.828394,1088.20351 914.82606,1058.91507 914.828394,1029.62664 C914.830729,1013.29421 914.611284,996.956895 914.914771,980.629351 C915.164565,967.116312 917.006503,953.581284 901.449252,946.476615 C897.956808,944.881241 894.209902,938.55105 894.342969,934.541848 C894.879909,918.605207 884.309197,910.193456 875.365645,900.633426 C829.520315,851.628807 783.572266,802.729242 737.621882,753.832121 C736.218835,752.339359 734.418919,751.254602 732.934164,750.081892 C665.055621,800.300755 592.935253,773.030361 562.420725,729.009759 C532.461812,685.792952 537.537062,626.277919 575.066827,589.369314 C618.633664,546.518979 687.56741,544.789232 733.440755,585.037617 C768.820426,616.075342 788.731558,679.597134 743.068321,739.994143 C795.767806,792.85649 848.621369,845.870312 903.060072,900.474622 C913.205902,893.260012 928.625415,890.816866 944.294723,904.862512 C995.556142,849.290716 1046.37634,794.197777 1098.58791,737.597417 C1078.29158,713.080448 1067.34734,680.359395 1075.65357,642.566372 C1081.50855,615.931196 1095.99425,595.044742 1116.83453,579.110545 C1162.25731,544.378783 1229.35612,549.499617 1268.92859,590.363675 C1305.15102,627.765795 1310.2753,684.673991 1281.28521,727.556087 C1245.0371,781.170923 1186.28887,790.085962 1107.40073,750.448364 Z" id="Fill-18" fill="#1A1919"></path>
            <path d="M685,665.001209 C685,682.120161 671.791766,696 655.50115,696 C639.208234,696 626,682.120161 626,665.001209 C626,647.879839 639.208234,634 655.50115,634 C671.791766,634 685,647.879839 685,665.001209" id="Fill-19" fill="#1A1919"></path>
            <path d="M950,1230 C950,1247.1207 936.793551,1261 920.5,1261 C904.206449,1261 891,1247.1207 891,1230 C891,1212.8793 904.206449,1199 920.5,1199 C936.793551,1199 950,1212.8793 950,1230" id="Fill-20" fill="#1A1919"></path>
            <path d="M1216,665.001209 C1216,682.120161 1202.79407,696 1186.50115,696 C1170.20823,696 1157,682.120161 1157,665.001209 C1157,647.879839 1170.20823,634 1186.50115,634 C1202.79407,634 1216,647.879839 1216,665.001209" id="Fill-21" fill="#1A1919"></path>
            <path d="M954,925.998763 C954,944.775639 939.674804,960 922.001164,960 C904.327524,960 890,944.775639 890,925.998763 C890,907.224361 904.327524,892 922.001164,892 C939.674804,892 954,907.224361 954,925.998763" id="Fill-22" fill="#1A1919"></path>
        </g>
    </g>
</svg>